<svg width="179" height="184" viewBox="0 0 179 184" fill="none" xmlns="http://www.w3.org/2000/svg">
<path fill-rule="evenodd" clip-rule="evenodd" d="M135.262 109.061C132.489 110.149 129.282 111.781 128.984 114.752C132.751 111.846 137.403 110.111 142.148 109.844C138.87 113.987 134.731 117.441 130.074 119.92C125.891 122.147 120.596 124.521 120.237 129.257C124.729 123.892 131.635 120.643 138.62 120.611C134.152 127.176 126.986 131.833 119.187 133.241C119.454 135.259 128.102 139.58 130.621 140.412C132.415 148.142 133.192 158.168 134.986 165.899C135.427 167.801 135.816 169.987 134.655 171.555C133.502 173.11 131.327 173.378 129.4 173.516C121.806 174.057 111.416 174.599 103.823 175.14C102.913 171.008 102.004 166.876 101.095 162.744C88.2859 163.937 33.3725 176.56 23.2951 169.938C-15.607 144.373 33.9999 135.665 35.066 104.54C35.3104 97.403 13.9207 84.9277 14.2603 77.6353C14.4821 72.8735 15.2169 68.2219 17.5654 64.1331C19.914 60.0443 23.6355 56.8947 27.6803 54.4853C22.1116 53.0494 17.8935 47.4808 18.0064 41.714C18.1192 35.9471 22.5519 30.5489 28.1725 29.3333C25.5225 26.1654 21.3497 24.7134 18.3018 21.9288C14.7512 18.6849 12.9669 13.4523 14.2603 8.81266C15.5537 4.17305 20.1074 0.522687 24.9055 0.728377C28.8466 0.897333 32.315 3.39792 35.066 6.23404C39.3326 10.6325 42.5057 16.0904 44.2212 21.9814C45.3647 25.9079 49.5554 27.9055 53.0945 29.9375C56.6336 31.9696 60.3088 35.5092 59.3117 39.4757C57.9935 34.048 77.5865 40.513 95.3559 42.0956C97.7151 42.3058 100.254 42.6117 101.998 44.2194C104.505 46.5297 108.267 47.3724 111.515 46.3506C112.548 48.9202 113.309 51.8066 112.43 54.4336C111.552 57.0606 108.441 59.0657 105.953 57.8606C106.603 61.2111 107.252 64.5617 107.901 67.9122C114.26 67.9889 120.618 68.1192 126.975 68.303C130.344 68.4004 133.866 68.5542 136.794 70.2286C139.722 71.9031 143.641 69.5309 146.535 63.4362C144.662 73.381 146.881 77.3549 150.707 78.4352C150.715 78.36 151.012 78.3959 151.021 78.3207C152.16 68.4931 158.808 59.7672 168.06 56.3152C167.241 58.2064 161.388 61.9419 157.323 66.7121C153.352 71.3716 151.452 77.6098 151.255 78.73C157.56 77.0717 159.661 81.7835 170.358 77.6353C165.47 83.5301 156.051 84.9816 149.625 80.8302C146.594 84.222 146.763 87.9777 144.616 91.9916C148.264 87.4432 153.108 91.4757 149.265 94.4237C151.305 94.6203 153.51 94.8898 154.99 96.312C156.469 97.7341 156.506 100.727 154.598 101.476C148.152 104.004 141.707 106.533 135.262 109.061Z" fill="#FCA740"/>
<path fill-rule="evenodd" clip-rule="evenodd" d="M124.8 86.6472C125.033 86.2023 125.286 85.7357 125.716 85.4764C126.145 85.2171 126.804 85.2707 127.035 85.7167C127.281 86.1915 126.915 86.7637 126.485 87.0806C126.055 87.3974 125.527 87.6208 125.248 88.0767C126.757 89.0743 128.266 90.0719 129.775 91.0695C130.957 91.8509 132.295 92.9668 132.053 94.366C131.911 95.1863 131.218 95.8241 130.446 96.1301C129.674 96.4361 128.825 96.4681 127.996 96.4921C122.42 96.6531 116.838 96.6248 111.264 96.407C110.878 96.3919 110.446 96.3558 110.189 96.066C109.989 95.8416 109.948 95.5214 109.916 95.2224C109.595 92.2462 109.274 89.2701 108.953 86.2939C108.941 86.184 108.93 86.0692 108.969 85.9658C109.134 85.5313 109.782 85.799 110.145 86.0891C112.711 88.1436 116.813 87.9022 119.122 85.5609C119.68 84.9951 120.629 85.0683 121.346 85.4094C122.063 85.7505 122.662 86.3054 123.381 86.6416C123.305 86.2245 123.671 85.7845 124.094 85.7862C124.517 85.7879 124.88 86.2308 124.8 86.6472Z" fill="white"/>
<path fill-rule="evenodd" clip-rule="evenodd" d="M35.0082 53.7995C35.0082 53.7995 34.3854 46.3153 35.9532 43.9094C37.521 41.5035 43.4929 40.7792 43.4929 40.7792C43.4929 40.7792 59.8609 40.5646 68.7045 40.9037C77.5481 41.2429 95.235 42.7633 95.235 42.7633C95.235 42.7633 97.5332 43.2662 98.5663 43.9094C99.5994 44.5527 101.04 46.3779 101.04 46.3779C101.04 46.3779 104.176 46.8365 105.736 46.8988C107.296 46.9612 108.725 46.6851 108.725 46.6851C108.725 46.6851 110.713 52.5013 109.308 55.2734C107.902 58.0456 103.183 57.6157 103.183 57.6157L104.854 67.9905C104.854 67.9905 102.868 68.9321 101.783 70.1126C100.697 71.2931 100.261 72.9858 100.261 72.9858L103.487 104.539C103.487 104.539 104.436 106.18 106.475 106.803C108.513 107.425 113.106 107.478 113.106 107.478C113.106 107.478 112.942 110.66 113.106 112.029C113.269 113.399 113.415 114.149 113.415 114.149L116.873 138.98C116.873 138.98 113.512 139.593 110.187 140.403C106.861 141.212 100.261 143.023 100.261 143.023C100.261 143.023 97.9348 144.087 97.6334 145.805C97.332 147.523 98.5663 152.686 98.5663 152.686L61.5151 155.519C61.5151 155.519 57.9095 155.587 56.6694 154.804C55.4292 154.02 55.0893 151.458 55.0893 151.458L50.0778 106.241C50.0778 106.241 42.0694 106.438 39.7305 105.098C37.3915 103.758 37.1087 98.8128 37.1087 98.8128C37.1087 98.8128 37.4972 96.0096 37.1087 94.0642C36.979 93.4151 35.2852 86.3788 34.7162 79.6836C34.3942 75.8952 38.8381 72.9858 38.8381 72.9858L35.0082 53.7995Z" fill="white"/>
<path fill-rule="evenodd" clip-rule="evenodd" d="M61.1523 43.3902C60.8641 43.7976 61.1053 44.4055 61.5216 44.6796C61.938 44.9536 62.4626 44.9845 62.9601 45.007C68.3652 45.251 73.7703 45.495 79.1755 45.739C79.7022 45.7628 80.2855 45.768 80.6845 45.4224C81.0835 45.0768 81.0308 44.2524 80.5102 44.1694C74.4997 43.2107 68.4005 42.8126 62.3169 42.9818C61.8898 42.9937 61.3995 43.0407 61.1523 43.3902" fill="#E0E0E0"/>
<path fill-rule="evenodd" clip-rule="evenodd" d="M85.2005 82.254L83.7958 75.6416C83.7958 75.6416 83.7302 77.0051 82.9865 77.5597C82.2428 78.1144 80.7725 77.8963 80.7725 77.8963C80.7725 77.8963 80.5396 73.2788 81.5746 71.8728C82.6096 70.4667 83.6292 71.7946 85.5951 71.3448C87.5593 70.8955 87.1524 69.4153 89.4348 70.0745C91.7172 70.7336 93.4035 75.6337 93.4035 75.6337C93.4035 75.6337 91.614 76.2353 90.8526 76.081C90.0912 75.9267 90.2768 75.0001 90.2768 75.0001C90.2768 75.0001 89.7371 74.7697 89.8747 76.3943C89.9415 77.1835 90.5371 78.3704 90.8526 79.923C90.9701 80.5012 90.8526 81.8004 90.8526 81.8004C90.8526 81.8004 88.8216 82.0083 87.0666 82.3851C85.3116 82.7619 85.2005 82.254 85.2005 82.254Z" fill="#E0E0E0"/>
<path fill-rule="evenodd" clip-rule="evenodd" d="M35.333 65.8061C34.6569 65.441 34.1072 64.884 33.5684 64.3353C32.1785 62.9201 30.7712 61.4819 29.8069 59.7466C29.715 59.5814 29.6248 59.3917 29.6777 59.2101C29.7307 59.0286 30.007 58.9255 30.1103 59.0837C31.7866 61.6509 33.9034 63.9277 36.3397 65.7838C36.1206 66.0793 35.6562 65.9806 35.333 65.8061Z" fill="#1E1F26"/>
<path fill-rule="evenodd" clip-rule="evenodd" d="M37.358 33.3145C37.7573 32.9018 37.9703 32.3465 38.1542 31.8017C38.7276 30.1028 39.1184 28.342 39.3175 26.5595C39.3534 26.2385 39.4121 25.8688 39.6898 25.7052C40.0021 27.2335 39.6153 28.8086 39.2307 30.3202C38.8926 31.6492 38.5182 33.0446 37.5592 34.0222C37.4621 34.1211 37.3382 34.2219 37.2018 34.1991C37.0179 34.1682 36.9441 33.9229 37.0098 33.7479C37.0755 33.5728 37.2281 33.4487 37.358 33.3145L37.358 33.3145Z" fill="#1E1F26"/>
<path fill-rule="evenodd" clip-rule="evenodd" d="M133.75 46.6451C133.94 46.5941 134.133 46.7445 134.216 46.9234C134.299 47.1024 134.305 47.3059 134.342 47.4997C134.486 48.2573 135.167 48.8788 135.932 48.9518C136.028 49.1743 135.817 49.397 135.65 49.5721C135.27 49.9706 135.03 50.5009 134.982 51.05C134.95 51.4063 134.875 51.9022 134.519 51.8975C134.232 51.8938 134.106 51.5461 134.003 51.2779C133.751 50.6227 133.182 50.0988 132.51 49.9024C132.369 49.8612 132.309 49.6803 132.348 49.5381C132.387 49.3959 132.495 49.2847 132.597 49.1792C133.039 48.7247 133.487 48.1866 133.482 47.5519C133.48 47.2087 133.419 46.7337 133.75 46.6451Z" fill="#EB9050"/>
<path fill-rule="evenodd" clip-rule="evenodd" d="M147.135 106.265C146.542 106.876 146.332 107.833 146.614 108.637C146.302 108.778 146.068 108.346 145.914 108.039C145.682 107.579 145.243 107.23 144.744 107.106C145.467 106.649 145.916 105.789 145.88 104.933C146.171 104.743 146.496 105.138 146.579 105.476C146.663 105.814 146.788 106.253 147.135 106.265Z" fill="#E0E0E0"/>
<path fill-rule="evenodd" clip-rule="evenodd" d="M142.075 107.411C142.418 107.958 142.907 108.413 143.478 108.716C143.682 108.824 143.497 109.127 143.327 109.286C142.901 109.685 142.631 110.248 142.586 110.832C142.214 110.457 141.841 110.082 141.468 109.708C141.32 109.558 141.163 109.326 141.291 109.158C141.682 108.647 141.952 108.044 142.075 107.411Z" fill="#E0E0E0"/>
<path fill-rule="evenodd" clip-rule="evenodd" d="M117.177 41.5053C117.516 39.3383 118.336 37.2086 119.776 35.5582C121.217 33.9079 123.32 32.7813 125.506 32.7831C127.693 32.7849 129.901 34.0272 130.81 36.0224C131.28 37.0547 131.396 38.2169 131.364 39.3514C131.303 41.5092 130.725 43.6505 129.693 45.5445C128.762 47.2523 127.423 48.7885 125.686 49.6549C123.948 50.5213 121.783 50.6377 120.093 49.6799C118.756 48.9215 117.82 47.5602 117.374 46.0853C116.929 44.6105 116.938 43.0278 117.177 41.5053M130.541 39.8655C130.581 38.5219 130.36 37.1344 129.656 35.9909C129.227 35.2957 128.628 34.7077 127.925 34.2943C125.659 32.9611 122.574 33.6773 120.692 35.5158C118.81 37.3543 117.994 40.0715 117.91 42.7056C117.865 44.1106 118.016 45.5514 118.611 46.8239C119.207 48.0964 120.296 49.1848 121.654 49.5345C123.429 49.992 125.304 49.1306 126.696 47.934C129.02 45.9374 130.451 42.9332 130.541 39.8655Z" fill="#EB9050"/>
<path fill-rule="evenodd" clip-rule="evenodd" d="M139.553 40.0006C139.191 40.4748 138.813 41.0978 139.091 41.6259C139.19 41.8149 138.933 42.0348 138.729 41.9752C138.524 41.9156 138.408 41.6989 138.354 41.4924C138.299 41.2859 138.281 41.0643 138.172 40.881C138.063 40.6977 137.815 40.5702 137.634 40.6832C137.377 40.6526 137.351 40.2639 137.5 40.0518C137.65 39.8397 137.895 39.6938 137.987 39.4509C138.06 39.2586 138.021 39.0429 138.055 38.8401C138.09 38.6373 138.262 38.4208 138.46 38.4726C138.453 38.829 138.495 39.1987 138.675 39.5059C138.855 39.8131 139.2 40.043 139.553 40.0006Z" fill="#EB9050"/>
<path fill-rule="evenodd" clip-rule="evenodd" d="M107.207 39.2984C107.49 38.9687 107.845 38.6865 108.262 38.5664C108.678 38.4463 109.162 38.5096 109.487 38.797C109.841 39.1098 109.952 39.6323 109.877 40.0994C109.802 40.5665 109.567 40.991 109.32 41.3941C108.999 41.9171 108.651 42.4232 108.277 42.9094C108.16 43.0613 108.032 43.2179 107.853 43.2856C107.617 43.3749 107.354 43.2879 107.121 43.1902C106.302 42.847 105.541 42.3654 104.88 41.772C104.274 41.2285 103.716 40.4321 103.961 39.6551C104.117 39.16 104.595 38.8019 105.107 38.7255C105.619 38.6491 106.149 38.83 106.557 39.1507C106.751 39.3041 107.046 39.4868 107.207 39.2984M104.621 39.586C104.234 40.1196 104.654 40.8671 105.141 41.3101C105.749 41.8629 106.471 42.2713 107.186 42.6749C107.278 42.7268 107.38 42.7805 107.483 42.7582C107.575 42.7383 107.643 42.6628 107.704 42.5907C108.188 42.015 108.622 41.3966 108.999 40.7449C109.289 40.2436 109.501 39.5071 109.035 39.1658C108.665 38.8958 108.127 39.1134 107.814 39.4473C107.5 39.7812 107.303 40.2172 106.961 40.521C106.694 40.0985 106.41 39.6594 105.976 39.4114C105.543 39.1635 104.914 39.1812 104.621 39.586H104.621Z" fill="#EB9050"/>
<path fill-rule="evenodd" clip-rule="evenodd" d="M101.67 24.7163C102.556 24.0231 103.542 23.4575 104.587 23.0424C105.227 22.7879 105.958 22.5921 106.592 22.8646C107.606 23.3013 107.804 24.7628 107.27 25.7322C106.736 26.7016 105.724 27.2893 104.76 27.8294C102.87 28.8885 100.98 29.9475 99.0894 31.0066C99.4617 30.2614 99.0416 29.3866 98.6977 28.6277C97.9231 26.9187 97.5178 25.0424 97.5175 23.165C97.5174 22.572 97.5616 21.9611 97.8209 21.4281C98.0802 20.8952 98.5978 20.4532 99.1888 20.4392C100.135 20.4169 100.763 21.4049 101.082 22.2983C101.362 23.0807 101.559 23.8927 101.67 24.7163ZM105.676 23.3575C104.147 23.6691 102.723 24.4759 101.667 25.6281C101.563 25.7416 101.361 25.6916 101.266 25.5704C101.171 25.4492 101.153 25.2867 101.135 25.1337C101.016 24.1201 100.752 23.1238 100.353 22.1849C100.131 21.6614 99.7586 21.0834 99.1915 21.0742C98.7712 21.0673 98.4055 21.405 98.2504 21.7969C98.0954 22.1889 98.1085 22.6252 98.1383 23.0459C98.3041 25.3918 98.9194 27.7049 99.9406 29.8219C101.613 28.8819 103.285 27.9419 104.957 27.0019C105.479 26.7086 106.01 26.4081 106.415 25.9672C106.821 25.5264 107.088 24.9138 106.97 24.3257C106.852 23.7375 106.262 23.2381 105.676 23.3575Z" fill="#EB9050"/>
<path fill-rule="evenodd" clip-rule="evenodd" d="M89.9699 140.911C94.8503 140.353 99.7621 140.072 104.674 140.07C105.575 140.07 106.359 139.367 106.725 138.541C107.091 137.715 107.121 136.784 107.121 135.88C107.123 132.521 106.808 129.172 106.493 125.828C106.366 124.472 106.238 123.117 106.111 121.761C106.033 120.938 105.951 120.097 105.606 119.346C105.007 118.044 103.68 117.198 102.297 116.833C100.914 116.468 99.4611 116.518 98.0324 116.571C93.2891 116.745 88.5457 116.919 83.8024 117.094C86.5367 116.088 89.5146 116.04 92.4268 116.005C94.6594 115.977 96.892 115.95 99.1247 115.923C101.407 115.895 104.014 116.01 105.47 117.773C106.41 118.912 106.618 120.472 106.775 121.942C107.27 126.572 107.633 131.217 107.862 135.868C107.938 137.41 107.877 139.221 106.626 140.119C105.926 140.621 105.018 140.697 104.16 140.755C98.9326 141.11 93.7053 141.465 88.478 141.821C87.2507 141.904 85.9572 141.975 84.8531 141.431C84.4696 141.242 84.0754 140.815 84.2815 140.439C85.9808 141.367 88.0474 141.13 89.9699 140.911Z" fill="#1E1F26"/>
<path fill-rule="evenodd" clip-rule="evenodd" d="M69.2963 66.6336C69.3942 66.7804 69.4165 66.9634 69.4361 67.1389C69.4819 67.5476 69.5276 67.9562 69.5734 68.3649C69.6277 68.8498 69.6389 69.4363 69.2382 69.7129C69.0246 69.8604 68.7491 69.8725 68.4899 69.8795C63.0371 70.0273 57.5843 70.1751 52.1315 70.3229C51.7806 70.3324 51.3747 70.3172 51.1596 70.039C51.0247 69.8643 51.0039 69.6295 50.9912 69.4089C50.9515 68.716 50.9404 68.0214 50.9581 67.3276C50.9608 67.2219 50.9669 67.1083 51.0322 67.0254C51.1106 66.926 51.2486 66.9017 51.3738 66.8847C57.0079 66.1191 62.7179 65.9169 68.3919 66.2822C68.7268 66.3038 69.1096 66.3538 69.2963 66.6336M69.0722 69.2921C68.5184 68.9921 69.0763 68.1123 68.875 67.5142C68.702 67.0003 68.0446 66.8787 67.5047 66.8478C62.3633 66.5542 57.1949 66.7374 52.0869 67.3943C51.8987 67.4185 51.6901 67.4548 51.5758 67.6067C51.463 67.7568 51.4834 67.9651 51.5091 68.1513C51.5488 68.4396 51.5886 68.7278 51.6284 69.016C51.6597 69.2431 51.7076 69.4979 51.8978 69.6251C52.0357 69.7173 52.2133 69.7164 52.379 69.7122C57.9434 69.5722 63.5078 69.4322 69.0722 69.2921Z" fill="#1E1F26"/>
<path fill-rule="evenodd" clip-rule="evenodd" d="M79.554 76.3178C79.5799 75.7107 79.6059 75.1036 79.6318 74.4965C79.6824 73.3126 79.7444 72.0845 80.2928 71.0351C80.8413 69.9856 82.0253 69.1701 83.1748 69.4428C83.8939 69.6134 84.5569 70.1804 85.2801 70.0282C85.9098 69.8956 86.2961 69.2711 86.828 68.908C88.0961 68.0425 89.8637 68.8465 90.9124 69.9693C92.0427 71.1794 92.7774 72.7554 92.9785 74.4014C92.9956 74.5411 93.0042 74.698 92.9146 74.8063C92.8404 74.896 92.7187 74.927 92.6055 74.953C92.1689 75.0533 91.7324 75.1536 91.2958 75.254C90.9241 75.3394 90.5384 75.4251 90.165 75.3476C89.7915 75.27 89.4329 74.9811 89.4028 74.5997C89.2913 76.7311 90.8823 78.767 90.439 80.8544C90.2742 80.7641 90.1094 80.6737 89.9445 80.5834C90.3334 78.49 88.4738 76.4637 88.8621 74.3702C88.9135 74.0932 89.0243 73.7982 89.2712 73.6638C89.5181 73.5294 89.9085 73.6822 89.8989 73.9638C89.8834 74.415 90.3688 74.7521 90.8188 74.7482C91.2688 74.7444 91.6781 74.5023 92.0626 74.2676C92.1995 74.1841 92.1621 73.9774 92.105 73.8272C91.6795 72.7074 91.1201 71.639 90.4427 70.652C89.9848 69.9849 89.4331 69.3254 88.6722 69.0545C87.9113 68.7836 86.9064 69.06 86.6263 69.8196C86.2985 70.7088 85.0596 70.7688 84.1498 70.5124C83.24 70.256 82.2189 69.8557 81.4072 70.3412C80.7284 70.7471 80.5011 71.6119 80.374 72.3943C80.1558 73.7366 80.0551 75.098 80.0734 76.4579C80.1102 76.6655 80.3739 76.7324 80.584 76.7269C81.6907 76.6981 82.7183 75.8225 82.9256 74.7315C83.2239 75.0756 83.3303 75.5418 83.4268 75.9874C83.7608 77.5303 84.0948 79.0733 84.4289 80.6163C84.5317 81.0913 84.4117 81.8213 83.9349 81.7349C83.7188 80.0521 83.3988 78.3826 82.9772 76.7394C82.1801 76.9212 81.3831 77.103 80.586 77.2848C80.3415 77.3406 80.0678 77.3921 79.8538 77.261C79.5585 77.08 79.5391 76.6647 79.554 76.3178Z" fill="#1E1F26"/>
<path fill-rule="evenodd" clip-rule="evenodd" d="M102.871 118.225C103.278 118.667 102.646 119.483 103.019 119.955C103.212 120.199 103.074 120.587 102.818 120.765C102.562 120.942 102.234 120.966 101.923 120.984C96.5833 121.295 91.2434 121.606 85.9035 121.918C85.5405 121.939 85.1069 121.926 84.9084 121.621C84.8218 121.487 84.8008 121.323 84.7821 121.165C84.7334 120.753 84.6846 120.341 84.6359 119.93C84.6206 119.8 84.6069 119.662 84.6674 119.547C84.7673 119.357 85.0154 119.316 85.2284 119.297C90.8404 118.8 96.4591 118.38 102.083 118.037C102.362 118.02 102.682 118.018 102.871 118.225ZM102.258 118.92C102.241 118.819 102.218 118.708 102.137 118.644C102.057 118.581 101.944 118.585 101.842 118.593C96.8625 118.957 91.8833 119.321 86.9041 119.685C86.5016 119.715 86.0841 119.748 85.7326 119.947C85.3811 120.146 85.1161 120.56 85.2216 120.951C85.2543 121.072 85.324 121.187 85.4308 121.252C85.5619 121.332 85.7255 121.326 85.8786 121.318C91.1355 121.032 96.3925 120.746 101.649 120.46C102.274 120.426 102.364 119.539 102.258 118.92Z" fill="#1E1F26"/>
<path fill-rule="evenodd" clip-rule="evenodd" d="M107.084 113.428C108.03 115.923 108.331 118.609 108.625 121.262C109.307 127.425 109.989 133.588 110.671 139.751C110.164 139.793 109.93 139.139 109.867 138.632C108.833 130.34 108.5 121.94 106.753 113.77C106.863 113.656 106.974 113.542 107.084 113.428Z" fill="#1E1F26"/>
<path fill-rule="evenodd" clip-rule="evenodd" d="M76.5962 70.4979C76.4491 70.4349 76.4521 70.2047 76.5648 70.091C76.6776 69.9773 76.8483 69.9499 77.007 69.9296C78.1943 69.7783 79.3916 69.7046 80.5885 69.7091C80.5248 70.2214 79.8655 70.3711 79.3514 70.395C78.4877 70.435 77.624 70.475 76.7603 70.515C76.7049 70.5176 76.6472 70.5198 76.5962 70.4979L76.5962 70.4979Z" fill="#1E1F26"/>
<path fill-rule="evenodd" clip-rule="evenodd" d="M83.2952 133.172C83.1966 131.338 83.0979 129.504 82.9993 127.669C82.7338 122.732 82.46 117.744 81.09 112.995C80.9151 112.388 80.7152 111.773 80.3278 111.275C79.3577 110.03 77.562 109.887 75.9867 109.887C69.9129 109.887 63.8394 110.467 57.8745 111.615C57.2683 111.732 56.6382 111.866 56.1545 112.25C55.386 112.862 55.1834 113.936 55.1121 114.917C54.9818 116.708 55.1108 118.518 55.4938 120.273C55.2746 120.236 55.0554 120.2 54.8362 120.163C54.0324 118.484 53.6663 116.596 53.7837 114.737C53.8346 113.929 53.9827 113.107 54.3973 112.414C55.4287 110.688 57.699 110.274 59.6932 110.06C64.753 109.516 69.8316 109.15 74.9169 108.962C76.9637 108.887 79.2766 108.944 80.6814 110.44C81.388 111.192 81.7458 112.203 82.0267 113.197C83.0026 116.651 83.2719 120.261 83.5362 123.842C83.7945 127.34 84.0527 130.839 84.311 134.337C84.3717 135.16 84.4317 135.995 84.2658 136.802C83.7254 139.434 80.9318 141.034 78.2725 141.353C75.6131 141.671 72.9357 141.061 70.2579 141.016C66.6567 140.956 63.0342 141.917 59.4826 141.317C58.4596 141.144 57.3719 140.78 56.8096 139.906C56.4195 139.299 56.3491 138.547 56.2894 137.828C55.8682 132.754 55.4469 127.679 55.0257 122.605C54.9975 122.265 55.2494 121.759 55.5096 121.978C55.974 126.866 56.4384 131.753 56.9029 136.641C56.9657 137.303 57.034 137.984 57.3406 138.573C57.7857 139.428 58.6837 139.972 59.6148 140.214C60.5458 140.456 61.5217 140.437 62.4835 140.424C66.5525 140.371 70.6235 140.472 74.6848 140.729C76.043 140.814 77.4158 140.917 78.7575 140.688C80.0992 140.46 81.4304 139.86 82.2632 138.78C83.4493 137.242 83.3996 135.114 83.2952 133.172Z" fill="#1E1F26"/>
<path fill-rule="evenodd" clip-rule="evenodd" d="M76.39 68.5141C76.7686 68.2176 76.4503 67.6104 76.5249 67.1345C76.6305 66.4611 77.4658 66.2298 78.1408 66.1516C82.4762 65.6489 86.8422 65.4112 91.2064 65.4402C91.5696 65.4426 91.9988 65.4833 92.1817 65.798C92.4013 66.1759 92.1967 66.8355 92.6124 66.9678C92.8075 67.03 93.0577 66.915 93.2056 67.057C93.4501 67.2919 92.9946 67.6092 92.6575 67.6395C87.5502 68.0993 82.4319 68.4358 77.3085 68.6486C76.995 68.6616 76.6626 68.6698 76.39 68.5141M91.6458 66.3923C91.5265 66.0914 91.1273 66.0473 90.8045 66.0522C86.6899 66.115 82.5774 66.319 78.4766 66.6638C77.9958 66.7042 77.4284 66.8048 77.2279 67.245C77.1317 67.4954 77.3153 67.7833 77.5576 67.8969C77.7999 68.0105 78.08 67.9959 78.3469 67.9789C82.4433 67.7182 86.5397 67.4575 90.6361 67.1968C90.8883 67.1808 91.1511 67.1616 91.3684 67.0324C91.5857 66.9033 91.7392 66.6277 91.6458 66.3923Z" fill="#1E1F26"/>
<path fill-rule="evenodd" clip-rule="evenodd" d="M97.1673 126.693C97.7991 127.197 97.5289 128.3 98.0785 128.893C98.334 129.168 98.7167 129.276 99.0767 129.382C99.3081 129.45 99.5947 129.62 99.5211 129.851C99.4457 130.086 99.103 130.048 98.8731 129.958C98.1223 129.663 97.2758 129.172 97.2343 128.365C97.2041 127.775 97.0294 127.193 96.73 126.685C96.8143 126.542 97.0375 126.59 97.1673 126.693V126.693Z" fill="#1E1F26"/>
<path fill-rule="evenodd" clip-rule="evenodd" d="M100.155 135.047C99.9495 132.388 99.7438 129.73 99.538 127.072C99.5078 126.681 99.4733 126.276 99.2804 125.935C99.0875 125.594 98.6879 125.338 98.3106 125.439C96.6036 125.899 94.8309 126.112 93.064 126.07C91.519 126.033 89.9383 125.806 88.4519 126.231C88.4796 126.969 88.5072 127.708 88.5348 128.446C88.5429 128.661 88.5551 128.89 88.6774 129.068C89.0201 129.565 89.8711 129.186 90.0644 128.613C90.2577 128.04 90.0831 127.414 90.1163 126.81C90.1222 126.703 90.1435 126.581 90.2343 126.525C90.4271 126.404 90.6123 126.691 90.6618 126.914C90.8035 127.551 90.945 128.218 90.7777 128.848C90.6104 129.479 90.0271 130.051 89.3818 129.967C88.7131 129.881 88.4395 130.798 88.4233 131.474C88.391 132.823 88.3587 134.173 88.3264 135.522C88.3163 135.947 88.4686 136.534 88.8894 136.486C89.9758 136.362 91.0621 136.239 92.1484 136.115C92.411 136.085 92.6933 136.059 92.9243 136.188C93.1552 136.317 93.2773 136.667 93.0881 136.852C91.8121 136.965 90.5361 137.077 89.2602 137.189C88.8875 137.222 88.5008 137.253 88.1492 137.125C87.7976 136.996 87.4914 136.661 87.5234 136.287C87.8373 132.616 87.9075 128.924 87.7335 125.244C87.6965 124.461 88.6471 124.064 89.4151 123.919C91.8527 123.461 94.3387 123.262 96.8178 123.327C97.649 123.349 98.555 123.432 99.1578 124.006C99.7714 124.591 99.8919 125.513 99.9765 126.358C100.294 129.524 100.611 132.691 100.928 135.858C100.945 136.028 100.949 136.232 100.813 136.335C100.732 136.397 100.623 136.404 100.521 136.408C99.4625 136.453 98.4045 136.497 97.3464 136.541C96.7858 136.564 96.1826 136.576 95.7158 136.264C95.3957 136.05 95.1841 135.709 94.9982 135.371C94.5521 134.561 94.1957 133.7 93.9375 132.811C93.5328 133.827 93.2766 134.903 93.1796 135.993C92.6683 136.049 92.5732 135.279 92.6921 134.777C92.9374 133.741 93.1827 132.706 93.428 131.67C93.4653 131.512 93.5249 131.329 93.679 131.281C93.9058 131.209 94.0799 131.482 94.1628 131.705C94.5084 132.637 94.8539 133.568 95.1995 134.5C95.4969 135.302 96.3547 135.783 97.2017 135.882C98.0488 135.981 98.8977 135.767 99.7238 135.555C99.8872 135.513 100.073 135.452 100.136 135.296C100.168 135.218 100.162 135.131 100.155 135.047ZM88.6448 125.314C89.4109 125.324 90.1771 125.334 90.9432 125.344C91.5189 125.351 92.0947 125.358 92.6703 125.348C94.7482 125.308 96.8215 125.029 98.836 124.516C98.3867 124.053 97.6658 124.027 97.0219 124.039C94.7176 124.08 92.4149 124.215 90.1213 124.442C89.5075 124.503 88.7448 124.703 88.6448 125.314L88.6448 125.314Z" fill="#1E1F26"/>
<path fill-rule="evenodd" clip-rule="evenodd" d="M85.215 123.323C85.1712 123.083 85.4819 122.952 85.7225 122.914C88.5023 122.482 91.3193 122.291 94.1317 122.344C94.1721 122.345 94.2136 122.346 94.2509 122.361C94.3829 122.417 94.3767 122.625 94.2719 122.723C94.1671 122.82 94.0129 122.837 93.8703 122.848C91.1922 123.049 88.4748 122.946 85.851 123.52C85.6074 123.573 85.2598 123.569 85.215 123.323L85.215 123.323Z" fill="#1E1F26"/>
<path fill-rule="evenodd" clip-rule="evenodd" d="M147.38 117.549C147.534 117.186 147.703 116.803 148.029 116.582C148.304 116.396 148.648 116.354 148.978 116.319C149.957 116.212 150.935 116.105 151.914 115.999C152.398 115.946 153.023 115.741 153.004 115.253C152.945 113.677 153.067 111.862 154.315 110.903C155.456 110.025 157.166 110.266 158.338 111.103C159.509 111.94 160.251 113.244 160.892 114.536C161.175 115.108 161.951 115.212 162.579 115.102C163.206 114.992 163.842 114.744 164.461 114.895C165.414 115.127 165.896 116.171 166.223 117.099C167.867 121.752 168.983 126.604 171.027 131.095C171.791 132.775 171.549 134.871 170.422 136.331C170.283 135.171 170.477 133.974 170.974 132.918C171.208 132.421 170.429 132.094 169.88 132.095C164.292 132.109 158.679 132.125 153.152 132.957C152.983 132.982 152.804 133.014 152.678 133.129C152.556 133.242 152.508 133.412 152.466 133.573C152.294 134.226 152.123 134.879 151.952 135.532C151.844 135.941 151.912 136.576 152.331 136.533C157.801 135.978 163.301 135.713 168.798 135.74C169.376 135.743 170.166 135.973 170.091 136.548C164.234 136.617 158.356 136.688 152.562 137.553C151.64 137.691 151.003 136.545 151.107 135.615C151.212 134.685 151.744 133.851 151.893 132.928C152.023 132.132 151.861 131.32 151.687 130.533C151.411 129.281 151.102 128.037 150.761 126.801C150.429 125.596 150.066 124.399 149.703 123.202C149.154 121.391 148.605 119.581 148.056 117.771C147.301 118.879 146.965 120.268 147.128 121.601C147.242 122.529 147.585 123.41 147.842 124.308C148.21 125.593 148.402 126.921 148.594 128.243C148.972 130.848 149.35 133.454 149.728 136.059C149.783 136.442 149.674 137.007 149.291 136.95C147.593 131.679 148.059 125.851 146.055 120.69C146.497 119.643 146.938 118.596 147.38 117.549ZM160.031 118.506C160.584 118.197 160.871 117.476 160.681 116.87C160.491 116.263 159.845 115.836 159.215 115.9C157.67 116.057 156.125 116.214 154.579 116.371C154.437 116.386 154.277 116.41 154.191 116.525C154.124 116.616 154.122 116.739 154.129 116.852C154.17 117.561 154.415 118.256 154.827 118.833C155.147 119.281 155.589 119.818 155.339 120.309C155.027 120.922 154.001 120.578 153.747 119.938C153.492 119.299 153.673 118.576 153.626 117.889C153.579 117.202 153.086 116.411 152.409 116.525C151.298 116.713 150.187 116.9 149.077 117.088C148.917 117.115 148.709 117.213 148.756 117.369C150.108 121.86 151.461 126.351 152.813 130.841C152.982 131.401 153.362 132.094 153.929 131.961C159.139 130.74 164.632 131.895 169.921 131.093C168.336 126.108 166.697 121.142 165.003 116.194C164.953 116.048 164.896 115.893 164.772 115.802C164.635 115.701 164.45 115.704 164.279 115.711C163.486 115.745 162.693 115.779 161.899 115.812C161.585 115.826 161.157 115.976 161.226 116.283C161.442 117.247 161.657 118.212 161.873 119.176C161.91 119.342 161.946 119.519 161.885 119.678C161.717 120.109 161.084 120 160.662 119.814C160.385 119.691 160.094 119.557 159.923 119.307C159.752 119.057 159.766 118.653 160.031 118.506ZM157.986 111.51C157.377 111.062 156.577 110.739 155.875 111.016C155.63 111.113 155.417 111.275 155.209 111.436C154.837 111.722 154.453 112.02 154.234 112.436C154.029 112.822 153.987 113.271 153.949 113.707C153.916 114.088 153.883 114.468 153.849 114.849C153.828 115.085 153.82 115.356 153.991 115.52C154.155 115.678 154.411 115.666 154.637 115.645C156.253 115.491 157.87 115.336 159.486 115.182C159.716 115.16 159.998 115.097 160.058 114.873C160.082 114.785 160.063 114.691 160.041 114.602C159.744 113.373 159.002 112.258 157.986 111.51ZM157.38 115.538C157.218 115.584 157.399 115.89 157.517 115.769C157.668 115.707 157.501 115.421 157.373 115.524L157.38 115.538Z" fill="#EB9050"/>
<path fill-rule="evenodd" clip-rule="evenodd" d="M106.137 79.0895C106.109 78.9946 106.166 78.8953 106.232 78.8221C106.558 78.4623 107.103 78.4356 107.587 78.4344C110.524 78.4276 113.461 78.4207 116.397 78.4138C116.604 78.4134 116.826 78.4174 116.994 78.5372C117.163 78.6571 117.229 78.9395 117.067 79.0682C116.981 79.1367 116.862 79.1409 116.752 79.1422C113.34 79.1802 109.928 79.2182 106.516 79.2562C106.368 79.2578 106.18 79.2324 106.137 79.0895Z" fill="#1E1F26"/>
<path fill-rule="evenodd" clip-rule="evenodd" d="M107.226 82.1312C107.049 82.0291 107.074 81.7429 107.222 81.6027C107.371 81.4625 107.588 81.4296 107.791 81.4051C109.006 81.258 110.229 81.1772 111.451 81.0965C112.124 81.052 112.797 81.0075 113.47 80.9631C114.345 80.9052 115.221 80.8474 116.096 80.7896C116.374 80.7712 116.684 80.7631 116.893 80.9476C117.103 81.132 117.052 81.5755 116.774 81.5928C113.685 81.7847 110.596 81.9767 107.507 82.1687C107.411 82.1746 107.309 82.1792 107.226 82.1312L107.226 82.1312Z" fill="#1E1F26"/>
<path fill-rule="evenodd" clip-rule="evenodd" d="M123.783 86.1374C124.016 85.6925 124.27 85.2258 124.699 84.9665C125.128 84.7072 125.787 84.7608 126.018 85.2068C126.264 85.6816 125.898 86.2538 125.468 86.5707C125.039 86.8875 124.51 87.1109 124.231 87.5668C125.74 88.5644 127.249 89.562 128.759 90.5596C129.941 91.341 131.278 92.457 131.036 93.8562C130.894 94.6765 130.201 95.3142 129.429 95.6203C128.657 95.9263 127.809 95.9583 126.979 95.9822C121.403 96.1433 115.822 96.1149 110.248 95.8972C109.861 95.8821 109.43 95.8459 109.172 95.5562C108.972 95.3317 108.931 95.0116 108.899 94.7126C108.578 91.7364 108.257 88.7602 107.937 85.784C107.925 85.6741 107.913 85.5593 107.953 85.4559C108.118 85.0214 108.766 85.2891 109.128 85.5792C111.694 87.6337 115.796 87.3923 118.105 85.051C118.663 84.4852 119.613 84.5584 120.329 84.8995C121.046 85.2406 121.646 85.7955 122.365 86.1317C122.288 85.7146 122.654 85.2746 123.077 85.2763C123.5 85.278 123.863 85.7209 123.783 86.1374ZM124.099 88.0549C123.916 87.3794 122.92 87.2378 122.372 87.67C121.823 88.1022 121.645 88.8552 121.597 89.5535C121.579 89.814 121.152 89.84 121.006 89.624C120.86 89.4081 120.919 89.1171 121 88.8691C121.215 88.2144 121.545 87.5981 121.971 87.0574C122.181 86.7897 121.872 86.4276 121.594 86.2314C120.612 85.539 119.222 84.8558 118.322 85.6515C115.854 87.8319 111.918 88.1224 109.158 86.3278C109.191 88.5618 109.355 90.7939 109.649 93.0086C109.679 93.2317 109.717 93.4701 109.871 93.6341C110.074 93.8512 110.407 93.8664 110.704 93.8667C115.497 93.8729 120.291 93.879 125.084 93.8851C125.55 93.8857 126.185 93.7186 126.148 93.2521C126.064 92.1665 126.543 91.0521 127.388 90.3688C126.723 89.8843 126.058 89.3999 125.393 88.9154C125.191 88.7677 124.978 88.6157 124.731 88.5733C123.986 88.445 123.487 89.3028 123.223 90.0143C122.819 89.2893 123.29 88.2347 124.099 88.0549ZM111.571 95.4677C116.562 95.5069 121.554 95.4985 126.546 95.4425C127.963 95.4266 129.617 95.2823 130.386 94.0878C123.493 94.3916 116.59 94.4668 109.693 94.3132C109.607 95.1437 110.738 95.4612 111.571 95.4677M128.653 91.0044C128.505 90.91 128.351 90.8135 128.178 90.7837C127.655 90.6937 127.243 91.2174 127.016 91.6981C126.885 91.9761 126.771 92.2623 126.675 92.5544C126.601 92.777 126.538 93.0137 126.584 93.2435C126.63 93.4733 126.818 93.6907 127.052 93.6933C127.9 93.703 128.749 93.6939 129.598 93.6661C129.798 93.6596 130.015 93.6453 130.165 93.5121C130.342 93.3553 130.363 93.0848 130.319 92.8527C130.159 92.0122 129.374 91.4624 128.653 91.0044ZM125.655 85.5684C125.646 85.3091 125.301 85.1773 125.062 85.2774C124.823 85.3775 124.677 85.6154 124.546 85.8392C124.387 86.1096 124.229 86.38 124.071 86.6504C123.988 86.7922 123.942 87.0335 124.102 87.069C124.524 86.7176 124.945 86.3662 125.367 86.0147C125.508 85.8971 125.662 85.7523 125.655 85.5684ZM122.924 85.991C122.853 86.3406 123.031 86.727 123.344 86.8979C123.452 86.5377 123.389 86.1297 123.176 85.8198C123.163 85.7321 123.044 85.6814 122.972 85.7326C122.917 85.8032 122.897 85.9007 122.92 85.9875L122.924 85.991Z" fill="#1E1F26"/>
<path fill-rule="evenodd" clip-rule="evenodd" d="M105.762 75.6801C105.635 75.0648 105.509 74.4496 105.382 73.8344C105.333 73.5953 105.288 73.3299 105.413 73.1204C105.583 72.8347 105.973 72.7967 106.305 72.7909C114.452 72.6487 122.603 72.6798 130.749 72.8842C131.305 72.8982 131.761 73.3795 131.93 73.9109C132.099 74.4422 132.044 75.0157 131.986 75.5704C131.955 75.8701 131.906 76.2044 131.668 76.3879C131.473 76.5382 131.206 76.542 130.96 76.5393C122.778 76.4497 114.596 76.3601 106.414 76.2704C106.279 76.269 106.136 76.2653 106.022 76.1933C105.856 76.0881 105.802 75.8736 105.762 75.6801ZM106.888 73.3304C106.285 73.326 105.858 74.0437 106.009 74.6287C106.159 75.2138 106.723 75.6164 107.308 75.7587C107.893 75.9009 108.506 75.8322 109.106 75.776C116.495 75.0831 123.967 76.4074 131.351 75.6601C131.389 75.2094 131.426 74.7435 131.282 74.3151C131.137 73.8867 130.76 73.5029 130.309 73.4997C122.502 73.4433 114.695 73.3868 106.888 73.3304Z" fill="#1E1F26"/>
<path fill-rule="evenodd" clip-rule="evenodd" d="M56.6329 93.4998C56.3602 94.0183 55.9842 94.545 55.4204 94.6993C54.3465 94.9931 53.4585 93.7971 53.1654 92.7199C52.7079 91.0382 52.8237 89.2052 53.489 87.5949C53.845 86.7333 53.5483 85.7148 52.9902 84.9689C51.9376 83.5623 49.9741 82.9464 48.2869 83.4249C46.5998 83.9035 45.2684 85.409 44.9154 87.1318C44.8602 87.4016 44.8992 87.7804 45.1711 87.8186C46.527 88.009 47.1495 89.6055 47.356 90.9633C47.5136 92.0001 47.5821 93.0863 47.2315 94.0744C46.8809 95.0624 46.0229 95.9302 44.9805 96.0097C44.045 95.3778 43.3407 94.4092 43.0265 93.3226C42.4423 91.3017 43.2013 89.1595 43.9849 87.2076C44.4632 86.0165 44.9766 84.7968 45.8851 83.8921C47.8271 81.9582 51.4534 82.1878 53.1376 84.3512C53.7855 85.1834 54.1572 86.2172 54.8752 86.9894C55.4164 87.5715 56.1319 87.9788 56.6256 88.6019C57.6979 89.9552 57.4372 91.9709 56.6329 93.4998ZM43.6206 89.7638C43.1289 91.1233 43.2659 92.6974 43.9849 93.9508C44.1031 94.1567 44.2436 94.3615 44.45 94.478C44.6564 94.5944 44.9442 94.5962 45.1074 94.4241C45.5964 93.9083 45.6575 93.1284 45.6559 92.4166C45.654 91.5748 45.6022 90.7332 45.501 89.8975C45.4596 89.5555 45.3889 89.1774 45.1132 88.9719C44.8375 88.7665 44.3198 88.9383 44.3631 89.2802C44.4891 90.2748 44.6151 91.2694 44.7411 92.264C44.7698 92.4903 44.795 92.735 44.682 92.9329C44.569 93.1307 44.2568 93.2229 44.1137 93.0458C43.7429 92.2867 43.6311 91.4032 43.8011 90.5753C43.8622 90.2776 43.9043 89.8703 43.6206 89.7638M54.9715 93.7081C55.0968 93.61 55.1553 93.4507 55.202 93.2983C55.5697 92.1009 55.5736 90.7937 55.2132 89.594C55.0762 89.1379 54.7049 88.6043 54.2551 88.7571C53.9952 88.8454 53.8634 89.1308 53.7806 89.3933C53.4046 90.5859 53.4546 91.9088 53.9196 93.0694C54.0087 93.2918 54.1189 93.5166 54.3077 93.6635C54.4964 93.8104 54.7831 93.8555 54.9715 93.7081ZM46.146 89.4043C46.4736 91.0699 46.4039 92.8128 45.9444 94.4468C45.9021 94.5972 46.0721 94.7145 46.2145 94.7778C46.9039 93.1006 46.9911 91.1816 46.4569 89.4484C46.3684 89.385 46.2486 89.368 46.146 89.4043ZM55.71 88.9544C55.6082 89.1175 55.5063 89.2805 55.4045 89.4436C55.7402 89.3866 55.8938 89.8461 55.9118 90.1871C55.9533 90.9754 55.9948 91.7638 56.0363 92.5521C56.349 92.4344 56.4056 92.0227 56.4114 91.6878C56.4245 90.9335 56.4376 90.1793 56.4507 89.4251C56.3382 89.4118 56.2256 89.3986 56.113 89.3853C56.1014 89.1717 55.9218 88.9797 55.71 88.9544Z" fill="#1E1F26"/>
<path fill-rule="evenodd" clip-rule="evenodd" d="M92.5693 90.385C90.3292 90.2778 88.0794 90.3752 85.8569 90.6758C85.6603 90.7024 85.4401 90.7249 85.2821 90.6045C85.1241 90.4841 85.1413 90.1647 85.3386 90.143C87.5612 89.898 89.7934 89.7403 92.0284 89.6706C92.2714 89.663 92.5436 89.6673 92.7168 89.8385C92.8899 90.0097 92.8121 90.3966 92.5693 90.385Z" fill="#1E1F26"/>
<path fill-rule="evenodd" clip-rule="evenodd" d="M40.535 81.4127C41.1709 81.3527 41.8068 81.2928 42.4427 81.2329C42.7631 81.2027 43.0834 81.1725 43.4037 81.1423C45.4414 80.9503 47.479 80.7583 49.5185 80.5875C49.5986 80.5808 49.6823 80.5746 49.7565 80.6055C49.9772 80.6975 49.9432 81.0553 49.7509 81.1976C49.5586 81.3399 49.2984 81.3316 49.0596 81.3237C46.056 81.2234 43.0627 82.1289 40.073 81.8227C39.8787 81.8027 39.6246 81.7024 39.6589 81.5095C39.9498 81.4678 40.2424 81.4402 40.535 81.4127Z" fill="#1E1F26"/>
<path fill-rule="evenodd" clip-rule="evenodd" d="M109.028 147.626C108.928 146.748 108.856 145.793 108.268 145.136C107.817 144.632 108.05 143.695 108.685 143.462C109.32 143.23 110.1 143.797 110.078 144.475C110.07 144.707 109.986 144.929 109.92 145.152C109.471 146.676 109.888 148.316 110.436 149.807C110.992 151.316 111.842 152.923 113.368 153.419C115.133 153.994 117.087 152.723 117.869 151.035C118.652 149.347 118.533 147.387 118.259 145.546C118.232 145.361 118.183 145.148 118.014 145.07C117.327 144.752 117.223 143.634 117.839 143.194C118.455 142.754 119.473 143.217 119.549 143.972C119.574 144.228 119.509 144.483 119.461 144.736C119.123 146.49 119.569 148.328 119.2 150.075C118.968 151.169 118.413 152.192 117.623 152.98C116.786 153.817 115.654 154.394 114.473 154.414C112.881 154.441 111.393 153.451 110.494 152.134C109.594 150.817 109.209 149.212 109.028 147.626Z" fill="#1E1F26"/>
<path fill-rule="evenodd" clip-rule="evenodd" d="M62.6234 75.5842C62.6676 76.1853 62.7098 76.8045 62.5231 77.3773C62.3364 77.9501 61.862 78.472 61.2634 78.5236C58.1777 78.7898 55.0915 79.056 51.9998 79.2395C47.7841 79.4897 43.5611 79.5862 39.3391 79.6826C39.1885 79.686 39.0272 79.6866 38.9015 79.6033C38.7129 79.4783 38.6776 79.2202 38.6601 78.9941C38.6145 78.402 38.5688 77.81 38.5232 77.2179C38.5093 77.0378 38.4988 76.8433 38.5955 76.691C38.7372 76.4678 39.0405 76.4295 39.3038 76.4139C47.0689 75.9521 54.8451 75.6755 62.6234 75.5842ZM61.3242 77.6612C61.8204 77.628 61.9208 76.8447 61.557 76.5047C61.1933 76.1647 60.6409 76.1572 60.1438 76.1696C53.7531 76.3289 47.3601 76.4883 40.9822 76.9234C40.5229 76.9548 40.0451 76.9931 39.648 77.2268C39.251 77.4606 38.9643 77.9521 39.116 78.3881C39.3315 79.0076 40.1646 79.0757 40.8171 79.0321C47.6528 78.5751 54.4885 78.1181 61.3242 77.6612Z" fill="#1E1F26"/>
<path fill-rule="evenodd" clip-rule="evenodd" d="M54.6889 90.5453C54.6951 90.7081 54.7012 90.871 54.7073 91.0338C54.7201 91.3727 54.7327 91.7139 54.6839 92.0495C54.2602 92.0045 54.1288 91.4577 54.1041 91.031C54.0923 90.828 54.0883 90.6013 54.2239 90.4501C54.3594 90.2989 54.6813 90.3421 54.6889 90.5453L54.6889 90.5453Z" fill="#1E1F26"/>
<path fill-rule="evenodd" clip-rule="evenodd" d="M85.201 91.9333C85.6167 91.5482 86.2489 91.5602 86.8145 91.5764C88.6037 91.6274 90.3983 91.4886 92.1587 91.1633C92.3662 91.1249 92.4778 91.4487 92.3485 91.616C92.2192 91.7833 91.9856 91.8183 91.7757 91.8397C89.7916 92.0421 87.7993 92.1621 85.8054 92.1992C85.5678 92.2036 85.2665 92.1625 85.201 91.9333Z" fill="#1E1F26"/>
<path fill-rule="evenodd" clip-rule="evenodd" d="M151.998 98.6623C151.802 99.3281 151.15 99.7398 150.528 100.045C147.417 101.571 143.759 101.945 140.405 101.079C139.278 100.788 137.995 100.116 137.947 98.9496C137.911 98.0924 138.593 97.3741 139.315 96.9147C140.423 96.21 141.715 95.8541 143.003 95.6031C145.487 95.1188 148.181 95.0189 150.43 96.1834C151.372 96.6713 152.298 97.6424 151.998 98.6623M138.714 98.8198C138.716 99.7615 139.764 100.313 140.672 100.552C143.825 101.382 147.274 101.024 150.191 99.5637C150.66 99.3295 151.154 99.0206 151.302 98.5175C151.502 97.8416 150.98 97.1609 150.401 96.7617C148.658 95.5602 146.352 95.7245 144.249 95.9504C142.557 96.1321 140.753 96.3696 139.463 97.4833C139.065 97.8274 138.713 98.2922 138.714 98.8198L138.714 98.8198Z" fill="#1E1F26"/>
<path fill-rule="evenodd" clip-rule="evenodd" d="M60.4522 43.5027C60.3461 42.8973 60.7623 42.2957 61.2986 41.9984C61.8348 41.7011 62.4669 41.6437 63.0786 41.6076C68.5322 41.2857 73.9771 42.1643 79.4325 42.4531C80.1347 42.4903 80.875 42.5292 81.4657 42.9119C82.0564 43.2945 82.4032 44.1533 81.9945 44.7274C81.7969 45.005 81.4701 45.1592 81.1459 45.2619C80.2106 45.5583 79.207 45.519 78.227 45.4767C73.1269 45.2568 68.0269 45.0368 62.9268 44.8169C61.9142 44.7732 60.6277 44.504 60.4522 43.5027M61.1523 42.6254C60.8641 43.0328 61.1053 43.6407 61.5216 43.9147C61.938 44.1888 62.4626 44.2197 62.9601 44.2421C68.3652 44.4862 73.7704 44.7302 79.1755 44.9742C79.7022 44.998 80.2855 45.0032 80.6845 44.6576C81.0835 44.3119 81.0308 43.4876 80.5102 43.4046C74.4997 42.4459 68.4006 42.0478 62.3169 42.217C61.8898 42.2289 61.3996 42.2758 61.1523 42.6254" fill="#1E1F26"/>
<path fill-rule="evenodd" clip-rule="evenodd" d="M120.255 38.2488C121.085 36.5147 122.43 34.7271 124.342 34.5793C125.616 34.4808 126.967 34.7043 127.975 35.4913C129.803 36.9189 129.93 39.687 129.277 41.9167C128.507 44.5447 126.788 46.9787 124.324 48.1574C123.736 48.4385 123.096 48.6487 122.446 48.6231C120.716 48.555 119.457 46.8507 119.085 45.1553C118.574 42.8316 119.229 40.3939 120.255 38.2488M122.406 47.9883C123.684 48.1629 124.889 47.3461 125.79 46.4207C127.481 44.6862 128.615 42.4151 128.989 40.0187C129.097 39.3281 129.142 38.6116 128.954 37.9383C128.586 36.614 127.335 35.657 125.992 35.3816C124.7 35.1168 123.281 35.4328 122.286 36.2994C121.808 36.7159 121.436 37.242 121.112 37.7878C120.053 39.5681 119.452 41.6398 119.526 43.7112C119.559 44.647 119.736 45.5982 120.208 46.4059C120.68 47.2136 121.481 47.862 122.406 47.9883Z" fill="#EB9050"/>
<path fill-rule="evenodd" clip-rule="evenodd" d="M78.3357 111.846C78.5057 111.837 78.688 111.831 78.8319 111.922C79.0098 112.035 79.0747 112.26 79.1259 112.464C79.2381 112.912 79.3508 113.379 79.2605 113.832C79.1703 114.285 78.8139 114.72 78.3538 114.74C77.1801 114.791 76.0065 114.843 74.8328 114.894C74.3725 114.914 73.8333 114.98 73.6045 115.382C73.4495 115.653 73.4957 115.991 73.5464 116.3C73.6903 117.176 74.097 118.283 74.9814 118.251C75.5696 118.23 76.094 118.678 76.3472 119.211C76.6004 119.744 76.6383 120.35 76.6719 120.94C76.7036 121.495 76.5624 122.253 76.0086 122.267C75.5618 122.278 75.4386 122.884 75.4528 123.332C75.5514 126.448 75.6501 129.564 75.7488 132.681C75.7647 133.183 75.1232 133.394 74.625 133.444C70.4497 133.867 66.2309 133.856 62.0579 133.411C61.9083 133.395 61.7172 133.336 61.7139 133.185C61.6366 129.664 61.5594 126.143 61.4822 122.622C61.4777 122.417 61.3773 122.133 61.1799 122.187C60.558 122.358 59.9327 121.779 59.804 121.145C59.6752 120.512 59.8961 119.865 60.1138 119.256C60.2144 118.974 60.3273 118.676 60.568 118.5C61.082 118.123 62.032 118.391 62.2622 117.796C62.3003 117.698 62.3076 117.59 62.3039 117.484C62.2718 116.565 61.4182 115.839 60.5191 115.657C59.62 115.476 58.6933 115.715 57.8177 115.989C57.617 115.229 57.5656 114.43 57.6672 113.651C57.6912 113.467 57.7285 113.274 57.8516 113.136C58.0272 112.939 58.3198 112.911 58.583 112.897C65.1672 112.547 71.7515 112.197 78.3357 111.846ZM60.7807 118.98C60.6542 119.128 60.6261 119.333 60.6033 119.527C60.5438 120.03 60.4844 120.534 60.425 121.038C60.4125 121.144 60.4008 121.256 60.4433 121.353C60.5345 121.563 60.8101 121.599 61.0378 121.605C62.2466 121.635 63.4553 121.665 64.664 121.695C64.8678 121.7 65.0817 121.703 65.2627 121.609C65.5538 121.458 65.6735 121.046 65.5092 120.762C65.6571 120.746 65.805 120.731 65.9529 120.716C65.8878 121.155 66.334 121.523 66.772 121.588C67.2101 121.652 67.6504 121.518 68.0918 121.483C69.0172 121.41 69.9413 121.774 70.8633 121.665C70.9603 121.653 71.0638 121.633 71.1317 121.562C71.2205 121.47 71.2188 121.326 71.2115 121.198C71.1766 120.584 71.1417 119.97 71.1067 119.356C71.0957 119.163 71.0792 118.955 70.9553 118.807C70.7785 118.594 70.4617 118.588 70.1863 118.598C68.8556 118.65 67.5248 118.702 66.1941 118.753C66.1012 118.757 65.9984 118.765 65.9339 118.832C65.8618 118.908 65.8668 119.026 65.8766 119.13C65.9213 119.608 65.966 120.086 66.0107 120.563C65.8342 120.58 65.661 120.632 65.5039 120.715C65.4646 120.339 65.4253 119.962 65.386 119.586C65.3502 119.242 65.2161 118.803 64.8722 118.798C63.7739 118.783 62.6756 118.769 61.5773 118.754C61.2918 118.75 60.9671 118.763 60.7807 118.98ZM67.1085 122.684C67.0902 122.43 66.9807 122.095 66.7288 122.122C65.1627 122.291 63.5776 122.281 62.0137 122.093C62.0523 125.512 62.1157 128.93 62.2041 132.348C62.2155 132.788 62.7689 132.964 63.2052 133.009C64.5014 133.142 65.8066 133.187 67.1089 133.145C67.2156 133.141 67.3312 133.134 67.4126 133.064C67.5195 132.973 67.5265 132.813 67.5249 132.672C67.4876 129.339 67.3488 126.008 67.1085 122.684ZM74.9403 122.495C74.8974 122.422 74.7998 122.407 74.7151 122.399C73.3679 122.285 72.0137 122.253 70.6626 122.303C70.5402 122.308 70.4091 122.316 70.3121 122.391C70.1648 122.505 70.1558 122.721 70.1599 122.908C70.2343 126.32 70.3088 129.732 70.3833 133.144C71.8708 133.288 73.3852 133.147 74.8209 132.731C74.9102 132.705 75.0049 132.674 75.0627 132.601C75.1249 132.522 75.1291 132.414 75.1304 132.313C75.1586 130.118 75.1021 127.923 75.0456 125.728C75.019 124.694 74.9923 123.66 74.9657 122.626C74.9646 122.581 74.9628 122.534 74.9403 122.495ZM58.2351 113.846C57.9767 114.253 58.2544 114.829 58.6789 115.056C59.1035 115.284 59.6122 115.262 60.0928 115.234C63 115.065 65.9073 114.896 68.8146 114.727C71.5872 114.566 74.36 114.404 77.1281 114.178C77.5335 114.145 77.9595 114.104 78.2945 113.872C78.6294 113.641 78.8241 113.151 78.5994 112.811C78.374 112.47 77.8893 112.454 77.4818 112.475C71.4408 112.788 65.3998 113.101 59.3588 113.413C58.9415 113.435 58.4593 113.492 58.2351 113.846ZM69.8557 133.064C69.6514 129.734 69.611 126.393 69.7345 123.058C69.7416 122.866 69.7479 122.667 69.6717 122.491C69.4492 121.978 68.7335 121.98 68.182 122.065C67.9298 122.104 67.6079 122.225 67.6268 122.481C67.8632 125.67 68.0998 128.865 68.0467 132.063C68.0397 132.487 68.2813 132.905 68.651 133.11C69.0207 133.314 69.5024 133.296 69.8557 133.064ZM76.0948 120.768C76.0229 120.328 75.9478 119.878 75.7339 119.487C75.52 119.096 75.1369 118.769 74.6929 118.747C73.8493 118.705 73.0057 118.662 72.1621 118.62C71.9425 118.609 71.6391 118.676 71.6497 118.896C71.6818 119.566 71.714 120.235 71.7461 120.905C71.7602 121.197 71.8145 121.55 72.0845 121.661C72.1715 121.697 72.268 121.7 72.3621 121.702C73.462 121.727 74.5618 121.752 75.6617 121.778C75.8716 121.782 76.0476 121.597 76.1049 121.395C76.1623 121.192 76.1287 120.976 76.0948 120.768ZM70.7695 117.468C70.6594 117.003 70.5447 116.527 70.2812 116.129C70.0177 115.731 69.5705 115.42 69.0953 115.455C68.363 115.509 67.6306 115.563 66.8983 115.617C66.442 115.65 65.9254 115.716 65.6579 116.089C65.3344 116.539 65.5563 117.167 65.4689 117.715C65.4382 117.908 65.5882 118.092 65.7677 118.167C65.9472 118.242 66.1489 118.233 66.343 118.223C67.654 118.156 68.9649 118.088 70.2759 118.02C70.4684 118.01 70.6994 117.975 70.776 117.798C70.8204 117.695 70.7953 117.577 70.7695 117.468ZM73.0668 116.626C72.8174 116.283 72.8235 115.775 73.0812 115.439C72.6217 115.153 71.9781 115.206 71.5713 115.563C71.1644 115.921 71.0273 116.554 71.2497 117.048C71.3281 117.223 71.2832 117.429 71.3384 117.612C71.4169 117.872 71.6881 118.036 71.9569 118.069C72.2257 118.103 72.4954 118.032 72.7571 117.962C73.1004 117.869 73.5182 117.685 73.5149 117.329C73.5122 117.045 73.234 116.856 73.0668 116.626ZM64.8744 117.846C65.0266 117.347 64.8219 116.777 64.431 116.432C64.0401 116.087 63.4926 115.952 62.9739 115.999C62.7655 116.018 62.5482 116.069 62.3974 116.215C62.2466 116.36 62.1926 116.622 62.3285 116.782C62.4289 116.9 62.6008 116.934 62.7058 117.048C62.8662 117.221 62.8121 117.499 62.8856 117.724C63.0515 118.232 63.7391 118.28 64.2698 118.231C64.4514 118.214 64.6519 118.189 64.7714 118.05C64.8216 117.992 64.852 117.92 64.8744 117.846ZM64.9603 116.166C65.0833 116.046 65.1056 115.836 65.0105 115.694C64.7986 115.63 64.5617 115.757 64.4502 115.948C64.5331 116.139 64.766 116.249 64.965 116.191M71.006 115.635C71.0369 115.552 71.0187 115.452 70.9604 115.385C70.7593 115.321 70.5251 115.378 70.3758 115.528C70.5295 115.702 70.809 115.75 71.0113 115.635L71.006 115.635Z" fill="#1E1F26"/>
<path fill-rule="evenodd" clip-rule="evenodd" d="M152.056 101.476C145.61 104.004 139.165 106.533 132.72 109.061C129.947 110.149 126.74 111.781 126.442 114.752C130.209 111.846 134.861 110.111 139.606 109.844C136.328 113.987 132.189 117.441 127.532 119.92C123.349 122.147 118.054 124.521 117.695 129.257C122.187 123.892 129.093 120.643 136.078 120.611C131.609 127.176 124.444 131.833 116.645 133.241C116.912 135.259 117.18 137.276 117.448 139.294C120.098 139.2 122.764 139.58 125.283 140.412C127.077 148.142 128.87 155.873 130.664 163.604C131.106 165.506 131.494 167.692 130.333 169.26C129.181 170.815 127.005 171.083 125.079 171.221C117.485 171.762 109.891 172.304 102.297 172.845C101.388 168.713 100.479 164.581 99.5697 160.449C86.7606 161.642 73.9515 162.835 61.1424 164.028C58.445 164.279 55.5921 164.505 53.1512 163.326C44.2977 159.05 33.5626 167.326 24.2115 164.299C32.4274 164.143 40.6179 162.705 48.3983 160.053C51.22 159.091 54.5984 156.456 53.1242 153.858C45.9088 158.909 36.651 160.925 27.9976 159.33C28.5057 150.9 28.179 142.42 27.0238 134.054C33.1809 133.171 39.2489 131.663 45.1051 129.56C46.7341 128.976 48.4099 128.303 49.5699 127.015C50.7299 125.727 51.1989 123.647 50.1797 122.245C41.2725 127.006 30.9881 129.137 20.9293 128.305C21.4542 139.723 21.9791 151.14 22.504 162.558C21.0171 151.149 20.2287 139.648 20.1444 128.142C25.3222 127.681 30.5 127.221 35.6779 126.76C34.8453 123.052 34.0075 119.26 34.4352 115.484C34.8629 111.708 36.8003 107.883 40.2057 106.218C37.6294 100.706 33.7357 95.8184 28.9439 92.0823C23.3264 87.7024 16.1042 84.4003 13.5389 77.7433C11.8428 73.3417 12.6748 68.2219 15.0233 64.1331C17.3719 60.0443 21.0934 56.8947 25.1382 54.4853C19.5695 53.0494 15.3514 47.4808 15.4643 41.714C15.5771 35.9471 20.0098 30.5489 25.6304 29.3333C22.9804 26.1654 18.8076 24.7134 15.7597 21.9288C12.2091 18.6849 10.4248 13.4523 11.7182 8.81266C13.0115 4.17305 17.5653 0.522687 22.3634 0.728377C26.3045 0.897333 29.7728 3.39792 32.5239 6.23404C36.7905 10.6325 39.9636 16.0904 41.6791 21.9814C42.8226 25.9079 47.0133 27.9055 50.5524 29.9375C54.0914 31.9696 57.7667 35.5092 56.7696 39.4757C55.4514 34.048 51.0247 29.4983 45.6476 28.0447C42.8458 27.2873 41.8247 23.9426 40.9234 21.1756C39.1696 15.7912 36.1758 10.8175 32.2422 6.75347C29.2861 3.69929 25.4211 1.03417 21.1837 1.26362C16.8215 1.49983 12.9761 5.05943 11.9788 9.32604C10.9815 13.5926 12.6536 18.2677 15.8366 21.2693C19.0786 24.3267 23.7166 25.8243 26.3304 29.4367C20.6615 30.5924 16.1798 36.0651 16.15 41.868C16.1202 47.6709 20.5456 53.1896 26.2023 54.4038C22.2159 56.7446 18.4858 59.7182 16.0263 63.6404C13.5669 67.5627 12.5126 72.5409 13.9842 76.9332C17.3879 87.0923 31.575 89.5171 36.5816 98.9851C37.9376 94.5172 35.9499 89.8196 34.9283 85.2632C33.9067 80.7067 34.4842 74.8555 38.7189 72.9152C37.4813 66.9312 36.2437 60.9472 35.006 54.9633C34.0838 50.5043 33.6211 44.8549 37.4449 42.4004C34.7507 41.5621 32.3595 39.7767 30.7858 37.4283C32.4853 40.0377 35.7584 41.5184 38.833 41.0685C34.9476 32.6192 30.6395 24.3656 25.9303 16.3491C31.0045 24.0243 35.4953 32.0876 39.351 40.4459C57.1837 39.9619 75.0444 40.513 92.8138 42.0956C95.173 42.3058 97.7121 42.6117 99.4562 44.2194C101.962 46.5297 105.725 47.3724 108.973 46.3506C110.006 48.9202 110.767 51.8066 109.888 54.4336C109.01 57.0606 105.898 59.0657 103.411 57.8606C104.061 61.2111 104.71 64.5617 105.359 67.9122C111.718 67.9889 118.076 68.1192 124.433 68.303C127.802 68.4004 131.324 68.5542 134.252 70.2286C137.18 71.9031 139.247 75.6122 137.942 78.73C138.774 76.1534 139.606 73.5768 140.438 71.0002C143.37 75.6693 144.81 81.2657 144.497 86.7752C145.513 85.2247 146.529 83.6743 147.544 82.1239C143.936 76.426 143.476 68.8532 146.37 62.7585C149.208 67.4727 150.806 72.9303 150.961 78.4352C152.019 68.5141 159.027 59.4692 168.349 55.9909C166.732 59.7295 165.114 63.4682 163.497 67.2068C162.112 70.4078 160.353 73.9582 157.025 74.9751C154.83 75.6459 151.652 75.6052 151.254 77.8721C157.559 76.2138 164.269 76.1317 170.612 77.6353C165.724 83.5301 156.305 84.9816 149.879 80.8302C146.848 84.222 144.221 87.9777 142.073 91.9916C145.722 87.4432 151.399 84.5988 157.215 84.4055C154.091 88.1104 150.566 91.4757 146.723 94.4237C148.763 94.6203 150.968 94.8898 152.447 96.312C153.927 97.7341 153.964 100.727 152.056 101.476ZM66.9782 64.1393C68.6686 64.1197 70.5619 64.1799 71.742 65.3943C72.6421 66.3207 72.8835 67.6872 73.0797 68.9658C73.9771 74.8134 74.8174 80.6698 75.6004 86.5339C75.7968 88.0048 74.5674 89.3621 73.1631 89.8285C71.7587 90.2949 70.2318 90.0902 68.7673 89.8806C69.9884 88.8233 72.0498 89.5812 73.3641 88.643C74.5428 87.8017 74.536 86.074 74.3949 84.6297C73.8657 79.2147 73.1452 73.8186 72.235 68.4548C72.0741 67.5067 71.877 66.4981 71.2075 65.8096C70.316 64.8929 68.8913 64.8319 67.6146 64.8303C62.3739 64.8237 57.1331 64.8172 51.8924 64.8106C50.9892 64.8095 50.0388 64.8203 49.2546 65.2699C46.998 66.5638 47.8299 69.9811 48.9517 72.3331C52.1295 71.6869 55.3765 71.3839 58.6186 71.4311C61.4908 71.473 65.0726 72.4086 65.5569 75.2489C66.6209 81.4889 67.685 87.7288 68.749 93.9688C69.3069 97.2405 69.6144 101.216 67.008 103.26C65.7056 104.282 63.9771 104.526 62.3368 104.734C58.3036 105.245 54.2704 105.757 50.2372 106.268C51.917 121.023 53.5968 135.778 55.2766 150.532C55.464 152.178 55.807 154.07 57.2495 154.876C58.1029 155.353 59.1381 155.314 60.1134 155.26C72.9643 154.557 85.8028 153.626 98.6208 152.468C98.1082 151.296 98.0981 149.913 98.5934 148.733C99.8917 156.358 101.19 163.983 102.488 171.607C104.762 170.036 104.412 166.624 103.809 163.921C102.281 157.079 100.753 150.236 99.2248 143.394C98.6063 144.532 97.9877 145.671 97.3691 146.809C97.0654 145.388 97.9156 143.917 99.0946 143.072C100.274 142.227 101.727 141.881 103.144 141.576C107.5 140.639 111.903 139.924 116.331 139.433C115.044 130.327 113.757 121.221 112.47 112.115C104.559 114.295 96.1813 113.609 88.0072 112.906C85.5861 112.698 82.5093 111.88 82.2784 109.454C81.698 103.354 81.1176 97.2536 80.5372 91.1535C80.4615 90.3582 80.0023 89.287 79.246 89.5375C77.3878 90.153 76.2827 87.4971 76.1305 85.54C75.6534 79.4011 75.1763 73.2623 74.6991 67.1234C74.6366 66.3184 74.6204 65.3891 75.2188 64.8491C75.6378 64.471 76.2414 64.4017 76.8026 64.3503C80.8068 63.983 84.811 63.6157 88.8151 63.2485C91.1016 63.0387 93.699 62.9303 95.3628 64.5176C96.5372 65.6379 96.9312 67.3367 97.1791 68.9432C97.6359 71.9041 97.7872 74.9124 97.6297 77.9043C97.3124 74.9797 96.9951 72.0551 96.6778 69.1305C96.535 67.8146 96.3606 66.4192 95.5319 65.3891C94.1175 63.631 91.486 63.6606 89.2414 63.8458C85.2319 64.1768 81.2223 64.5077 77.2128 64.8387C76.6728 64.8833 76.0876 64.9473 75.6951 65.322C75.1844 65.8094 75.1988 66.6162 75.2499 67.3214C75.6795 73.2541 76.1091 79.1869 76.5387 85.1196C76.6198 86.2393 76.7301 87.4364 77.4358 88.3077C78.1415 89.1791 79.6726 89.4527 80.332 88.5455C79.4286 86.5534 80.6782 84.1141 82.5276 82.9532C84.3771 81.7922 86.6469 81.5878 88.8217 81.4138C92.5725 81.1136 96.3233 80.8134 100.074 80.5132C99.817 72.7254 98.9799 64.9569 97.5718 57.2939C96.2745 56.93 95.0932 56.1608 94.2336 55.1203C93.5904 56.7825 91.6745 57.8389 89.9309 57.4926C88.1873 57.1464 86.8171 55.4374 86.8538 53.6547C86.647 55.7062 84.8654 57.4855 82.8195 57.684C80.7737 57.8824 78.6853 56.4784 78.0905 54.5047C77.1108 55.6008 75.8395 56.5454 74.3779 56.6788C72.9164 56.8123 71.2997 55.8864 71.062 54.4336C69.1425 56.9316 64.6817 56.6781 63.0557 53.9787C61.3833 56.7475 56.622 56.6795 55.0289 53.864C54.3135 56.4669 50.3203 56.6752 48.4034 54.7798C46.4866 52.8843 46.1135 49.9645 45.8468 47.2777C42.6827 50.3359 42.1119 55.2489 42.7125 59.6151C43.313 63.9813 44.8779 68.1873 45.2575 72.5784C46.1243 72.7971 47.0751 72.6591 47.8445 72.2028C47.0134 69.6832 46.4668 66.2981 48.723 64.9122C49.6281 64.3563 50.748 64.3278 51.8091 64.3155C56.8655 64.2567 61.9218 64.198 66.9782 64.1393ZM117.068 106.542C123.701 106.212 130.543 107.079 136.846 104.982C137.822 104.658 138.821 104.23 139.449 103.414C137.839 102.672 136.129 101.392 136.169 99.6147C136.195 98.4475 137.001 97.4386 137.909 96.7088C138.863 95.9427 139.973 95.3737 141.15 95.0476C141.246 94.7551 140.733 94.6918 140.479 94.8646C140.226 95.0374 139.84 95.2511 139.671 94.9942C139.626 94.9253 139.617 94.8393 139.609 94.7571C138.976 88.2986 138.039 81.87 136.8 75.5004C136.428 73.5853 135.875 71.4519 134.192 70.4732C133.284 69.9446 132.195 69.8559 131.147 69.7832C123.26 69.2358 115.358 68.9005 107.453 68.7777C105.584 68.7487 103.494 68.8185 102.185 70.1552C101.191 71.1692 100.907 72.6753 100.801 74.0933C100.475 78.484 101.413 82.8547 102.023 87.2148C102.753 92.4378 103.016 97.7136 103.498 102.966C103.562 103.664 103.64 104.393 104.016 104.984C104.662 105.998 105.974 106.316 107.162 106.483C108.917 106.73 110.691 106.834 112.463 106.795C114 106.761 115.532 106.619 117.068 106.542ZM62.6336 72.6629C60.3882 71.6728 57.8165 71.9379 55.3801 72.2216C51.6948 72.6509 48.0094 73.0801 44.324 73.5093C42.5527 73.7156 40.7797 73.9222 39.0273 74.2536C38.6049 74.3336 38.181 74.4215 37.7824 74.5831C36.2205 75.2164 35.2893 76.9059 35.0726 78.5818C34.856 80.2578 35.2273 81.9474 35.5833 83.5992C36.6896 88.7329 37.6708 93.9146 37.937 99.1601C37.9897 100.198 38.0161 101.251 38.3006 102.251C38.5852 103.25 39.1661 104.212 40.0744 104.713C40.7732 105.098 41.594 105.178 42.3897 105.231C49.6822 105.711 56.9708 104.532 64.1845 103.356C65.2108 103.189 66.2906 102.998 67.0907 102.332C68.3264 101.303 68.511 99.4924 68.5021 97.8814C68.4857 94.9063 68.1266 91.9331 67.4343 89.0401C66.6246 85.6564 65.3533 82.328 65.3196 78.8483C65.3047 77.3136 65.5056 75.6598 64.7073 74.3505C64.2356 73.5768 63.4613 73.0278 62.6336 72.6629ZM27.9321 137.095C28.9125 144.161 29.2418 151.317 28.9147 158.444C28.8974 158.82 29.3524 159.011 29.7206 159.082C34.4364 159.986 39.293 158.827 43.869 157.37C46.4703 156.541 49.0736 155.597 51.3233 154.047C52.3524 153.337 53.3939 152.269 53.2014 151.032C51.9651 143.081 51.2851 135.044 51.1681 126.998C47.0044 130.262 41.7206 131.647 36.5997 132.954C34.1726 133.573 31.7126 134.197 29.2083 134.176C28.6029 134.171 28.1002 134.704 27.931 135.287C27.7618 135.87 27.8487 136.493 27.9321 137.095M123.639 140.667C115.839 139.905 107.883 140.799 100.446 143.275C100.892 146.683 101.502 150.069 102.273 153.418C102.582 154.759 102.916 156.094 103.251 157.429C103.902 160.029 104.554 162.628 105.205 165.228C105.295 165.59 105.409 165.985 105.72 166.19C105.997 166.373 106.356 166.352 106.687 166.324C114.389 165.68 122.086 164.982 129.777 164.23C128.096 156.711 126.414 149.192 124.733 141.673C124.668 141.384 124.59 141.073 124.361 140.886C124.163 140.724 123.893 140.691 123.639 140.667ZM112.142 107.659C110.445 107.746 108.722 107.831 107.065 107.453C105.408 107.075 103.795 106.169 102.944 104.694C102.456 105.258 101.485 105.3 100.949 104.781C100.414 104.261 100.424 103.286 100.969 102.778C98.8135 102.797 96.6576 102.817 94.5017 102.836C95.487 103.418 95.406 105.135 94.3875 105.656C93.369 106.178 91.9591 105.297 91.9356 104.15C91.925 103.636 92.2397 103.058 92.7509 103.011C92.5391 102.647 91.9887 102.863 91.5699 102.823C90.9391 102.763 90.5943 102.073 90.373 101.478C89.4754 99.062 88.6587 96.6169 87.8421 94.1723C88.414 95.1111 89.7015 95.5334 90.7158 95.1148C91.0741 94.9669 91.0849 94.4501 90.9324 94.0928C90.666 93.469 90.0589 92.9881 89.3846 92.935C88.7102 92.8819 88.0084 93.2954 87.7804 93.9342C87.4424 93.6807 87.5864 93.0944 87.941 92.8648C88.2956 92.6352 88.7498 92.6554 89.171 92.6809C93.1475 92.9218 97.1387 92.918 101.115 92.6695C101.296 92.6582 101.495 92.6379 101.618 92.5046C101.758 92.3539 101.744 92.1213 101.722 91.9169C101.57 90.5139 101.418 89.1109 101.266 87.7079C101.25 87.5524 101.226 87.3821 101.11 87.2774C100.982 87.1619 100.79 87.1672 100.618 87.1795C95.6343 87.5357 90.6633 88.0739 85.7183 88.7926C85.1919 88.8692 84.7023 88.426 84.5362 87.9191C84.3701 87.4122 84.4469 86.8615 84.5253 86.3337C84.5529 86.1484 84.588 85.9482 84.7247 85.8207C84.8506 85.7033 85.0331 85.6757 85.2035 85.6539C90.3483 84.9952 95.5265 84.5999 100.711 84.47C100.586 84.984 99.9176 85.0947 99.3902 85.1041C94.5782 85.1897 89.7715 85.5767 85.0075 86.2619C84.6271 86.9145 85.1484 87.7935 85.8506 88.0679C86.5528 88.3423 87.3394 88.1957 88.08 88.0559C92.1618 87.2852 96.303 86.831 100.454 86.6987C101.047 86.6799 101.118 85.8243 100.993 85.2427C100.704 83.892 100.415 82.5413 100.125 81.1907C97.2506 81.7369 94.3139 81.9548 91.3902 81.8389C89.6602 81.7703 87.9394 82.0736 86.2345 82.3757C84.7855 82.6325 83.2413 82.9369 82.1942 83.9738C80.9701 85.186 80.7508 87.0812 80.8251 88.8051C80.9471 91.6332 81.6624 94.3992 82.0155 97.2077C82.447 100.639 82.3359 104.117 82.6673 107.56C82.7565 108.487 82.8838 109.432 83.2983 110.266C83.7128 111.1 84.4663 111.816 85.385 111.953C92.934 113.082 100.631 113.21 108.213 112.333C108.914 112.252 109.62 112.161 110.282 111.916C111.325 111.529 112.22 110.752 112.752 109.772C112.966 109.379 113.125 108.929 113.048 108.487C112.97 108.046 112.588 107.637 112.142 107.659ZM51.7903 127.005C52.5803 135.724 53.3703 144.444 54.1604 153.163C54.3024 154.73 54.439 156.349 53.9508 157.844C53.4625 159.34 52.1779 160.692 50.6101 160.743C51.5306 162.094 53.1192 162.866 54.7256 163.149C56.332 163.432 57.979 163.282 59.603 163.131C72.9842 161.891 86.3655 160.651 99.7467 159.411C99.4595 157.733 99.1723 156.056 98.8851 154.378C98.8206 154.002 98.6363 153.524 98.2566 153.553C89.0562 154.241 79.8559 154.928 70.6555 155.616C66.8774 155.899 63.0809 156.181 59.305 155.871C57.3943 155.714 55.0346 154.953 54.8461 153.039C53.3377 137.727 51.5915 122.439 49.6083 107.181C49.5778 106.946 49.5399 106.695 49.38 106.521C49.1665 106.289 48.813 106.271 48.4981 106.27C46.6167 106.26 44.7354 106.251 42.854 106.241C43.4035 109.368 44.1168 112.466 44.9899 115.517C45.1512 116.081 45.4196 116.74 45.9957 116.841C48.0643 117.206 49.697 118.913 50.5481 120.839C51.3992 122.765 51.6002 124.907 51.7903 127.005ZM44.5618 72.7318C42.947 64.5157 41.5808 56.2504 40.4655 47.9512C40.4025 47.4819 40.3414 46.9951 40.4791 46.5421C40.7629 45.6084 41.781 45.1191 42.7278 44.8938C44.5789 44.4533 46.512 44.6003 48.4093 44.7406C65.7557 46.0237 83.1588 46.5371 100.55 46.2789C99.8588 44.8715 98.4677 43.9115 96.9882 43.4025C95.5086 42.8934 93.9273 42.7804 92.3669 42.6723C77.0576 41.6109 61.7252 40.6163 46.3804 40.8017C44.5031 40.8244 42.6038 40.8677 40.791 41.3581C38.9783 41.8485 37.2342 42.8362 36.1884 44.4004C34.5404 46.8653 34.939 50.1212 35.4491 53.0446C36.6436 59.8908 38.0968 66.6916 39.8046 73.4274C41.3903 73.1955 42.9761 72.9636 44.5618 72.7318ZM81.9121 56.6735C82.7411 56.6822 83.6026 56.6356 84.3362 56.2482C85.628 55.566 86.2016 53.9943 86.2869 52.5323C86.3722 51.0702 86.0845 49.6049 86.1773 48.1433C86.1984 47.8101 86.3839 47.3686 86.706 47.4523C86.9394 49.1348 87.1727 50.8174 87.406 52.4999C87.5348 53.4289 87.6687 54.3752 88.0745 55.2201C88.4802 56.0651 89.2095 56.8078 90.1277 56.9848C90.655 57.0864 91.2055 56.9953 91.7081 56.8058C92.9115 56.352 93.92 55.1968 93.8743 53.908C93.8111 52.1285 93.7479 50.3491 93.6848 48.5697C93.6598 47.8657 93.3989 46.9277 92.6977 46.9645C88.0224 47.2103 83.3333 47.1886 78.6605 46.8996C78.3198 46.8785 78.2299 47.3628 78.266 47.7033C78.453 49.4683 78.64 51.2333 78.8271 52.9982C78.9683 54.3308 79.2698 55.8971 80.4886 56.4455C80.9303 56.6442 81.4281 56.6684 81.9121 56.6735ZM105.891 167.425C105.667 167.583 105.519 167.825 105.383 168.063C104.674 169.301 104.104 170.619 103.687 171.985C111.871 171.411 120.049 170.745 128.217 169.986C128.524 169.957 128.858 169.917 129.078 169.7C129.221 169.56 129.294 169.365 129.363 169.176C129.669 168.343 129.975 167.51 130.281 166.677C130.429 166.271 130.562 165.767 130.271 165.448C130.029 165.183 129.618 165.192 129.261 165.22C121.792 165.821 114.327 166.467 106.867 167.159C106.527 167.191 106.17 167.229 105.891 167.425ZM120.317 116.845C120.096 114.254 119.645 111.347 117.538 109.834C116.716 112.106 115.886 114.411 115.698 116.82C115.509 119.23 116.04 121.797 117.651 123.594C117.877 123.847 118.129 124.092 118.249 124.409C118.369 124.727 118.308 125.146 118.014 125.314C115.825 123.403 114.918 120.337 114.97 117.426C115.021 114.515 115.91 111.692 116.792 108.918C116.985 108.308 116.431 107.667 115.81 107.525C115.188 107.383 114.546 107.592 113.942 107.798C113.824 107.838 113.773 107.972 113.736 108.091C113.318 109.425 112.897 110.84 113.22 112.201C114.613 118.063 114.434 124.215 115.852 130.071C115.904 130.288 115.961 130.509 116.086 130.692C117.027 128.847 117.967 127.002 118.908 125.157C119.35 124.291 119.794 123.418 120.07 122.484C120.607 120.669 120.478 118.731 120.317 116.845ZM153.589 74.2938C153.77 74.4442 154.014 74.4916 154.248 74.5179C156.908 74.8163 159.418 73.0002 160.891 70.7586C162.364 68.5169 163.059 65.8686 164.025 63.3647C164.931 61.0146 166.09 58.7629 167.475 56.661C164.702 59.2717 161.287 61.0999 158.392 63.5743C155.497 66.0487 153.034 69.5193 153.238 73.3291C153.257 73.6813 153.317 74.0693 153.589 74.2938ZM47.0671 49.0469C47.4452 50.7095 47.2889 52.557 48.2071 53.9921C49.0973 55.3833 50.975 56.0464 52.5376 55.5212C54.1002 54.9961 55.2007 53.3321 55.0757 51.6837C55.0473 51.3091 54.963 50.9413 54.879 50.5752C54.5498 49.1408 54.2206 47.7064 53.8913 46.272C53.8586 46.1293 53.822 45.9792 53.7211 45.8733C53.5764 45.7216 53.3449 45.7039 53.1357 45.6959C51.1244 45.6187 49.1131 45.5414 47.1018 45.4642C46.9083 45.4567 46.696 45.4553 46.5456 45.5776C46.3552 45.7324 46.3443 46.0168 46.3691 46.2614C46.4656 47.2152 46.8546 48.1123 47.0671 49.0469ZM101.511 50.5977C101.559 52.8941 103.051 54.8911 104.623 56.5603C104.777 56.7233 104.935 56.887 105.127 57.0021C105.437 57.1882 105.815 57.2323 106.175 57.2012C107.39 57.0964 108.429 56.1747 108.942 55.0647C109.455 53.9547 109.513 52.685 109.403 51.4666C109.292 50.2482 109.023 49.0483 108.915 47.8297C108.893 47.5853 108.804 47.2663 108.559 47.2672C106.409 47.2755 104.258 47.2837 102.108 47.292C101.833 47.293 101.542 47.2987 101.309 47.4464C101.077 47.5941 100.947 47.939 101.12 48.1541C101.646 48.811 101.493 49.7549 101.511 50.5977ZM134.21 121.634C128.319 121.531 122.918 125.034 118.798 129.259C118.103 129.971 117.425 130.718 116.962 131.6C116.881 131.756 116.816 131.973 116.95 132.087C117.022 132.148 117.124 132.151 117.217 132.151C120.645 132.139 123.941 130.687 126.725 128.682C129.51 126.678 131.856 124.134 134.21 121.634ZM61.3134 55.1041C62.155 54.6181 62.6966 53.6504 62.6721 52.6766C62.6597 52.1826 62.5142 51.7035 62.3972 51.2235C62.0961 49.9887 61.9791 48.7088 62.0511 47.4397C62.0665 47.1693 62.0895 46.8916 62.0085 46.6334C61.9275 46.3751 61.7126 46.1376 61.4431 46.1228C59.2169 46.0009 56.9907 45.8789 54.7644 45.757C54.6843 45.7526 54.597 45.7502 54.5323 45.7978C54.4321 45.8716 54.4377 46.0211 54.4563 46.1444C54.7303 47.9617 55.6069 49.6735 55.6632 51.5106C55.6839 52.1866 55.5938 52.8794 55.7825 53.5286C56.0241 54.3601 56.7144 55.0164 57.5153 55.3399C58.3162 55.6634 59.2148 55.6818 60.0645 55.528C60.4991 55.4494 60.9306 55.3252 61.3134 55.1041ZM150.393 79.9842C152.005 80.4406 153.431 81.3945 154.995 81.9963C158.462 83.3305 162.59 82.7734 165.583 80.5673C166.868 79.6201 168.153 78.6728 169.438 77.7256C167.871 78.0975 166.251 78.2399 164.644 78.147C161.959 77.9917 159.307 77.1849 156.625 77.387C154.343 77.5589 152.124 78.4837 150.393 79.9842M104.352 67.5378C104.035 65.7768 103.718 64.0158 103.401 62.2548C102.977 59.8946 102.552 57.5343 102.127 55.1741C102.097 55.0066 102.061 54.827 101.937 54.7105C101.813 54.5941 101.572 54.5938 101.504 54.7499C101.08 55.7321 100.212 56.5107 99.1913 56.8234C98.5722 57.0131 98.5191 57.8606 98.5911 58.5061C99.0988 63.0597 99.6999 67.603 100.394 72.1318C100.596 70.2796 102.178 68.671 104.021 68.4439C104.38 68.3997 104.416 67.8945 104.352 67.5378ZM70.4792 53.2143C70.2822 51.3158 70.0338 49.4227 69.7342 47.5378C69.6724 47.1491 69.5074 46.6645 69.1154 46.6473C67.0891 46.5581 65.0628 46.4689 63.0365 46.3797C62.9643 46.3766 62.888 46.3742 62.8241 46.4082C62.6606 46.4952 62.6874 46.7345 62.7355 46.9138C63.2028 48.6543 63.4508 50.4538 63.4718 52.2562C63.4769 52.6997 63.4719 53.1603 63.6569 53.5631C63.9292 54.156 64.5491 54.496 65.1384 54.773C66.1653 55.2556 67.2881 55.6799 68.4086 55.5047C69.5291 55.3294 70.5966 54.3458 70.4792 53.2143ZM71.3554 53.2248C71.5599 54.2181 71.9344 55.3736 72.9046 55.6591C73.7233 55.9001 74.6084 55.9666 75.4296 55.7344C76.2509 55.5022 76.9997 54.9491 77.3671 54.1766C77.6287 53.6268 77.6877 53.0045 77.7217 52.3962C77.8151 50.7299 77.7509 49.0547 77.5303 47.4004C77.5185 47.3119 77.5054 47.2208 77.4608 47.1435C77.3425 46.9381 77.0639 46.9093 76.8275 46.9041C74.7642 46.859 72.7009 46.8139 70.6376 46.7688C70.4691 46.7652 70.2337 46.9409 70.3762 47.0312C70.6071 49.1094 70.934 51.1769 71.3554 53.2248ZM140.686 73.7814C139.074 77.437 138.6 81.5876 139.344 85.5143C139.642 87.0831 140.227 88.7477 141.58 89.5879C141.979 89.8352 142.643 89.9082 142.79 89.4622C144.502 84.2799 143.703 78.3251 140.686 73.7814ZM36.2131 119.679C36.8969 120.149 37.6676 120.492 38.4743 120.685C39.4937 120.929 40.5524 120.932 41.6 120.957C44.0479 121.016 46.4928 121.204 48.9211 121.52C49.2599 121.565 49.54 121.197 49.531 120.854C49.522 120.512 49.3143 120.209 49.099 119.943C47.8038 118.342 45.9125 117.239 43.8853 116.902C42.4492 116.663 40.9808 116.797 39.5256 116.755C38.0705 116.713 36.5516 116.466 35.3913 115.584C35.3298 116.423 35.3249 117.265 35.3766 118.104C35.3975 118.444 35.4317 118.796 35.6043 119.089C35.7489 119.335 35.9787 119.517 36.2131 119.679M95.1085 54.5466C95.337 54.9623 95.7037 55.2827 96.0794 55.5715C96.4864 55.8844 96.9262 56.1773 97.426 56.2921C98.657 56.575 99.9157 55.66 100.435 54.505C100.953 53.35 100.901 52.0261 100.781 50.765C100.69 49.8115 100.566 48.8611 100.41 47.9162C100.384 47.7587 100.354 47.5939 100.255 47.4686C100.082 47.2488 99.7646 47.2234 99.4854 47.2159C97.9847 47.1759 96.4841 47.1359 94.9834 47.0959C94.6511 47.087 94.1792 47.2464 94.2778 47.5648C94.7195 48.9902 94.912 50.4929 94.8441 51.984C94.8045 52.8541 94.6893 53.7838 95.1085 54.5466ZM148.218 81.0117C149.811 78.4325 150.288 75.1849 149.504 72.2543C148.81 69.6632 147.199 67.3679 146.688 64.7345C145.497 68.359 144.298 72.2606 145.376 75.9207C145.928 77.7966 147.043 79.4509 148.218 81.0117ZM121.822 121.592C126.561 120.367 130.935 117.757 134.269 114.164C135.267 113.089 136.288 112.036 137.331 111.006C134.774 111.357 132.278 112.151 129.985 113.34C126.488 115.155 123.419 117.981 121.822 121.592ZM150.693 90.0388C152.436 88.3956 154.179 86.7525 155.921 85.1093C150.027 85.863 144.523 89.2795 141.22 94.2343C142.071 94.8921 143.293 94.5047 144.286 94.0927C145.667 93.5198 147.06 92.9404 148.29 92.0881C149.155 91.4878 149.926 90.7618 150.693 90.0388ZM36.0627 125.949C36.0774 126.101 36.0953 126.262 36.187 126.384C36.3876 126.65 36.7966 126.585 37.116 126.491C40.7734 125.419 44.3795 124.171 47.9176 122.752C48.1727 122.649 48.4703 122.488 48.4754 122.212C45.7611 122.023 43.0468 121.834 40.3325 121.645C39.6686 121.599 39.0021 121.553 38.3513 121.413C37.3723 121.204 36.4387 120.783 35.6326 120.187C35.6917 122.113 35.8772 124.032 36.0627 125.949ZM121.805 107.527C121.586 107.685 121.498 107.965 121.422 108.225C121.164 109.119 120.904 110.066 121.144 110.965C121.266 111.422 121.512 111.836 121.754 112.242C122.425 113.367 123.096 114.492 123.767 115.617C123.83 115.722 123.897 115.832 124.005 115.889C124.325 116.057 124.642 115.661 124.79 115.33C125.756 113.181 126.743 110.91 126.524 108.563C126.491 108.203 126.393 107.793 126.072 107.628C125.924 107.552 125.753 107.542 125.587 107.534C124.592 107.484 123.598 107.435 122.603 107.385C122.328 107.372 122.028 107.365 121.805 107.527ZM137.007 99.5732C136.982 101.085 138.297 102.35 139.739 102.79C141.182 103.23 142.729 103.04 144.228 102.879C146.864 102.595 149.651 102.361 151.818 100.829C152.299 100.489 152.753 100.07 152.968 99.5203C153.303 98.6633 152.966 97.6514 152.336 96.9818C151.707 96.3122 150.833 95.9294 149.96 95.6487C146.837 94.6459 143.369 94.7614 140.32 95.9699C138.711 96.6075 137.037 97.8381 137.007 99.5732ZM35.8142 115.019C36.0982 115.285 36.6736 115.353 36.7843 114.979C37.1635 113.7 38.0162 112.603 39.0207 111.728C40.0251 110.853 41.1832 110.177 42.3335 109.507C42.6438 109.326 42.6243 108.878 42.5643 108.523C42.4482 107.835 42.332 107.148 42.2159 106.46C42.1864 106.286 42.1284 106.078 41.9584 106.032C41.8194 105.994 41.682 106.088 41.5684 106.177C40.7431 106.824 39.9179 107.47 39.0926 108.117C37.4391 109.412 35.6669 110.898 35.3084 112.972C35.1834 113.694 35.2798 114.519 35.8142 115.019M42.252 110.391C40.3986 111.552 38.4367 112.838 37.5944 114.861C37.542 114.987 37.4936 115.119 37.4977 115.255C37.5059 115.524 37.722 115.751 37.9698 115.855C38.2177 115.958 38.4937 115.963 38.762 115.966C40.3487 115.985 41.9353 116.003 43.5219 116.022C43.5991 116.023 43.6828 116.022 43.7437 115.974C43.84 115.899 43.8301 115.753 43.8111 115.632C43.558 114.027 43.3049 112.423 43.0518 110.818C43.0158 110.59 42.9423 110.317 42.7203 110.255C42.5588 110.209 42.3942 110.302 42.252 110.391ZM121.08 107.625C119.911 107.323 118.651 107.389 117.521 107.811C117.74 108.532 118.128 109.201 118.645 109.747C120.386 111.589 120.901 114.264 121.099 116.795C121.204 118.147 121.242 119.504 121.21 120.86C121.975 119.676 122.74 118.492 123.505 117.308C123.582 117.19 123.66 117.066 123.668 116.926C123.677 116.785 123.613 116.652 123.549 116.527C122.794 115.065 121.685 113.804 120.984 112.314C120.284 110.825 120.069 108.923 121.08 107.625ZM42.8133 45.652C42.169 45.7545 41.4343 45.9188 41.1282 46.4968C40.9166 46.8964 40.9791 47.3798 41.0471 47.8271C41.3271 49.6693 41.6071 51.5114 41.8872 53.3536C43.3202 50.7685 44.6621 48.1339 46.0036 45.4998C45.7553 45.2182 45.3153 45.2538 44.9452 45.3128C44.2345 45.4258 43.5239 45.5389 42.8133 45.652ZM131.019 108.202C131.218 108.466 131.736 108.173 131.614 107.866C133.528 108.417 135.614 108.025 137.422 107.188C139.23 106.35 140.808 105.095 142.362 103.845C141.709 103.754 141.057 103.662 140.405 103.571C140.272 103.552 140.099 103.555 140.048 103.68C139.697 104.542 138.941 105.188 138.105 105.596C137.27 106.004 136.351 106.202 135.443 106.396C134.812 106.531 134.182 106.666 133.551 106.8C132.575 107.009 131.473 107.31 131.019 108.202ZM96.394 94.8432C96.5166 94.8119 96.6482 94.775 96.7266 94.6755C96.8482 94.521 96.7874 94.2989 96.7555 94.1047C96.7237 93.9104 96.7727 93.6519 96.966 93.618C97.1423 93.6533 97.2235 93.863 97.2279 94.0433C97.2323 94.2235 97.1926 94.4115 97.2576 94.5796C97.4022 94.9539 97.9171 94.9686 98.314 94.9179C98.5489 94.8878 98.7838 94.8578 99.0186 94.8278C99.0922 94.8184 99.1708 94.8067 99.2255 94.7565C99.3992 94.5968 99.1575 94.3362 99.1037 94.1061C99.0621 93.9283 99.145 93.736 99.0907 93.5618C98.9982 93.2648 98.6045 93.2194 98.2946 93.2297C95.9241 93.3086 93.5536 93.3874 91.1831 93.4663C91.2238 93.9164 91.3465 94.3588 91.5434 94.7652C91.5858 94.8528 91.6358 94.9432 91.72 94.9916C91.8055 95.0408 91.91 95.0376 92.0084 95.033C92.5977 95.0055 93.187 94.9781 93.7762 94.9506C93.8263 94.9482 93.8792 94.945 93.921 94.9173C94.0285 94.8461 93.9913 94.6814 93.9419 94.5621C93.8568 94.3564 93.7717 94.1508 93.6866 93.9452C93.6125 93.7663 93.9353 93.6603 94.0711 93.7979C94.207 93.9355 94.212 94.1513 94.2761 94.3339C94.4091 94.7131 94.8109 94.9445 95.2086 94.9932C95.6064 95.0419 96.0057 94.9422 96.394 94.8432ZM130.821 107.432C130.95 107.294 130.665 107.149 130.478 107.173C129.41 107.304 128.343 107.435 127.275 107.566C127.133 107.584 126.944 107.662 126.978 107.803C127.329 109.243 127.197 110.798 126.609 112.159C126.498 112.418 126.424 112.814 126.692 112.901C127.805 110.896 129.199 109.05 130.821 107.432ZM94.4507 95.9301C94.4172 95.8137 94.3795 95.6916 94.2911 95.609C94.1909 95.5154 94.046 95.4915 93.9098 95.4765C93.2104 95.3997 92.4975 95.4479 91.8147 95.6182C92.0283 96.3132 92.2419 97.0081 92.4555 97.7031C92.496 97.8349 92.5505 97.9826 92.678 98.0342C92.7431 98.0607 92.8161 98.0561 92.8862 98.0512C93.5767 98.0026 94.2672 97.954 94.9578 97.9054C94.8079 97.2423 94.6387 96.5834 94.4507 95.9301ZM89.955 98.3603C90.0317 98.4024 90.1255 98.3895 90.2119 98.3753C90.837 98.2731 91.4622 98.1709 92.0873 98.0687C91.8617 97.3435 91.6361 96.6182 91.4105 95.893C91.3774 95.7866 91.3362 95.67 91.2385 95.617C91.1612 95.575 91.0674 95.584 90.98 95.5942C90.4226 95.6592 89.8653 95.7242 89.3079 95.7892C89.2031 95.8015 89.079 95.8277 89.0402 95.9262C89.0138 95.993 89.0387 96.068 89.0636 96.1354C89.3092 96.8001 89.5547 97.4649 89.8002 98.1296C89.8331 98.2185 89.872 98.3148 89.955 98.3603ZM96.9784 95.4631C96.8462 95.3479 96.6507 95.3558 96.4762 95.3702C95.9256 95.4156 95.3751 95.461 94.8246 95.5065C94.9891 96.2142 95.1963 96.9119 95.4446 97.5946C95.4771 97.6841 95.514 97.7783 95.5898 97.8358C95.6845 97.9074 95.8141 97.9035 95.9325 97.8963C96.3083 97.8736 96.6841 97.8509 97.0599 97.8281C97.233 97.8177 97.4435 97.7806 97.5015 97.6167C97.5294 97.5379 97.5114 97.4511 97.4931 97.3695C97.3788 96.8588 97.2645 96.348 97.1502 95.8373C97.1197 95.7009 97.0836 95.5548 96.9784 95.4631ZM93.6943 100.548C93.6399 100.556 93.5818 100.567 93.5422 100.605C93.465 100.68 93.5003 100.808 93.5409 100.908C93.6856 101.263 93.8302 101.618 93.9749 101.973C94.0285 102.105 94.0889 102.245 94.2087 102.321C94.3195 102.391 94.4588 102.393 94.5899 102.392C95.0895 102.389 95.589 102.386 96.0886 102.383C96.1617 102.383 96.2411 102.38 96.2974 102.333C96.3995 102.249 96.3615 102.086 96.3145 101.962C96.1223 101.453 95.9301 100.945 95.7379 100.437C95.6762 100.274 95.45 100.272 95.2782 100.299C94.7502 100.382 94.2223 100.465 93.6943 100.548ZM97.8973 95.3626C97.7923 95.363 97.6742 95.3689 97.6034 95.4467C97.518 95.5406 97.5451 95.6876 97.5775 95.8105C97.7195 96.3491 97.8615 96.8877 98.0036 97.4264C98.0286 97.5211 98.0576 97.6224 98.1333 97.6843C98.234 97.7665 98.3795 97.7512 98.5078 97.7315C98.9814 97.6589 99.455 97.5863 99.9286 97.5137C99.8778 96.9624 99.7905 96.4145 99.6675 95.8747C99.6291 95.706 99.5759 95.5217 99.4302 95.429C99.3212 95.3596 99.184 95.3579 99.0549 95.3584C98.6691 95.3598 98.2832 95.3612 97.8973 95.3626ZM98.8614 102.32C98.7079 101.761 98.5545 101.202 98.401 100.642C98.3424 100.429 98.2593 100.187 98.0536 100.106C97.9521 100.067 97.8392 100.076 97.7308 100.085C97.2254 100.129 96.72 100.173 96.2147 100.217C96.3479 100.718 96.5057 101.212 96.6872 101.698C96.7786 101.942 96.9173 102.219 97.174 102.261C97.7311 102.351 98.2994 102.371 98.8614 102.32ZM99.7411 102.281C100.199 102.319 100.702 102.344 101.072 102.071C100.912 101.445 100.751 100.818 100.591 100.192C100.554 100.051 100.506 99.8939 100.377 99.8268C100.283 99.7775 100.169 99.791 100.064 99.8057C99.6097 99.8691 99.1558 99.9325 98.7019 99.9958C98.8098 100.659 98.9929 101.31 99.2466 101.931C99.2856 102.027 99.3294 102.126 99.4109 102.189C99.5028 102.259 99.6255 102.272 99.7411 102.281ZM140.562 93.3654C140.912 92.645 141.262 91.9246 141.612 91.2042C141.648 91.1285 141.686 91.0466 141.673 90.9635C141.66 90.8826 141.601 90.8178 141.545 90.7583C141.047 90.23 140.549 89.7017 140.051 89.1735C139.844 89.457 139.868 89.8424 139.901 90.1923C140.009 91.3407 140.117 92.4892 140.226 93.6376C140.378 93.6716 140.494 93.5061 140.562 93.3654ZM100.244 95.2795C100.179 95.2749 100.104 95.2737 100.059 95.3208C100.007 95.3737 100.019 95.4592 100.034 95.5314C100.132 96.0082 100.231 96.4851 100.329 96.9619C100.366 97.1387 100.409 97.3277 100.542 97.4493C100.972 97.8428 101.801 97.1659 102.201 97.5904C102.271 96.9133 102.221 96.2237 102.052 95.5643C102.04 95.5179 102.026 95.469 101.991 95.437C101.95 95.4 101.891 95.3944 101.836 95.3905C101.305 95.3535 100.775 95.3165 100.244 95.2795ZM90.3477 98.8159C90.2904 98.8237 90.2306 98.8325 90.1835 98.866C90.0788 98.9406 90.0829 99.0949 90.0979 99.2228C90.138 99.5639 90.182 99.9168 90.3598 100.21C90.5376 100.504 90.889 100.721 91.2197 100.632C91.6934 100.505 92.1672 100.377 92.6409 100.25C92.6204 99.7956 92.5287 99.3447 92.3703 98.9187C92.3308 98.8124 92.281 98.7003 92.1836 98.6428C92.0825 98.5831 91.9561 98.597 91.8398 98.6128C91.3425 98.6805 90.8451 98.7482 90.3477 98.8159ZM101.397 94.8306C101.54 94.8089 101.692 94.7829 101.798 94.6846C102.113 94.3922 101.753 93.7979 102.008 93.4517C102.108 93.3165 101.864 93.1956 101.696 93.2027C100.948 93.2344 100.2 93.2661 99.4512 93.2977C99.4801 93.6083 99.5339 93.9166 99.6119 94.2186C99.6988 94.5551 100.026 94.7854 100.364 94.8601C100.703 94.9347 101.055 94.8828 101.397 94.8306ZM95.349 98.874C95.2526 98.4096 94.633 98.3011 94.1681 98.388C93.7032 98.4749 93.1841 98.6433 92.789 98.3826C92.814 98.8729 92.9282 99.3585 93.1242 99.8084C93.1653 99.9028 93.2152 100.001 93.3047 100.052C93.4057 100.109 93.5306 100.091 93.6448 100.071C94.1031 99.9919 94.5613 99.9126 95.0195 99.8332C95.2466 99.7938 95.546 99.6135 95.4265 99.4158C95.3313 99.2582 95.3864 99.0544 95.349 98.874ZM92.5182 100.78C92.1438 100.844 91.7695 100.908 91.3951 100.971C91.1923 101.006 90.9426 101.087 90.9209 101.292C90.8662 101.811 91.3812 102.229 91.8906 102.332C92.4 102.436 92.9289 102.335 93.446 102.386C93.4248 101.945 93.3328 101.508 93.1748 101.096C93.1372 100.998 93.0926 100.897 93.0097 100.833C92.8752 100.729 92.6857 100.752 92.5182 100.78ZM102.385 99.7746C101.888 99.7217 101.383 99.7482 100.894 99.8526C101.164 100.498 101.356 101.176 101.464 101.867C101.514 102.184 101.965 102.19 102.275 102.111C102.39 102.081 102.516 102.045 102.582 101.945C102.639 101.859 102.636 101.748 102.632 101.645C102.605 101.076 102.579 100.507 102.552 99.9374C102.55 99.9015 102.548 99.8634 102.527 99.834C102.497 99.7904 102.438 99.7802 102.385 99.7746ZM94.2722 104.875C94.7406 104.406 94.5005 103.459 93.8656 103.271C93.2307 103.084 92.5175 103.749 92.6581 104.398C92.8034 105.069 93.7878 105.36 94.2722 104.875ZM97.9544 99.376C98.2524 98.9857 97.8063 98.4096 97.3237 98.3248C96.841 98.2399 96.3517 98.4255 95.8617 98.4183C95.6811 98.4156 95.6736 98.6881 95.7323 98.8594C95.8082 99.081 95.884 99.3026 95.9599 99.5242C95.991 99.6149 96.0473 99.7236 96.1426 99.7176C96.4921 99.6957 96.8415 99.6737 97.1909 99.6518C97.4698 99.6343 97.7845 99.5985 97.9544 99.376ZM102.784 103.143C102.748 103.045 102.694 102.95 102.61 102.888C102.535 102.833 102.44 102.809 102.348 102.798C101.614 102.71 100.902 103.443 101.011 104.176C101.323 104.548 101.911 104.651 102.33 104.407C102.749 104.163 102.951 103.6 102.784 103.143ZM98.2574 98.7122C98.2413 99.0345 98.5239 99.3098 98.8337 99.3967C99.1435 99.4837 99.4731 99.4275 99.7898 99.3709C99.9519 99.3419 100.134 99.2999 100.219 99.1583C100.4 98.8564 100.04 98.3027 100.372 98.1869C100.149 98.1562 99.9267 98.1255 99.7041 98.0948C99.4102 98.0543 99.1061 98.0144 98.8208 98.096C98.5355 98.1777 98.2722 98.4149 98.2574 98.7122ZM100.918 99.1245C101.256 99.4186 101.82 99.378 102.134 99.0584C102.447 98.7388 102.488 98.1971 102.252 97.8165C101.661 97.9263 101.071 98.0361 100.481 98.1459C100.555 98.5025 100.644 98.8854 100.918 99.1245ZM146.535 93.4642C146.075 93.6351 145.615 93.8059 145.156 93.9768C144.927 94.0617 144.696 94.1482 144.498 94.2906C145.25 94.585 146.198 94.2002 146.535 93.4642ZM103.807 56.8641C103.795 56.6604 103.58 56.494 103.38 56.5337C103.393 56.741 103.599 56.9153 103.805 56.893L103.807 56.8641Z" fill="#1E1F26"/>
</svg>
