<svg width="21" height="22" viewBox="0 0 21 22" fill="none" xmlns="http://www.w3.org/2000/svg">
<path d="M10.4999 0.583374C4.7395 0.583374 0.083252 5.23962 0.083252 11C0.083252 16.7605 4.7395 21.4167 10.4999 21.4167C16.2603 21.4167 20.9166 16.7605 20.9166 11C20.9166 5.23962 16.2603 0.583374 10.4999 0.583374ZM10.4999 19.3334C5.90617 19.3334 2.16659 15.5938 2.16659 11C2.16659 6.40629 5.90617 2.66671 10.4999 2.66671C15.0937 2.66671 18.8333 6.40629 18.8333 11C18.8333 15.5938 15.0937 19.3334 10.4999 19.3334ZM14.2395 5.79171L10.4999 9.53129L6.76034 5.79171L5.29159 7.26046L9.03117 11L5.29159 14.7396L6.76034 16.2084L10.4999 12.4688L14.2395 16.2084L15.7083 14.7396L11.9687 11L15.7083 7.26046L14.2395 5.79171Z" fill="#4F4F4F"/>
</svg>
