<svg width="233" height="180" viewBox="0 0 233 180" fill="none" xmlns="http://www.w3.org/2000/svg">
<path fill-rule="evenodd" clip-rule="evenodd" d="M206.668 126.03C206.668 79.2316 168.676 41.2941 121.811 41.2941C74.9467 41.2941 33.3656 79.3115 36.9553 126.03C41.2338 181.713 206.668 171.107 206.668 126.03Z" fill="#85E2FF"/>
<path d="M54.8241 124.958C55.1016 124.933 55.4639 124.961 55.5426 125.228C55.545 125.55 55.1365 125.684 54.8165 125.724C53.0917 125.938 51.367 126.152 49.6422 126.366C50.444 127.046 50.5236 128.394 49.8453 129.196C49.167 129.999 47.8707 130.164 46.9831 129.6C46.6871 129.413 46.4349 129.158 46.1237 128.996C45.8125 128.835 45.4013 128.787 45.1318 129.011C44.5226 129.518 43.6039 129.381 42.8749 129.07C42.1523 128.761 41.4393 128.235 41.2711 127.469C41.1044 126.709 41.5199 125.944 42.0111 125.34C42.5023 124.737 43.0957 124.191 43.3908 123.471C43.8238 122.416 45.1021 121.89 46.2345 122.039C47.367 122.189 48.3585 122.877 49.1832 123.666C49.7143 124.174 50.5758 123.975 51.2778 123.756C51.9798 123.537 52.8613 123.375 53.3531 123.921" fill="white"/>
<path fill-rule="evenodd" clip-rule="evenodd" d="M154.401 121.994C154.401 114.091 160.251 112.27 163.962 112.363C167.674 112.456 171.214 114.842 172.592 118.171C173.97 121.499 173.111 125.578 170.504 128.13C167.897 130.682 162.392 130.713 160.805 130.232C159.219 129.751 154.401 126.405 154.401 121.994Z" fill="white"/>
<path fill-rule="evenodd" clip-rule="evenodd" d="M162.437 116.527C163.445 116.447 164.481 116.814 165.212 117.512C166.346 118.593 166.639 120.452 165.892 121.828C165.145 123.204 163.426 123.974 161.9 123.616C160.447 123.275 159.283 121.946 159.138 120.462C158.994 118.979 159.879 117.45 161.239 116.836C161.617 116.665 162.024 116.56 162.437 116.527M164.186 117.223C163.83 116.961 163.438 116.742 163.013 116.657C162.531 116.561 162.025 116.646 161.572 116.85C160.422 117.37 159.637 118.718 159.712 120.062C159.787 121.406 160.722 122.646 161.928 122.989C163.135 123.332 164.52 122.744 165.178 121.6C165.837 120.456 165.708 118.849 164.871 117.851C164.67 117.61 164.435 117.405 164.186 117.223V117.223Z" fill="#1E1F26"/>
<path fill-rule="evenodd" clip-rule="evenodd" d="M74.3679 122.559C74.3348 122.044 74.3388 121.524 74.4299 121.016C74.499 120.631 74.6174 120.257 74.7356 119.884C74.9903 119.08 75.2459 118.273 75.595 117.505C77.3064 113.739 81.3973 111.188 85.5373 111.295C89.6773 111.403 93.626 114.156 95.1627 117.996C96.6994 121.837 95.7419 126.543 92.8338 129.488C89.9258 132.432 85.2334 133.454 81.3579 131.997C77.4823 130.539 74.6332 126.686 74.3679 122.559" fill="white"/>
<path fill-rule="evenodd" clip-rule="evenodd" d="M85.4734 76.0319C85.4946 77.6667 85.0762 79.4149 85.8335 80.8644C87.2365 83.5496 91.1765 83.0505 94.0746 82.1577C91.6927 79.4506 89.3108 76.7435 86.9288 74.0364C91.8633 69.0053 96.7977 63.9742 101.732 58.9431C102.144 58.5236 102.619 58.0753 103.206 58.0639C103.884 58.0507 104.415 58.617 104.849 59.1371C106.465 61.0731 108.081 63.009 109.698 64.945C111.029 66.5401 112.297 69.1235 110.667 70.4132C116.782 69.9988 122.898 69.5844 129.013 69.1701C127.868 62.6389 129.972 54.5999 132.049 48.3023C132.256 47.6745 132.506 46.9919 133.081 46.6635C133.483 46.4334 133.97 46.4242 134.434 46.421C145.598 46.3441 156.763 46.2673 167.928 46.1904C168.604 46.1857 169.317 46.1904 169.902 46.5304C170.403 46.8221 170.741 47.3223 171.057 47.808C180.503 62.3083 186.4 80.5197 188.095 97.7346C188.308 99.8939 191.079 115.357 188.095 115.816C173.885 118 176.67 105.14 161.663 107.021C149.332 108.567 151.662 115.816 144.535 117.229C138.133 118.498 116.296 118.813 109.218 119.167C99.5072 119.652 98.8209 104.993 84.033 105.589C69.2451 106.185 69.5836 122.952 61.617 121.032C61.2848 120.952 57.6779 118.857 57.5966 118.606C56.4226 114.983 55.5424 101.723 55.5424 101.723L52.7614 101.106C52.7614 101.106 52.5572 94.26 52.7614 94.0414C53.1214 93.6561 59.4254 94.3472 62.1536 94.0414C61.3476 88.4522 60.5416 82.863 59.7356 77.2738C59.666 76.7912 59.6059 76.2608 59.8685 75.8498C60.1606 75.3928 60.7471 75.2415 61.2785 75.1306C68.388 73.6474 75.6227 72.7624 82.8806 72.4883C84.5166 72.4265 85.4521 74.3971 85.4734 76.0319Z" fill="white"/>
<path fill-rule="evenodd" clip-rule="evenodd" d="M71.1267 91.2806L67.9263 91.5082L66.1273 74.2187L68.9297 73.7585L71.1267 91.2806Z" fill="#FCA740"/>
<path fill-rule="evenodd" clip-rule="evenodd" d="M146.709 58.3499C147.576 58.1835 164.203 69.7056 164.031 69.8925C163.858 70.0795 146.367 58.4158 146.709 58.3499Z" fill="#E0E0E0"/>
<path fill-rule="evenodd" clip-rule="evenodd" d="M153.84 58.35C154.513 58.2304 163.034 63.9838 162.797 64.3189C162.56 64.6541 153.411 58.4264 153.84 58.35Z" fill="#E0E0E0"/>
<path fill-rule="evenodd" clip-rule="evenodd" d="M144.927 61.9104C144.604 61.3401 154.14 67.9294 153.884 67.8793C151.427 67.3996 145.022 62.0778 144.927 61.9104Z" fill="#E0E0E0"/>
<path fill-rule="evenodd" clip-rule="evenodd" d="M143.8 80.4997C144.009 80.6647 143.923 81.0397 143.687 81.1632C143.451 81.2867 143.15 81.2043 142.942 81.0388C142.312 80.5408 142.443 79.4851 142.994 78.9019C143.545 78.3187 144.362 78.0864 145.137 77.8784C145.459 77.7921 145.78 77.7058 146.102 77.6196C146.758 77.4435 147.456 77.2675 148.107 77.4622C148.758 77.657 149.3 78.3777 149.048 79.0076C148.888 79.4039 148.468 79.6438 148.047 79.7197C147.627 79.7956 147.195 79.7379 146.769 79.7089C145.931 79.6518 145.085 79.7067 144.262 79.8714C144.1 79.9038 143.93 79.9454 143.814 80.0626C143.699 80.1798 143.671 80.3977 143.8 80.4997Z" fill="#1E1F26"/>
<path fill-rule="evenodd" clip-rule="evenodd" d="M148.018 116.412C147.801 117.311 147.583 118.21 147.365 119.11C147.298 119.385 147.225 119.673 147.032 119.88C146.745 120.187 146.28 120.231 145.86 120.255C132.624 121.013 119.377 121.592 106.126 121.993C105.23 122.02 104.385 121.51 103.797 120.834C103.209 120.159 102.835 119.328 102.47 118.511C103.049 118.371 103.598 118.832 103.951 119.311C104.303 119.791 104.614 120.357 105.162 120.59C105.523 120.744 105.93 120.726 106.322 120.705C119.191 120.015 132.059 119.325 144.928 118.635C145.392 118.61 145.895 118.569 146.24 118.258C146.594 117.939 146.679 117.426 146.887 116.996C147.094 116.566 147.604 116.174 148.018 116.412L148.018 116.412Z" fill="#1E1F26"/>
<path fill-rule="evenodd" clip-rule="evenodd" d="M49.0056 124.095C48.3799 123.427 47.5888 122.916 46.7231 122.618C46.1353 122.416 45.4618 122.319 44.9099 122.605C44.358 122.891 44.0502 123.679 44.4384 124.164C44.6427 124.419 44.1815 124.66 43.862 124.73C42.9072 124.94 42.1867 125.997 42.4573 126.935C42.7279 127.873 44.0417 128.362 44.7996 127.745C45.074 127.522 45.2579 127.196 45.5552 127.004C45.8526 126.813 46.3537 126.853 46.4451 127.194C46.6378 127.914 47.2952 128.486 48.0356 128.579C48.5191 128.639 49.0913 128.442 49.2412 127.979C49.5066 127.158 48.2951 126.309 48.7076 125.551C48.9156 125.169 49.4189 125.087 49.8525 125.048C51.5097 124.899 53.1669 124.751 54.8241 124.602C55.1016 124.577 55.4639 124.605 55.5424 124.872C55.545 125.194 55.1365 125.328 54.8165 125.368C53.0917 125.582 51.367 125.796 49.6422 126.01C50.444 126.69 50.5236 128.038 49.8453 128.84C49.167 129.643 47.8707 129.808 46.9831 129.244C46.6871 129.057 46.4349 128.802 46.1237 128.64C45.8125 128.479 45.4013 128.431 45.1318 128.655C44.5226 129.162 43.6039 129.025 42.8749 128.714C42.1523 128.405 41.4393 127.879 41.2711 127.113C41.1044 126.353 41.5199 125.588 42.0111 124.984C42.5023 124.381 43.0957 123.835 43.3908 123.115C43.8238 122.06 45.1021 121.534 46.2345 121.683C47.367 121.833 48.3585 122.521 49.1832 123.31C49.7143 123.818 50.5758 123.619 51.2778 123.4C51.9798 123.181 52.8613 123.019 53.3531 123.565C52.3408 123.795 51.3285 124.024 50.3162 124.254C49.8657 124.356 49.3213 124.432 49.0056 124.095Z" fill="#E0E0E0"/>
<path fill-rule="evenodd" clip-rule="evenodd" d="M69.2731 123.116C69.2243 122.357 69.2302 121.591 69.3645 120.842C69.4664 120.275 69.641 119.723 69.8151 119.173C70.1905 117.987 70.5672 116.799 71.0818 115.666C73.6041 110.116 79.6336 106.356 85.7354 106.515C91.8372 106.673 97.6572 110.731 99.922 116.391C102.187 122.051 100.776 128.988 96.4896 133.328C92.2035 137.667 85.2876 139.174 79.5755 137.026C73.8633 134.877 69.6642 129.199 69.2731 123.116M72.4743 117.438C72.2031 118.158 71.9915 118.913 71.9923 119.682C71.9949 122.041 72.181 124.435 72.9829 126.654C74.6683 131.318 79.2117 134.809 84.1563 135.26C89.1009 135.711 94.1941 133.109 96.7362 128.85C99.2783 124.59 99.152 118.89 96.4395 114.737C93.727 110.584 88.566 108.172 83.6328 108.735C78.6996 109.297 74.222 112.797 72.4743 117.438H72.4743Z" fill="#1E1F26"/>
<path fill-rule="evenodd" clip-rule="evenodd" d="M169.032 108.721C174.205 110.893 177.805 116.358 177.754 121.961C177.702 127.564 174.001 132.963 168.789 135.038C163.577 137.114 157.172 135.74 153.273 131.71C149.375 127.68 148.22 121.24 150.477 116.111C151.011 114.898 151.733 113.739 152.759 112.899C155.085 110.995 157.492 109.05 160.369 108.175C163.193 107.315 166.311 107.579 169.032 108.721ZM157 111.433C156.321 111.867 155.679 112.373 155.177 113.003C154.646 113.669 154.286 114.452 153.932 115.227C153.402 116.388 152.869 117.555 152.538 118.788C151.4 123.024 152.939 127.851 156.304 130.669C159.669 133.487 164.681 134.162 168.684 132.358C172.687 130.554 175.491 126.369 175.659 121.987C175.827 117.604 173.362 113.228 169.537 111.074C165.712 108.919 160.701 109.071 157 111.433Z" fill="#1E1F26"/>
<path fill-rule="evenodd" clip-rule="evenodd" d="M164.46 51.2161C155.488 51.4068 146.517 51.5976 137.546 51.7883C137.322 51.793 137.074 51.8078 136.917 51.9673C136.815 52.0703 136.772 52.2156 136.734 52.3549C134.744 59.6002 136.356 67.2764 137.708 74.6669C138.55 79.2744 139.289 83.9009 139.923 88.5416C140.38 91.8835 140.783 95.2442 140.755 98.617C140.746 99.6894 141.501 100.659 142.441 101.177C143.381 101.695 144.481 101.835 145.554 101.887C147.814 101.996 150.09 101.756 152.278 101.178C152.685 101.07 153.107 100.95 153.521 101.027C153.935 101.105 154.334 101.452 154.309 101.872C154.279 102.358 153.753 102.637 153.294 102.8C150.407 103.826 147.237 104.046 144.235 103.43C142.794 103.134 141.292 102.576 140.467 101.361C139.997 100.67 139.796 99.8361 139.614 99.021C137.775 90.8192 136.856 82.4433 135.96 74.0863C135.145 66.4916 134.344 58.8375 135.028 51.2299C135.049 50.9948 135.074 50.7502 135.199 50.5498C135.467 50.12 136.059 50.0617 136.566 50.0492C146.056 49.8165 155.545 49.5838 165.035 49.3511C165.573 49.3379 166.151 49.336 166.595 49.6399C166.923 49.8642 167.127 50.2232 167.32 50.5697C170.761 56.737 174.201 62.9044 177.641 69.0717C178.33 70.3056 179.04 71.723 178.612 73.0692C178.295 74.0676 177.389 74.7917 176.406 75.1566C175.422 75.5215 174.356 75.5811 173.309 75.6369C171.428 75.7371 169.548 75.8373 167.668 75.9375C163.023 76.1851 158.378 76.4326 153.733 76.6802C153.467 76.6944 153.169 76.698 152.972 76.5183C152.684 76.2559 152.808 75.7432 153.115 75.5037C153.422 75.2642 153.834 75.2224 154.223 75.1897C161.232 74.5994 168.242 74.0091 175.251 73.4188C175.801 73.3726 176.182 72.7965 176.207 72.2465C176.231 71.6966 175.993 71.1728 175.758 70.6746C172.721 64.2303 169.433 57.9041 165.903 51.7151C165.638 51.2498 164.996 51.2047 164.46 51.2161V51.2161Z" fill="#1E1F26"/>
<path fill-rule="evenodd" clip-rule="evenodd" d="M79.8552 113.1C82.9904 111.367 87.069 111.569 90.0875 113.498C93.106 115.426 94.9866 118.963 95.0262 122.541C95.0664 126.186 93.088 129.92 89.7829 131.466C88.6306 132.005 87.3608 132.273 86.0893 132.323C81.4561 132.503 76.8202 129.461 75.3355 125.074C73.8509 120.688 75.7984 115.342 79.8552 113.1M87.0112 130.755C88.2293 130.552 89.4128 130.118 90.4488 129.447C91.5106 128.759 92.4108 127.825 93.0575 126.738C94.7408 123.911 94.5255 120.113 92.6572 117.404C90.7888 114.695 87.4092 113.149 84.1212 113.349C82.8955 113.424 81.6787 113.725 80.583 114.279C76.8018 116.189 75.0656 121.231 76.6655 125.149C78.2654 129.068 82.8313 131.451 87.0112 130.755L87.0112 130.755Z" fill="#1E1F26"/>
<path fill-rule="evenodd" clip-rule="evenodd" d="M112.649 106.796C112.103 106.312 111.232 106.337 110.7 105.837C110.85 105.296 111.35 104.94 111.702 104.502C112.532 103.465 112.445 101.81 111.51 100.865C111.037 100.388 110.351 100.022 110.226 99.3623C111.204 99.1946 112.192 98.8798 112.928 98.2159C113.664 97.5519 114.091 96.4758 113.767 95.5394C113.668 95.2519 113.502 94.9772 113.498 94.6731C113.494 94.3689 113.759 94.0322 114.052 94.1157C115.62 94.5625 117.454 93.5209 117.87 91.9463C118.049 91.2698 119.046 91.3366 119.672 91.6513C120.298 91.966 121.095 92.3641 121.626 91.9085C122.077 91.5228 122.159 90.6271 122.752 90.6383C123.059 90.6441 123.276 90.9234 123.491 91.1432C124.229 91.9011 125.458 92.1308 126.421 91.691C126.757 91.5371 127.069 91.3084 127.435 91.2496C127.801 91.1907 128.251 91.3962 128.275 91.7654C128.346 92.8821 129.567 93.7737 130.654 93.5023C131.069 93.3988 131.773 93.4212 131.633 93.8246C131.204 95.0557 132.121 96.5638 133.413 96.7515C133.742 96.7992 134.091 96.7762 134.389 96.924C134.686 97.0717 134.883 97.4934 134.66 97.7386C133.699 98.7922 134.104 100.746 135.406 101.331C135.756 101.489 135.674 102.036 135.408 102.314C135.143 102.592 134.76 102.76 134.566 103.092C134.228 103.668 134.63 104.403 135.121 104.857C135.612 105.311 136.228 105.692 136.458 106.319C135.534 105.967 134.39 106.329 133.838 107.149C133.287 107.969 133.383 109.164 134.059 109.885C133.702 110.526 132.749 110.271 132.017 110.335C131.127 110.414 130.348 111.183 130.26 112.071C130.222 112.457 130.298 112.862 130.16 113.225C130.023 113.588 129.52 113.851 129.245 113.576C128.223 112.556 126.267 112.761 125.48 113.971C125.293 114.259 125.108 114.626 124.766 114.657C124.228 114.706 124.056 113.929 123.618 113.613C123.075 113.222 122.304 113.666 121.922 114.216C121.54 114.765 121.302 115.452 120.739 115.816C119.672 115.033 119.996 112.817 118.684 112.636C118.117 112.558 117.618 112.978 117.082 113.176C116.546 113.374 115.719 113.109 115.819 112.547C115.983 111.627 115.844 110.401 114.939 110.162C114.046 109.927 112.904 110.854 112.288 110.167C112.956 109.126 113.575 107.617 112.649 106.796ZM113.244 101.068C112.834 101.81 112.909 102.709 112.832 103.552C112.756 104.395 112.401 105.347 111.591 105.596C112.507 105.661 113.364 106.267 113.73 107.108C114.095 107.949 113.953 108.989 113.375 109.701C114.125 109.14 115.271 109.303 115.952 109.947C116.633 110.591 116.878 111.606 116.739 112.533C117.511 111.981 118.6 111.912 119.437 112.359C120.273 112.807 120.818 113.752 120.785 114.699C121.016 113.859 121.677 113.124 122.521 112.903C123.366 112.681 124.356 113.041 124.781 113.803C124.82 113.229 125.362 112.822 125.895 112.605C127.037 112.139 128.376 112.179 129.488 112.714C129.352 110.924 131.226 109.282 132.986 109.648C132.435 109.075 132.466 108.141 132.772 107.408C133.158 106.483 134.061 105.678 135.058 105.784C134.479 105.572 134.011 105.077 133.834 104.488C133.536 103.498 134.078 102.395 134.923 101.797C133.857 101.574 133.514 100.251 133.382 99.1715C133.313 98.6091 133.347 97.8723 133.884 97.6915C132.775 97.3783 131.773 96.6965 131.075 95.7797C130.752 95.3556 130.521 94.686 130.931 94.3451C130.08 94.301 129.241 94.0463 128.51 93.61C127.953 93.278 127.405 92.6695 127.616 92.0573C126.127 92.7922 124.251 92.6755 122.865 91.7619C122.446 92.4202 121.624 92.7393 120.843 92.7364C120.062 92.7335 119.309 92.4556 118.594 92.1419C118.679 92.6581 118.33 93.1432 117.952 93.5051C116.991 94.4253 115.699 94.9933 114.37 95.0795C114.961 97.109 113.386 99.4778 111.284 99.7212C111.792 100.342 112.488 100.797 113.244 101.068Z" fill="#1E1F26"/>
<path fill-rule="evenodd" clip-rule="evenodd" d="M164.911 130.152C163.58 130.333 162.207 130.204 160.933 129.777C156.893 128.424 154.252 123.811 155.135 119.648C156.018 115.485 160.305 112.337 164.548 112.737C168.79 113.136 172.413 117.028 172.502 121.282C172.59 125.537 169.133 129.576 164.911 130.152M167.96 128.354C170.799 126.634 172.357 123.037 171.668 119.793C170.98 116.55 168.095 113.893 164.802 113.471C161.508 113.048 158.044 114.89 156.557 117.854C155.069 120.818 155.666 124.692 157.976 127.073C160.497 129.671 164.863 130.231 167.96 128.354Z" fill="#1E1F26"/>
<path fill-rule="evenodd" clip-rule="evenodd" d="M123.437 92.8741C127.059 92.8328 130.618 94.9859 132.259 98.2102C133.9 101.435 133.543 105.575 131.375 108.472C129.206 111.369 125.33 112.883 121.769 112.224C118.623 111.642 115.831 109.414 114.569 106.478C113.308 103.542 113.614 99.9852 115.36 97.3077C117.105 94.6301 120.238 92.9106 123.437 92.8741ZM132.677 102.039C132.587 100.599 132.146 99.1818 131.404 97.9432C129.142 94.1664 123.899 92.5132 119.875 94.3078C115.851 96.1024 113.585 101.105 114.891 105.307C116.198 109.51 120.902 112.352 125.237 111.555C129.571 110.759 132.955 106.432 132.677 102.039V102.039Z" fill="#1E1F26"/>
<path fill-rule="evenodd" clip-rule="evenodd" d="M125.588 101.165C125.07 101.768 124.242 102.092 123.452 101.998C123.178 101.966 122.756 102.034 122.83 102.299C123.764 102.627 124.699 102.955 125.633 103.283C126.151 103.465 126.299 104.208 125.991 104.661C125.683 105.114 125.074 105.284 124.53 105.217C123.985 105.15 123.487 104.888 123.002 104.631C122.514 104.372 122.025 104.113 121.537 103.854C122.196 103.594 122.911 103.993 123.536 104.328C124.16 104.662 124.989 104.923 125.525 104.46C125.606 104.39 125.678 104.3 125.692 104.194C125.727 103.94 125.444 103.771 125.207 103.674C124.456 103.369 123.705 103.064 122.955 102.759C122.576 102.605 122.129 102.739 121.804 102.987C121.479 103.236 121.249 103.584 121.013 103.918C120.515 104.625 119.914 105.336 119.082 105.576C118.25 105.817 117.17 105.347 117.085 104.487C117.031 103.946 117.371 103.44 117.774 103.074C118.177 102.708 118.656 102.428 119.025 102.028C119.071 101.977 119.118 101.92 119.124 101.852C119.136 101.709 118.975 101.621 118.841 101.572C118.116 101.305 117.391 101.038 116.666 100.771C116.353 100.655 116.548 100.115 116.88 100.075C117.211 100.034 117.502 100.274 117.767 100.477C118.467 101.013 119.436 101.389 120.217 100.98C120.774 100.689 121.094 100.006 120.962 99.3927C120.783 98.5563 121.097 97.6328 121.75 97.079C122.403 96.5252 123.366 96.3646 124.164 96.6767C123.555 96.9628 123.277 97.7929 123.592 98.3869C123.906 98.9809 124.749 99.2194 125.329 98.8782C125.541 98.7531 125.824 98.5685 125.995 98.7457C126.043 98.7949 126.065 98.8625 126.084 98.9284C126.298 99.6941 126.106 100.561 125.588 101.165ZM121.678 98.8364C121.676 99.7512 122.19 100.693 123.04 101.035C123.89 101.376 125.017 100.953 125.294 100.081C125.356 99.8874 125.25 99.5753 125.064 99.6592C124.558 99.8882 123.961 99.6234 123.533 99.2687C123.254 99.0376 123.002 98.7547 122.895 98.4089C122.789 98.063 122.858 97.6458 123.136 97.4132C122.7 97.3159 122.215 97.4979 121.952 97.8575C121.748 98.1355 121.679 98.4919 121.678 98.8364ZM117.986 104.602C119.092 105.694 119.75 104.263 120.018 103.956C120.638 103.244 121.296 102.565 121.988 101.921C122.124 101.795 122.129 101.573 122.05 101.405C121.971 101.237 121.827 101.11 121.686 100.989C121.477 100.808 121.14 100.86 120.921 101.03C120.703 101.2 116.88 103.51 117.986 104.602Z" fill="#FCA740"/>
<path fill-rule="evenodd" clip-rule="evenodd" d="M83.6418 117.239C84.65 117.159 85.686 117.526 86.4175 118.224C87.5511 119.305 87.8438 121.164 87.0971 122.54C86.3504 123.916 84.6308 124.686 83.1051 124.328C81.652 123.987 80.4881 122.658 80.3434 121.174C80.1988 119.691 81.0842 118.162 82.4441 117.548C82.8216 117.377 83.2288 117.273 83.6418 117.239M85.3916 118.373C85.0348 118.131 84.6426 117.928 84.2183 117.849C83.7356 117.76 83.2301 117.838 82.7774 118.028C81.6268 118.509 80.8424 119.756 80.9173 121C80.9922 122.243 81.927 123.391 83.1335 123.708C84.3399 124.025 85.7248 123.481 86.3832 122.423C87.0416 121.365 86.9133 119.877 86.0764 118.953C85.8751 118.731 85.6398 118.541 85.3916 118.373Z" fill="#1E1F26"/>
<path fill-rule="evenodd" clip-rule="evenodd" d="M85.4734 73.8956C85.4946 75.5304 85.0762 77.2786 85.8336 78.7281C87.2366 81.4133 91.1765 80.9142 94.0747 80.0215C91.6927 77.3143 89.3108 74.6072 86.9289 71.9001C91.8633 66.869 96.7978 61.8379 101.732 56.8068C102.144 56.3873 102.619 55.939 103.206 55.9276C103.884 55.9144 104.415 56.4807 104.849 57.0008C106.465 58.9368 108.081 60.8727 109.698 62.8087C111.029 64.4038 112.297 66.9872 110.667 68.2769C116.782 67.8625 122.898 67.4481 129.013 67.0338C127.868 60.5026 129.972 53.8877 132.049 47.5901C132.256 46.9624 132.506 46.2797 133.081 45.9513C133.483 45.7213 133.97 45.7121 134.434 45.7089C145.598 45.632 156.763 45.5551 167.928 45.4782C168.604 45.4736 169.317 45.4783 169.902 45.8182C170.403 46.1099 170.741 46.6101 171.057 47.0959C180.503 61.5961 186.4 78.3834 188.095 95.5983C188.308 97.7576 188.541 100.117 190.067 101.661C192.391 104.012 192.641 108.109 190.62 110.724C192.106 111.801 191.739 114.287 190.379 115.518C189.018 116.748 187.084 117.063 185.267 117.325C182.856 117.672 180.232 117.982 178.124 116.763C181.577 115.955 185.034 115.166 188.495 114.396C186.96 104.299 185.425 94.2024 183.889 84.1056C183.383 80.776 182.874 77.4348 181.93 74.2016C180.914 70.7201 179.405 67.4051 177.902 64.104C175.534 58.9048 173.166 53.7056 170.798 48.5064C170.54 47.9399 170.261 47.3466 169.752 46.9871C169.136 46.5518 168.323 46.5528 167.568 46.5708C157.058 46.8206 146.547 47.0705 136.037 47.3203C135.431 47.3347 134.777 47.3652 134.301 47.7399C133.91 48.0481 133.711 48.5347 133.54 49.0023C129.401 60.2952 131.825 72.805 134.293 84.5752C134.747 86.7375 131.805 87.8421 129.602 88.0351C104.441 90.2378 79.2799 92.4404 54.1191 94.6431C53.8104 96.6351 53.7234 98.6613 53.86 100.672C55.5346 100.819 57.2091 100.966 58.8836 101.113C58.3525 101.322 57.8214 101.531 57.2903 101.74C58.2804 106.936 58.8277 112.216 58.9244 117.505C58.9538 119.114 60.3509 120.439 61.8896 120.918C63.4284 121.398 65.0855 121.22 66.687 121.037C64.9822 121.749 63.2057 122.476 61.3597 122.385C59.5137 122.295 57.5808 121.132 57.2401 119.318C56.1717 113.63 55.5565 107.857 55.402 102.072C54.4319 102.095 53.4617 102.119 52.4916 102.143C52.1636 99.7216 52.0315 97.2743 52.0972 94.8322C52.1113 94.3066 52.1539 93.7326 52.5131 93.3482C52.8731 92.9629 53.4445 92.8815 53.9689 92.8227C56.6971 92.5168 59.4254 92.2109 62.1536 91.9051C61.3476 86.3159 60.5416 80.7267 59.7356 75.1375C59.666 74.6549 59.6059 74.1245 59.8686 73.7135C60.1606 73.2565 60.7471 73.1052 61.2785 72.9943C68.3881 71.5111 75.6227 70.6261 82.8806 70.352C84.5167 70.2902 85.4522 72.2608 85.4734 73.8956ZM63.183 91.3409C63.2011 91.4994 63.2283 91.6751 63.3535 91.7742C63.4752 91.8706 63.6471 91.8607 63.8018 91.846C70.9403 91.1691 78.0788 90.4923 85.2173 89.8154C85.4144 89.7967 85.6387 89.7623 85.7463 89.5964C85.8306 89.4663 85.8133 89.2976 85.7928 89.144C85.0633 83.6744 84.3338 78.2049 83.6043 72.7354C83.5842 72.5852 83.5597 72.4249 83.4579 72.3125C83.3211 72.1615 83.0931 72.1458 82.8892 72.1414C75.8357 71.9872 68.7636 72.7048 61.8853 74.2726C61.6981 74.3152 61.4931 74.3704 61.3861 74.5296C61.2858 74.6788 61.3023 74.8746 61.3227 75.0531C61.9428 80.4824 62.5629 85.9116 63.183 91.3409ZM129.599 69.4751C129.568 69.2215 129.515 68.932 129.294 68.8028C129.154 68.7204 128.98 68.7271 128.817 68.7363C122.462 69.0946 116.106 69.4529 109.751 69.8112C109.611 69.8191 109.46 69.8313 109.354 69.9231C109.199 70.0571 109.208 70.2949 109.23 70.4981C109.811 75.9776 110.393 81.457 110.975 86.9365C110.993 87.109 111.018 87.296 111.141 87.4185C111.299 87.576 111.554 87.5664 111.776 87.546C118.37 86.9423 124.965 86.3386 131.559 85.735C130.905 80.315 130.252 74.8951 129.599 69.4751ZM95.4593 78.7073C95.5519 78.7914 95.6532 78.8796 95.7776 78.8942C95.9533 78.9149 96.1068 78.7842 96.2351 78.6624C100.531 74.5851 105.541 71.2198 109.837 67.1425C110.03 66.9589 110.239 66.741 110.23 66.4745C110.224 66.296 110.119 66.1378 110.018 65.9906C108.305 63.5024 105.772 60.3762 103.851 58.0451C103.662 57.8162 103.418 57.5652 103.124 57.6025C102.936 57.6264 102.786 57.7644 102.649 57.8957C97.9038 62.461 93.1582 67.0264 88.4127 71.5918C88.307 71.6934 88.1936 71.8127 88.1956 71.9592C88.1976 72.1061 88.3147 72.2223 88.4235 72.3211C90.7687 74.4498 93.114 76.5786 95.4593 78.7073ZM109.192 80.9487C109.155 80.7137 109.103 80.4529 108.908 80.3156C108.736 80.1937 108.505 80.2086 108.295 80.2286C101.725 80.8532 95.1559 81.4778 88.5866 82.1025C88.2432 82.1351 87.8407 82.2068 87.6912 82.5172C87.609 82.6881 87.6294 82.8883 87.6517 83.0766C87.8734 84.9498 88.0951 86.8231 88.3168 88.6964C88.348 88.9604 88.3984 89.2575 88.6185 89.4072C88.7947 89.527 89.0261 89.5133 89.2383 89.4949C96.0325 88.9064 102.827 88.318 109.621 87.7296C109.79 87.7149 109.979 87.6904 110.085 87.5581C110.195 87.4219 110.173 87.2262 110.146 87.0536C109.828 85.0186 109.51 82.9837 109.192 80.9487ZM107.827 71.1659C107.811 71.0522 107.758 70.9061 107.643 70.915C107.595 70.9187 107.555 70.9523 107.518 70.9842C104.139 73.9325 100.759 76.8808 97.3801 79.829C100.894 79.5348 104.404 79.2003 107.91 78.8256C108.212 78.7934 108.56 78.7311 108.704 78.465C108.798 78.2913 108.773 78.0802 108.747 77.8845C108.44 75.6449 108.133 73.4054 107.827 71.1659ZM189.379 102.734C189.703 104.599 190.027 106.465 190.35 108.33C190.383 108.515 190.449 108.738 190.632 108.778C190.931 108.844 191.034 108.395 190.993 108.093C190.774 106.479 190.555 104.865 190.336 103.251C190.297 102.962 190.24 102.641 190.006 102.467C189.772 102.292 189.329 102.447 189.379 102.734Z" fill="#1E1F26"/>
<path fill-rule="evenodd" clip-rule="evenodd" d="M28.6781 139.712C22.4351 139.81 0.966236 141.399 0.595367 140.603C0.120899 139.586 23.5326 138.248 28.6358 138.167L30.2343 138.146C34.8743 138.095 28.6781 139.712 28.6781 139.712ZM76.3613 137.764C77.8773 137.764 79.0641 138.254 78.0435 138.612C77.0229 138.97 73.7202 139.723 68.1898 139.85C62.6594 139.977 56.2491 140.109 46.7767 140.295C46.2275 140.306 45.7735 139.87 45.7626 139.321C45.7518 138.773 46.1883 138.32 46.7376 138.309L63.5107 137.967C68.603 137.857 71.7903 137.764 76.3613 137.764ZM152.127 137.183C152.676 137.174 153.129 137.612 153.137 138.16C153.146 138.709 152.708 139.16 152.158 139.169L149.827 139.197L142.696 139.247C141.26 139.261 83.1945 139.632 82.4072 138.782C81.6199 137.931 82.8281 137.778 83.3773 137.764C83.3773 137.764 142.677 137.258 144.228 137.247L150.158 137.208C150.847 137.201 151.472 137.193 152.127 137.183ZM216.593 135.272C216.593 135.272 218.379 134.964 231.418 135.939C231.966 135.98 232.376 136.456 232.335 137.003C232.294 137.55 225.847 137.274 217.032 137.259L214.608 137.263C208.136 137.291 202.123 137.466 192.144 137.876L179.549 138.408C174.174 138.627 170.967 138.735 167.068 138.826C166.519 138.839 166.063 138.405 166.05 137.857C166.037 137.308 166.472 136.853 167.021 136.84L170.152 136.759C173.877 136.651 177.705 136.501 184.491 136.212L191.687 135.907C202.939 135.442 209.196 135.272 216.593 135.272Z" fill="#1E1F26"/>
</svg>
