<svg width="19" height="21" viewBox="0 0 19 21" fill="none" xmlns="http://www.w3.org/2000/svg">
<path d="M8.45833 10.3959V15.7084C8.45833 15.9847 8.56808 16.2496 8.76343 16.445C8.95878 16.6403 9.22373 16.7501 9.5 16.7501C9.77627 16.7501 10.0412 16.6403 10.2366 16.445C10.4319 16.2496 10.5417 15.9847 10.5417 15.7084V10.3959C11.8063 10.1378 12.93 9.41926 13.695 8.37967C14.46 7.34009 14.8117 6.05349 14.682 4.76932C14.5522 3.48515 13.9503 2.2949 12.9929 1.42931C12.0354 0.563723 10.7907 0.0844727 9.5 0.0844727C8.2093 0.0844727 6.96457 0.563723 6.00713 1.42931C5.0497 2.2949 4.44777 3.48515 4.31804 4.76932C4.18831 6.05349 4.54003 7.34009 5.305 8.37967C6.06998 9.41926 7.19371 10.1378 8.45833 10.3959ZM9.5 2.16674C10.1181 2.16674 10.7223 2.35002 11.2362 2.6934C11.7501 3.03678 12.1506 3.52484 12.3871 4.09586C12.6236 4.66688 12.6855 5.29521 12.565 5.9014C12.4444 6.50759 12.1467 7.06441 11.7097 7.50145C11.2727 7.93849 10.7158 8.23612 10.1097 8.3567C9.50347 8.47728 8.87513 8.41539 8.30411 8.17887C7.7331 7.94234 7.24504 7.5418 6.90166 7.0279C6.55828 6.514 6.375 5.90981 6.375 5.29174C6.375 4.46294 6.70424 3.66809 7.29029 3.08203C7.87634 2.49598 8.6712 2.16674 9.5 2.16674ZM13.8854 13.0209C13.7486 12.9922 13.6075 12.9907 13.4701 13.0165C13.3328 13.0423 13.2018 13.0949 13.0848 13.1713C12.9677 13.2477 12.8669 13.3465 12.788 13.4618C12.7091 13.5772 12.6537 13.707 12.625 13.8438C12.5963 13.9806 12.5948 14.1217 12.6206 14.2591C12.6464 14.3965 12.699 14.5274 12.7754 14.6445C12.8518 14.7615 12.9506 14.8623 13.0659 14.9412C13.1813 15.0201 13.3111 15.0755 13.4479 15.1042C15.8125 15.573 16.7917 16.4167 16.7917 16.7501C16.7917 17.3542 14.2396 18.8334 9.5 18.8334C4.76042 18.8334 2.20833 17.3542 2.20833 16.7501C2.20833 16.4167 3.1875 15.573 5.55208 15.0626C5.68888 15.0338 5.81867 14.9785 5.93406 14.8996C6.04945 14.8207 6.14817 14.7198 6.22458 14.6028C6.301 14.4858 6.35361 14.3548 6.37942 14.2174C6.40523 14.0801 6.40373 13.939 6.375 13.8022C6.34627 13.6654 6.29088 13.5356 6.212 13.4202C6.13311 13.3048 6.03226 13.2061 5.91522 13.1297C5.79818 13.0532 5.66724 13.0006 5.52986 12.9748C5.39249 12.949 5.25138 12.9505 5.11458 12.9792C1.94792 13.7084 0.125 15.073 0.125 16.7501C0.125 19.4897 4.84375 20.9167 9.5 20.9167C14.1562 20.9167 18.875 19.4897 18.875 16.7501C18.875 15.073 17.0521 13.7084 13.8854 13.0209Z" fill="#4F4F4F"/>
<path d="M8.46664 10.4115V15.724C8.46664 16.0003 8.57639 16.2653 8.77174 16.4606C8.96709 16.656 9.23204 16.7657 9.50831 16.7657C9.78458 16.7657 10.0495 16.656 10.2449 16.4606C10.4402 16.2653 10.55 16.0003 10.55 15.724V10.4115C11.8146 10.1534 12.9383 9.43488 13.7033 8.3953C14.4683 7.35571 14.82 6.06912 14.6903 4.78495C14.5605 3.50078 13.9586 2.31052 13.0012 1.44493C12.0437 0.579348 10.799 0.100098 9.50831 0.100098C8.2176 0.100098 6.97288 0.579348 6.01544 1.44493C5.05801 2.31052 4.45608 3.50078 4.32635 4.78495C4.19662 6.06912 4.54834 7.35571 5.31331 8.3953C6.07828 9.43488 7.20201 10.1534 8.46664 10.4115Z" fill="#C97A40"/>
</svg>
