<svg width="189" height="184" viewBox="0 0 189 184" fill="none" xmlns="http://www.w3.org/2000/svg">
<path d="M164.966 133.234C163.852 154.957 146.447 174.642 125.112 178.876C103.776 183.111 80.4262 171.848 70.0303 152.742C68.883 150.633 67.8614 148.422 66.8398 146.211C64.2026 140.502 61.5662 134.795 56.7719 130.868C51.298 126.385 44.2581 125.186 37.1472 123.974C32.6318 123.205 28.0877 122.431 23.898 120.808C13.7978 116.896 5.95556 107.627 3.76943 97.0188C0.226802 79.8276 11.4481 62.2758 26.4122 53.1017C41.3763 43.9276 59.3576 41.3725 76.7993 39.4037C83.4714 38.6506 88.8911 33.6226 92.762 28.1362C94.2606 26.0123 95.6088 23.7804 96.9561 21.5502C99.089 18.0197 101.219 14.4933 103.939 11.4054C115.458 -1.66959 136.906 -3.87594 151.577 5.52576C166.248 14.9275 173.27 34.2601 169.368 51.2425C168.697 54.1674 167.743 57.0155 166.789 59.8638L166.789 59.8642C165.876 62.5908 164.962 65.3175 164.296 68.112C162.873 74.0852 162.601 80.2664 162.439 86.4047C162.246 93.7233 162.2 101.061 162.886 108.35C163.124 110.886 163.451 113.418 163.778 115.95C164.52 121.703 165.262 127.454 164.966 133.234Z" fill="#ABBB53"/>
<path d="M76.775 34.2154C84.7525 30.2468 91.1018 23.3545 95.1001 15.3919C95.6244 14.3479 96.1212 13.2386 96.1028 12.0705C96.0844 10.9023 95.4048 9.66506 94.2748 9.3684C92.6555 8.94326 91.2629 10.4959 90.2531 11.8312C83.3162 21.0047 73.2195 28.2063 61.8262 29.7769C57.4505 30.3801 53.0078 30.1536 48.5966 29.9258L41.7064 29.5701C36.1569 29.2836 30.5303 29.0028 25.0982 30.1738C19.6661 31.3448 14.3583 34.1611 11.3748 38.8492C10.4252 40.3414 9.71386 42.0999 9.97662 43.849C10.2459 45.6415 11.52 47.1628 13.0547 48.1271C14.5895 49.0914 16.3725 49.5739 18.1395 49.9775C19.4333 50.2731 20.7547 50.5349 22.0785 50.4417C24.2428 50.2893 26.2068 49.2131 28.1179 48.1659C28.2452 48.0962 28.3723 48.0266 28.4991 47.9573C31.8392 46.1352 35.3002 44.5169 38.91 43.3145C44.1741 41.5611 49.7092 40.703 55.2307 39.8471C62.6691 38.694 70.0828 37.5447 76.775 34.2154Z" fill="#ABBB53"/>
<path d="M35.2898 139.942L35.2945 139.942C35.6196 139.955 35.9446 139.968 36.2687 139.985C41.3948 140.252 46.4677 141.508 51.1255 143.666C52.9014 144.488 54.7 145.518 55.6974 147.202C56.9315 149.285 58.413 151.222 60.1008 152.959C60.7556 153.632 61.4646 154.291 62.3387 154.635C63.2129 154.98 64.2923 154.948 65.0015 154.332C65.8632 153.584 65.9191 152.255 65.6535 151.145C65.2184 149.326 64.1332 147.74 63.0591 146.209C59.5345 141.185 55.8238 136.161 50.919 132.472C46.0141 128.783 39.6842 126.549 33.6805 127.823C31.6075 128.263 29.553 129.16 28.1786 130.773C26.8042 132.386 26.2611 134.814 27.251 136.688C28.0362 138.174 29.6282 139.089 31.258 139.501C32.5716 139.833 33.9321 139.888 35.2895 139.942H35.2898Z" fill="#ABBB53"/>
<path d="M173.947 64.3703C172.577 63.8536 171.025 64.4776 169.865 65.3718C167.574 67.1378 166.219 69.9005 165.602 72.7266C164.985 75.5527 165.035 78.4761 165.088 81.3682L165.541 106.218C165.574 108.033 165.655 109.99 166.771 111.422C167.12 111.87 167.599 112.263 168.164 112.321C168.849 112.391 169.483 111.958 169.978 111.479C172.684 108.86 173.039 104.733 173.363 100.971L173.374 100.835C173.85 95.3133 174.674 89.8219 175.84 84.4039C176.168 82.8803 176.528 81.347 177.214 79.9475C179.364 75.5601 178.849 69.9907 175.933 66.071C175.405 65.362 174.774 64.6821 173.947 64.3703Z" fill="#ABBB53"/>
<path d="M124.861 98.0063C126.307 98.4046 127.602 99.6087 127.744 101.102C128.018 100.508 128.621 100.079 129.272 100.013L128.327 101.018L129.522 101.041L127.877 101.96C128.897 103.847 128.732 106.173 128.078 108.216C127.678 109.466 127.099 110.718 127.212 112.026C127.323 113.312 128.465 114.626 129.714 114.363L129.776 114.349C131.277 113.969 132.92 114.189 134.269 114.949C136.206 116.04 137.382 118.067 138.713 119.848C139.889 121.421 141.28 122.883 143.019 123.794C144.759 124.705 146.891 125.005 148.703 124.249C149.602 123.874 150.407 123.253 151.36 123.055C152.314 122.857 153.292 123.388 153.642 124.292C153.797 124.691 153.464 126.173 152.615 127.904C152.753 127.864 152.897 127.838 153.049 127.829C157.511 127.539 162.014 126.569 165.853 124.278C167.074 123.55 168.214 122.697 169.346 121.836L170.006 121.333L170.405 121.026C172.889 119.102 175.341 116.957 176.362 114.03L176.416 113.872L176.529 113.527C176.747 112.872 177.024 112.195 177.657 111.991C178.531 111.71 179.328 112.557 179.86 113.307L183.693 118.71C183.791 118.849 183.892 118.992 183.929 119.158C184.095 119.892 182.999 120.263 182.293 120.003C181.009 119.528 179.978 118.116 178.631 118.358C177.683 118.529 177.117 119.446 176.649 120.31L176.531 120.53C173.695 125.84 168.923 130.088 163.32 132.289C161.876 132.857 160.383 133.292 158.894 133.726L155.884 134.602L156.414 134.697C160.905 135.485 165.696 135.965 169.775 133.975C172.49 132.65 174.582 130.369 176.555 128.064L177.271 127.222L177.566 126.871C178.777 125.418 179.928 123.863 180.282 122.022C180.417 121.315 181.31 120.977 182.004 121.169C182.698 121.36 183.226 121.909 183.718 122.436L187.443 126.423C187.737 126.737 188.046 127.084 188.089 127.512C188.132 127.94 187.748 128.424 187.335 128.304L183.295 127.13C182.916 127.02 182.497 126.913 182.14 127.081C181.867 127.211 181.69 127.476 181.534 127.737L177.19 135.072C175.967 137.137 173.701 138.335 171.473 139.23C166.133 141.378 160.338 142.387 154.585 142.171C153.961 142.147 153.335 142.11 152.718 142.012C150.397 141.647 148.302 140.467 146.272 139.273C146.628 140.574 146.311 141.672 144.198 141.755C142.327 141.829 137.742 134.123 136.317 133.723C128.535 131.541 127.257 127.234 124.757 124.292C124.757 124.292 119.705 124.944 116.369 124.249C108.55 122.619 103.296 117.604 101.401 117.285C99.5071 116.966 98.2579 118.18 97.673 117.444L97.673 116.91C97.7635 116.763 98.6688 115.917 101.251 116.467C104.857 117.234 110.621 120.13 115.024 120.671C119.645 121.239 123.559 120.487 123.538 120.361C123.494 120.104 124.655 119.01 123.727 118.458C122.799 117.906 109.326 112.499 106.397 107.992L106.362 107.936C105.859 107.1 105.476 105.023 106.49 105.974L106.773 105.471C107.864 106.5 111.446 108.851 115.167 111.17C119.1 113.621 124.655 115.19 124.757 115.122C127.021 113.59 125.013 112.482 124.638 112.156C123.761 111.395 122.597 110.979 121.841 110.097C120.028 107.981 121.323 104.195 119.251 102.332C118.937 102.05 118.557 101.828 118.33 101.473C117.941 100.864 118.132 100.017 118.603 99.4698C119.075 98.9223 119.764 98.6166 120.446 98.3784C121.862 97.884 123.415 97.6081 124.861 98.0063Z" fill="white"/>
<ellipse cx="126.076" cy="108.828" rx="0.534626" ry="0.534622" fill="#EB9050"/>
<ellipse cx="122.816" cy="108.828" rx="0.396488" ry="0.534622" fill="#EB9050"/>
<path d="M103.442 111.419C98.4716 110.134 93.2474 109.837 88.1633 110.552C88.5478 108.651 89.0293 106.771 89.6054 104.92C87.9511 105.454 85.9981 103.938 86.105 102.203C86.212 100.468 88.3365 99.2029 89.9127 99.9359C90.4541 98.6866 90.4884 97.226 90.0063 95.9526C89.775 95.3417 90.6969 94.9893 91.3502 94.9891L94.9595 94.9883C95.464 94.9882 96.1674 94.7539 96.0421 94.2652C95.7449 93.1063 96.5418 91.7822 97.7049 91.5022C98.8469 91.2273 100.133 92.0093 100.428 93.1425L100.443 93.2058C100.717 94.4229 102.259 94.8093 103.506 94.7854L104.127 94.7705C105.206 94.7479 106.33 94.7829 107.052 95.5375C107.916 96.44 107.723 97.8773 107.438 99.1025L107.419 99.1839C107.016 100.885 106.586 102.579 106.129 104.266C107.016 111.401 104.82 111.775 103.442 111.419Z" fill="white"/>
<path d="M61.9839 105.462C61.457 102.032 61.4577 98.5223 61.9861 95.0931L62.0128 94.9272C62.1439 94.1489 62.3741 93.3274 63.0244 92.8986C63.5112 92.5776 64.1261 92.5536 64.7125 92.5533L69.202 92.5657C69.4064 92.5663 69.6303 92.5739 69.7839 92.7086C69.9376 92.8434 69.9334 93.1527 69.7364 93.2073C69.2662 93.3375 68.9959 93.8798 69.053 94.3645C69.1101 94.8491 69.4252 95.2687 69.7952 95.5867C70.6777 96.3453 72.0494 96.6148 73.0262 95.9823C74.0031 95.3499 74.2328 93.7205 73.3071 93.0152C75.4042 92.9725 77.5023 92.9791 79.5991 93.0349L80.3854 93.0581C80.6395 93.0664 80.9205 93.0866 81.098 93.2686C81.2313 93.4053 81.2751 93.6039 81.3053 93.7924C81.5374 95.244 81.2835 96.769 80.5936 98.0671C80.4837 98.2738 80.2292 98.5016 80.0558 98.3443C79.3191 97.6754 78.08 97.7665 77.3262 98.416C76.5723 99.0655 76.2809 100.144 76.4141 101.13C76.5423 102.079 77.2341 103.093 78.1906 103.045C78.944 103.007 79.7817 102.349 80.351 102.843L79.3919 107.129C79.2215 107.89 78.9156 108.793 78.1528 108.956C73.749 109.898 69.1317 109.827 64.759 108.75L64.5469 108.696C64.0163 108.557 63.4876 108.377 63.0736 108.023C62.353 107.406 62.128 106.399 61.9839 105.462Z" fill="white"/>
<path d="M96.5336 71.8341L107.176 72.048L107.349 72.0522C107.669 72.0623 107.991 72.0903 108.279 72.2246C108.929 72.5282 109.228 73.2766 109.425 73.9668C110.481 77.6504 110.351 81.6643 109.058 85.2717L109.004 85.4194C108.836 85.8632 108.616 86.3057 108.218 86.5554C107.891 86.761 107.493 86.8039 107.105 86.8247L107.022 86.8288C105.44 86.9039 103.852 86.8634 102.275 86.7078C103.096 86.2024 103.303 84.9718 102.782 84.1607C102.261 83.3497 101.159 83.011 100.232 83.2744C99.6663 83.435 99.1398 83.8213 98.9352 84.3723C98.7306 84.9233 98.9284 85.6309 99.4509 85.8999C99.8123 86.086 99.75 86.6719 99.4336 86.9271C99.1172 87.1823 98.6774 87.2003 98.271 87.2069L92.9317 87.2935C92.5304 87.3 92.1084 87.3017 91.7561 87.1095C91.2565 86.8369 91.0267 86.2496 90.8859 85.6981C90.5463 84.3674 90.5003 82.9625 90.7524 81.6125C91.0559 82.6787 92.3698 83.3262 93.4002 82.9174C94.4306 82.5085 94.9432 81.1364 94.4332 80.1521C93.9232 79.1679 92.5065 78.7954 91.5784 79.4014L91.5398 79.0574C91.4065 77.8517 91.3031 76.6302 91.5347 75.4426C91.7883 74.1419 92.5117 72.8645 93.6978 72.2734C94.5628 71.8424 95.5617 71.8186 96.5336 71.8341Z" fill="white"/>
<path d="M64.2572 83.805C62.7586 83.8109 61.2598 83.7493 59.7668 83.6204L59.6218 83.607C59.0871 83.5536 58.5264 83.4467 58.1761 83.049C57.7033 82.5124 57.8187 81.7033 57.9607 80.9954L57.975 80.9249C58.6096 77.8188 58.8588 74.6342 58.7157 71.4672L58.689 70.9212C58.6492 69.9393 58.712 68.8259 59.5276 68.3209C59.7758 68.1672 60.0638 68.096 60.351 68.038L60.4467 68.0191C65.6689 67.0019 71.1066 67.105 76.2865 68.3195C76.9686 68.4794 77.1584 69.4034 76.9322 70.0665C76.706 70.7295 76.2203 71.2869 76.0385 71.9635C75.8568 72.6401 76.1899 73.556 76.8901 73.5779C78.3474 73.6236 79.5826 75.1041 79.3868 76.5489C79.191 77.9937 77.6293 79.0895 76.1998 78.8026C75.8643 78.7353 75.7457 79.2311 75.7825 79.5713L76.1904 83.3429C76.257 83.9585 75.3834 84.1529 74.7661 84.1048L71.1646 83.8245C70.5987 83.7805 69.84 83.878 69.7528 84.4389C69.5357 85.8352 68.104 86.9255 66.7003 86.7636C65.2965 86.6016 64.1507 85.214 64.2572 83.805Z" fill="white"/>
<path fill-rule="evenodd" clip-rule="evenodd" d="M54.5634 107.016C54.963 107.114 55.5351 107.286 55.5033 107.664C54.8639 115.28 52.1111 113.878 49.6564 116.062C49.0078 116.639 48.6202 118.004 48.3416 118.035C49.3746 118.512 50.8738 120.426 53.4539 120.514C60.6425 120.758 63.259 115.512 63.259 115.512C63.4281 113.83 62.5751 110.801 63.6398 111.65C64.3747 112.235 64.2295 109.383 65.2333 109.667C65.5351 109.752 65.0082 111.649 65.2333 111.762C65.3579 111.825 65.5419 111.308 65.863 110.896C66.1308 110.553 66.5438 110.299 66.6292 110.374C66.6872 110.425 66.6316 110.915 66.3905 111.33C66.0517 111.913 65.485 112.474 65.5643 112.567C65.6516 112.67 67.1459 111.28 67.237 111.401C67.8416 112.208 64.0119 121.491 57.5494 123.244L57.0377 123.381C53.2705 124.382 51.6885 124.519 48.1982 123.244C46.5433 122.639 45.514 128.286 44.594 130.165C44.0132 131.351 41.192 134.259 39.9036 133.38C38.204 132.22 36.818 130.06 35.3716 128.968L35.2787 128.899C34.2929 128.192 32.0634 127.12 28.59 125.682L28.7465 125.609C29.4712 125.28 31.3378 124.474 32.771 123.244C34.8075 121.495 35.9104 117.74 37.3301 115.714C38.7317 113.715 40.6127 114.009 39.4775 113.655C39.4775 113.655 36.601 112.131 35.2787 111.992C30.8625 111.526 25.1055 113.613 23.2638 114.958C20.7368 116.803 23.2475 119.519 19.7558 118.188C18.5921 117.744 21.7111 111.997 26.0135 109.667C31.9936 106.428 37.6481 105.537 43.3172 110.693C45.6243 112.791 45.8527 114.659 46.4714 116.084L46.3448 115.735C53.1837 115.284 42.9368 108.437 51.4914 106.723C52.3899 106.543 53.3328 106.731 54.2333 106.939L54.5634 107.016Z" fill="white"/>
<ellipse cx="50.1589" cy="111.768" rx="0.534624" ry="0.534626" fill="#EB9050"/>
<ellipse cx="53.0991" cy="112.838" rx="0.534624" ry="0.53463" fill="#EB9050"/>
<path fill-rule="evenodd" clip-rule="evenodd" d="M22.0627 132.502C27.8577 136.515 20.4432 130.972 26.7749 137.577C28.0535 138.911 34.5273 131.293 35.1951 135.808C35.4387 137.455 34.9075 139.169 35.2314 140.802C35.5335 142.326 42.1604 141.411 42.6723 140.744C44.5278 138.329 38.7532 132.123 37.5423 131.131C30.7854 125.596 28.5558 125.98 22.2424 131.707L22.0627 132.502Z" fill="white"/>
<path fill-rule="evenodd" clip-rule="evenodd" d="M172.812 32.204C173.949 32.3398 175.005 32.4662 175.005 31.1414C175.005 30.8262 171.18 28.0574 170.047 29.1237C168.589 30.4949 167.431 32.0673 166.31 33.5904C163.956 36.7878 161.762 39.7677 157.289 40.2117L157.235 40.2176C155.501 40.427 158.731 41.966 162.359 40.2117C164.854 39.0054 168.172 35.1893 169.749 33.3768C170.161 32.9025 170.455 32.5653 170.582 32.4481L170.615 32.42C171.153 32.0056 172.002 32.1072 172.812 32.204ZM178.208 35.7893L181.993 38.7937C182.73 39.379 181.867 40.6403 180.927 40.7008C180.382 40.7358 179.86 40.5681 179.334 40.3995C178.954 40.2775 178.572 40.155 178.18 40.1086C175.957 39.8459 174.262 41.9392 172.884 43.7023C171.624 45.3135 170.244 46.831 168.76 48.2383L168.559 48.427L168.35 48.6195C167.156 49.7049 165.817 50.6881 164.242 50.9714C161.922 51.3885 159.619 50.201 157.724 48.7996C157.262 48.4575 156.808 48.0988 156.354 47.7398C154.947 46.6279 153.537 45.514 151.869 44.8899C150.423 45.6789 149.07 46.6323 147.834 47.7198L147.889 47.6765C149.964 49.7559 151.414 52.4501 152.008 55.3268L151.612 55.2571L151.35 55.2124C148.898 54.8013 146.273 54.5581 144.201 55.87C143.471 56.3323 142.82 56.9779 142.176 57.6163L142.176 57.6163C141.728 58.0607 141.283 58.5017 140.817 58.8748C140.936 58.945 141.057 59.018 141.18 59.0938C143.473 60.0315 145.903 60.6321 148.368 60.8703C148.745 60.9067 149.126 60.9357 149.508 60.9647C151.276 61.099 153.068 61.235 154.579 62.1228L155.109 62.4397C155.959 62.9432 156.906 63.4224 157.619 62.8394C157.824 62.6718 157.958 62.4419 158.093 62.211C158.175 62.0705 158.257 61.9296 158.355 61.8021C158.616 61.465 159.132 61.2277 159.456 61.5046L159.587 62.5347C159.683 61.872 160.322 61.3333 160.991 61.3519C161.66 61.3705 162.269 61.9439 162.327 62.6108C162.433 63.8214 161.06 64.5459 159.895 64.9313L153.857 66.8773C151.699 67.5726 149.308 67.2124 147.228 66.3111C145.291 65.4719 143.583 64.1948 141.95 62.8525L141.588 62.5532C140.355 61.5273 138.689 60.4127 137.29 61.1974C139.721 61.3452 141.493 63.4399 142.943 65.4209L143.083 65.6122C143.317 65.9358 143.559 66.2764 143.617 66.6718C143.779 67.7789 142.522 68.5137 141.459 68.8656C142.354 69.3451 141.911 70.7372 141.217 71.4788C140.208 72.5576 138.887 73.334 137.462 73.7186L137.331 74.1688C137.323 74.1991 137.319 74.215 137.32 74.2154C137.993 74.1687 138.407 75.0719 138.133 75.6876C137.859 76.3033 137.183 76.6312 136.535 76.8145C134.398 77.4188 131.984 76.9421 130.238 75.5709L129.898 75.7479C128.422 76.5117 126.896 77.222 125.255 77.4628C123.489 77.7221 121.544 77.3581 120.268 76.1104L120.352 76.2942C120.532 76.6945 120.695 77.109 120.7 77.5453C120.707 78.0488 120.447 78.5924 119.97 78.754C119.183 79.0206 118.495 78.1794 118.087 77.4558C117.863 78.0129 118.094 78.6398 118.318 79.2494C118.574 79.9447 118.821 80.6175 118.377 81.1382C117.913 81.6805 117.034 81.5416 116.397 81.2218C114.009 80.0238 112.887 77.0085 113.404 74.3872C113.921 71.7659 115.806 69.5707 118.051 68.1211C116.527 67.0042 115.412 65.3413 114.958 63.5073C115.079 63.6634 115.619 63.1613 116.387 62.448C117.79 61.1432 119.955 59.1317 121.703 59.1505C122.038 59.154 122.579 59.4132 123.109 59.6671C123.492 59.8509 123.87 60.032 124.16 60.1111C124.184 60.0802 124.213 60.0522 124.247 60.0277L123.916 59.7901C123.25 59.3174 122.555 58.8727 121.767 58.6768C120.848 58.4483 119.76 58.6363 119.174 59.3809C117.742 61.2015 115.927 62.7198 113.883 63.8085L115.095 66.0461C114.594 66.2853 113.97 66.2416 113.505 65.9397L113.448 65.9008L113.484 65.9456C114.182 66.8561 113.568 68.4436 112.426 68.6236C111.266 69.1102 110.096 67.6568 110.21 66.4043C110.291 65.5264 110.725 64.7487 111.161 63.9693C111.347 63.6367 111.533 63.3037 111.692 62.9626C112.228 61.8105 112.464 60.5306 112.698 59.2589C113.019 57.5157 113.337 55.7879 114.423 54.4254C115.183 53.4712 116.247 52.8076 117.339 52.2634C121.672 50.1037 126.8 49.5873 131.477 50.8396C132.274 47.9857 133.853 45.3544 135.997 43.309L136.124 43.1891C136.945 42.4335 137.965 41.7584 139.053 41.8824L139.139 41.8938C140.219 42.0586 141.158 41.225 141.943 40.4535L142.185 40.2159L142.374 40.0332C143.933 38.5452 145.741 37.1718 147.87 37.0237C149.763 36.8919 151.576 37.7613 153.211 38.7266C155.06 39.8187 156.819 41.0635 158.464 42.4441L158.753 42.6891L158.865 42.7853L158.984 42.8878L158.986 42.8888C160.537 44.2214 162.235 45.6795 164.254 45.5587C166.325 45.4348 167.837 43.7161 169.231 42.1323C169.344 42.0041 169.456 41.8769 169.567 41.7515C171.287 39.816 173.244 38.1121 175.226 36.443L176.076 35.7293C176.333 35.5136 176.61 35.2891 176.943 35.2459C177.411 35.1851 177.838 35.4957 178.208 35.7893ZM140.786 68.597C140.365 68.5132 139.791 68.5498 139.063 68.7069C139.542 68.7087 139.946 68.7001 140.273 68.6812C140.432 68.6616 140.589 68.6369 140.744 68.6058L140.786 68.597ZM125.2 59.3296C125.353 59.1727 125.515 59.0073 125.693 58.8656L125.696 58.8642L125.698 58.8626C126.031 58.6873 126.407 58.5984 126.785 58.6343C128.067 58.7561 129.038 60.1198 128.87 61.3968C128.194 63.0741 126.519 64.0311 124.862 64.9777C123.841 65.5608 122.828 66.1399 122.059 66.881C122.252 66.5627 122.463 66.3087 122.677 66.1527C123.346 65.666 124.045 65.2442 124.704 64.8466C125.258 64.5125 125.783 64.1955 126.238 63.8714C126.955 63.3615 127.436 62.8769 127.808 62.5014C128.093 62.2143 128.315 61.991 128.53 61.8688C128.548 61.8588 129.356 60.2209 127.402 59.1503C125.927 58.342 125.27 59.3646 124.917 59.9141C124.803 60.0924 124.72 60.2209 124.652 60.2209C124.634 60.2209 124.609 60.2182 124.579 60.2128C124.627 60.0388 124.701 59.8709 124.796 59.7135L124.797 59.7127L124.798 59.7114C124.93 59.6073 125.062 59.472 125.2 59.3296L125.2 59.3296ZM124.798 59.7114L124.797 59.7124L124.796 59.7135L124.748 59.7495C124.651 59.8201 124.554 59.8721 124.453 59.8959C124.25 59.9438 123.766 59.5729 123.357 59.2588C123.112 59.0709 122.894 58.9034 122.778 58.8578C122.012 58.5576 121.922 58.5533 121.391 58.5281C121.302 58.5239 121.199 58.519 121.079 58.512L120.859 58.4982C120.811 58.4955 120.757 58.4932 120.701 58.4908C120.261 58.4724 119.627 58.4458 119.754 58.1036C122.016 51.9814 131.68 50.6492 130.082 57.5697C129.95 58.1419 129.603 58.6428 129.256 59.1437C129.083 59.3941 128.91 59.6445 128.763 59.9038C128.138 59.0164 127.458 58.5486 126.722 58.5004C126.312 58.4736 125.983 58.6377 125.698 58.8626L125.696 58.8639L125.693 58.8656L125.618 58.9074C125.283 59.1015 124.995 59.3833 124.798 59.7114ZM143.148 53.4149L143.15 53.4114C142.619 54.4225 142.047 55.6395 141.437 57.0623C141.896 55.7981 142.471 54.5768 143.148 53.4149ZM147.458 54.3477L147.384 54.3505C146.794 54.3752 146.265 54.4635 145.796 54.6152C145.277 54.7835 144.724 55.065 144.138 55.4597C145.164 54.8916 146.297 54.5116 147.458 54.3477Z" fill="white"/>
<path fill-rule="evenodd" clip-rule="evenodd" d="M117.302 79.9882C116.838 80.5305 116.167 80.3556 115.551 79.7558C114.264 78.5006 113.746 76.0786 114.264 73.4572C114.781 70.8359 116.798 69.7559 119.042 68.3062C118.035 67.8915 116.21 65.2613 116.027 62.7054C116.648 63.5065 116.681 64.9441 117.302 65.7452C117.891 66.5053 119.068 67.4307 119.657 68.1908C119.732 68.2879 119.797 68.451 119.69 68.5116C117.539 69.7337 116.144 70.1381 114.875 73.4571C113.606 76.7761 116.183 79.8462 116.525 79.7558C116.947 79.6444 116.797 79.0848 116.555 78.722C115.872 77.6987 116.522 76.3341 117.079 75.2369C117.377 75.5708 116.661 76.5285 116.812 77.5242C116.959 78.4966 117.714 79.5054 117.302 79.9882Z" fill="#E0E0E0"/>
<ellipse cx="126.076" cy="68.9986" rx="0.534626" ry="0.53463" fill="#EB9050"/>
<ellipse cx="124.205" cy="66.8598" rx="0.534637" ry="0.53463" fill="#EB9050"/>
<path d="M44.254 72.1106C44.563 72.6875 44.0772 73.5123 43.4228 73.5216C42.8623 70.3713 42.258 67.1115 40.4345 64.4822C36.9427 59.4476 29.7473 57.7941 26.7578 52.446C24.7223 53.8948 21.6098 53.5255 19.9698 51.6406C18.9499 50.4683 17.1721 50.3245 15.6404 50.586C14.1088 50.8475 12.6124 51.4256 11.0593 51.3765C10.3854 51.3552 9.65123 51.174 9.25902 50.6256C8.86682 50.0771 9.0934 49.112 9.76083 49.0164C12.6685 48.6002 15.5762 48.184 18.4839 47.7678C18.7122 47.7352 18.9545 47.6963 19.1279 47.5441C19.324 47.3719 19.3856 47.0967 19.4365 46.8407C19.8574 44.7222 20.1607 42.1967 18.6007 40.7028C17.3079 39.4646 15.2673 39.5074 13.5109 39.8528C11.7544 40.1982 9.94421 40.7665 8.21319 40.3104C6.48217 39.8543 5.03455 37.798 5.96772 36.2704C6.59274 35.2472 5.88798 33.8827 4.92388 33.1699C3.95978 32.4572 2.75998 32.1061 1.82551 31.3549C0.891033 30.6038 0.297981 29.1543 1.04231 28.2144C1.36967 27.801 1.88224 27.5832 2.38511 27.4246C4.04944 26.8996 5.90524 26.8595 7.50954 27.5465C9.11384 28.2334 10.4167 29.7057 10.6777 31.4312C10.8904 32.837 10.4863 34.4724 11.4156 35.5484C12.6306 36.9552 14.8762 36.1662 16.735 36.1493C18.6361 36.1319 20.516 37.1399 21.5537 38.7329C22.5914 40.3259 22.7535 42.4529 21.9693 44.1848C24.1775 41.938 27.1517 40.2144 30.2999 40.3317C33.2077 40.4401 35.8794 42.1127 37.8242 44.2771C39.7689 46.4416 41.0956 49.0777 42.3965 51.6805C42.8811 52.6502 44.1105 53.1757 45.1463 52.8561C46.1822 52.5364 46.9016 51.4095 46.7555 50.3353C47.6583 50.5321 47.7523 51.7524 47.7801 52.676C47.8386 54.6164 48.5412 56.532 49.7513 58.0499C50.1561 57.3032 50.465 56.5045 50.6679 55.6797C51.5512 56.6952 51.8807 58.1649 51.5157 59.4603C51.1506 60.7557 50.102 61.8371 48.8184 62.2418C48.1354 62.4572 47.3002 62.5607 46.9613 63.1916C48.2421 65.4344 49.3437 67.7795 50.2523 70.1971C50.7395 71.4936 51.091 73.1618 50.0655 74.0927C48.8799 73.2173 48.2062 71.8288 47.5771 70.4961C46.5959 68.4172 45.6147 66.3382 44.6334 64.2593" fill="white"/>
<path d="M49.9797 58.2063C48.1751 56.4323 47.2328 53.8184 47.4905 51.3011C46.7908 52.034 46.017 52.763 45.0419 53.0387C44.0668 53.3144 42.8463 52.9788 42.4364 52.0521C41.2725 49.4211 39.9964 46.7964 38.1204 44.6153C36.2445 42.4342 33.6874 40.7137 30.8301 40.379C27.9727 40.0444 24.8475 41.321 23.4849 43.8547C23.1808 44.4201 22.2211 44.0988 22.0016 43.4955C21.8303 43.0242 21.9275 42.5177 22.0238 42.016C22.0508 41.8753 22.0777 41.735 22.0986 41.5959C22.4768 39.0811 20.4888 36.4557 17.9656 36.1379C17.2152 36.0434 16.4616 36.1278 15.7069 36.2123C15.3131 36.2565 14.919 36.3006 14.5248 36.3194C13.3752 36.3742 12.1034 36.1512 11.3675 35.2663C10.7514 34.5255 10.6687 33.5441 10.5857 32.5581C10.5497 32.1319 10.5138 31.7047 10.4346 31.2958C10.1136 29.6381 8.97243 28.1599 7.44994 27.4297C5.92745 26.6995 4.0604 26.7349 2.56668 27.5223C2.12427 27.7555 1.68422 28.0926 1.5674 28.5789C1.38472 29.3393 2.05883 30.0246 2.71582 30.4488C3.06486 30.6742 3.42843 30.8774 3.79178 31.0804C4.36657 31.4017 4.94082 31.7226 5.45617 32.1305C6.2973 32.7962 6.98954 33.7781 6.93963 34.8496C6.92211 35.2259 6.81463 35.5956 6.70777 35.9632C6.55934 36.4738 6.41211 36.9802 6.50886 37.4945C6.66205 38.3087 7.41381 38.9045 8.21279 39.1239C9.01177 39.3433 9.85865 39.2588 10.6827 39.1725L14.5072 38.7724C15.9463 38.6218 17.5142 38.4999 18.7287 39.2865C19.74 39.9416 20.3065 41.1305 20.484 42.3223C20.6615 43.5142 20.4995 44.7274 20.3375 45.9214C20.2321 46.6982 19.9251 47.6744 19.1426 47.7196C15.8576 47.9097 12.5929 48.4468 9.42028 49.3192C10.9032 50.6168 13.1638 50.1513 15.0835 49.7064C17.0032 49.2615 19.3881 49.0694 20.5808 50.6381C22.0689 52.5954 25.3805 52.7525 27.0473 50.9448C28.7141 49.1372 28.2895 45.8492 26.2182 44.5243C27.4419 44.7072 28.3569 45.8565 28.5885 47.072C28.8201 48.2874 28.4907 49.5426 28.0192 50.6865L28.0023 50.7273C27.8841 51.0132 27.7617 51.3094 27.7858 51.6166C27.8049 51.8595 27.9146 52.0852 28.0324 52.2984C29.3405 54.6657 31.6917 56.0842 34.0542 57.5093C35.1293 58.1579 36.2068 58.8079 37.1893 59.5493C41.1567 62.5434 43.6927 67.3554 43.9198 72.3207L44.5346 71.5097C44.8437 72.0865 44.3578 72.9114 43.7035 72.9207C43.143 69.7704 42.5387 66.5105 40.7151 63.8812C39.0608 61.4959 36.575 59.8695 34.0991 58.2496C31.3493 56.4505 28.6116 54.6593 27.0385 51.8451C25.003 53.2939 21.8905 52.9245 20.2505 51.0396C19.2306 49.8674 17.4528 49.7235 15.9211 49.985C15.4057 50.0731 14.8942 50.1969 14.3832 50.3207C13.3759 50.5647 12.3704 50.8082 11.34 50.7756C10.6661 50.7542 9.93191 50.573 9.5397 50.0246C9.1475 49.4762 9.37408 48.511 10.0415 48.4155L18.7646 47.1669C18.9929 47.1342 19.2352 47.0953 19.4086 46.9432C19.6047 46.771 19.6663 46.4957 19.7171 46.2397C20.1381 44.1212 20.4414 41.5957 18.8814 40.1018C17.5886 38.8637 15.548 38.9064 13.7916 39.2518C13.4871 39.3117 13.181 39.3783 12.8739 39.4451C11.4099 39.7635 9.92481 40.0865 8.49387 39.7095C6.76285 39.2534 5.31522 37.1971 6.2484 35.6695C6.87341 34.6463 6.16866 33.2817 5.20456 32.569C4.74787 32.2314 4.23828 31.9749 3.72907 31.7186C3.16331 31.4338 2.598 31.1493 2.10619 30.754C1.17171 30.0028 0.578659 28.5534 1.32299 27.6135C1.65034 27.2001 2.16292 26.9823 2.66579 26.8236C4.33012 26.2986 6.18592 26.2586 7.79022 26.9455C9.39452 27.6324 10.6973 29.1047 10.9584 30.8303C11.0256 31.2747 11.0312 31.7421 11.0368 32.2075C11.0488 33.2142 11.0608 34.2117 11.6963 34.9475C12.5961 35.9893 14.0611 35.8269 15.5156 35.6656C16.0252 35.6091 16.5335 35.5527 17.0157 35.5483C18.9168 35.531 20.7967 36.5389 21.8344 38.132C22.8721 39.725 23.0342 41.8519 22.2499 43.5838C24.4582 41.337 27.4324 39.6135 30.5806 39.7308C33.4883 39.8392 36.1601 41.5117 38.1048 43.6762C40.0496 45.8406 41.3763 48.4767 42.6772 51.0795C43.1618 52.0492 44.3912 52.5748 45.427 52.2551C46.4629 51.9355 47.1823 50.8085 47.0362 49.7344C47.939 49.9311 48.033 51.1515 48.0608 52.075C48.1193 54.0154 48.8219 55.931 50.032 57.449C50.4368 56.7023 50.7457 55.9036 50.9486 55.0788C51.8319 56.0942 52.1614 57.564 51.7963 58.8594C51.4312 60.1548 50.3827 61.2361 49.0991 61.6409C48.9709 61.6813 48.8373 61.7178 48.7026 61.7546L48.7022 61.7547C48.1197 61.9138 47.5172 62.0784 47.2419 62.5907C48.5228 64.8335 49.6244 67.1785 50.533 69.5962C51.0202 70.8927 51.3717 72.5608 50.3462 73.4917C49.1606 72.6163 48.4868 71.2279 47.8578 69.8951L44.9141 63.6584C46.8582 65.9676 48.2963 68.7005 49.0988 71.6104C49.164 71.8466 49.2472 72.1121 49.4678 72.219C49.6751 72.3194 49.983 72.1046 49.9043 71.9105L50.4522 72.9228C50.1676 69.4227 48.9195 66.0058 46.8811 63.1463C43.9499 63.7041 40.742 62.1727 39.3326 59.5428L42.0605 61.4661C42.9903 62.1217 44.009 62.8055 45.1462 62.7715C45.8915 62.7493 46.5879 62.4171 47.2587 62.0914C48.4295 61.5231 49.6359 60.9275 50.4768 59.9343C51.3177 58.9411 51.6966 57.4332 51.0204 56.3213C51.0346 57.0728 50.6231 57.818 49.9797 58.2063Z" fill="#1E1F26"/>
<path d="M49.8843 71.8737L49.9043 71.9105C49.8992 71.8981 49.8926 71.8858 49.8843 71.8737Z" fill="#1E1F26"/>
<path d="M42.559 56.0286C42.462 55.8389 42.3978 55.713 42.3701 55.7169C42.3176 56.4066 42.7948 57.011 43.2445 57.5365C43.4027 57.7213 43.7831 57.8508 43.8087 57.6089C43.2336 57.3492 42.7975 56.4955 42.559 56.0286Z" fill="#1E1F26"/>
<path d="M41.6557 60.1361C42.2466 60.5156 44.0244 60.2991 43.7275 59.8641C43.7061 59.8327 43.5708 59.8757 43.3732 59.9385C43.1696 60.0033 42.8998 60.0891 42.6204 60.1361C42.4296 60.1681 42.2288 60.1525 42.0487 60.1385C41.8969 60.1267 41.7598 60.1161 41.6557 60.1361Z" fill="#1E1F26"/>
<path d="M41.7238 56.5399C41.7238 57.4264 42.5931 58.3689 43.3008 58.2476C43.3762 58.2346 43.2564 58.1487 43.0527 58.0025C42.6523 57.7152 41.9277 57.1953 41.7238 56.5399Z" fill="#1E1F26"/>
<path d="M44.8937 60.2629C44.4664 60.365 44.8937 61.9543 45.8362 61.9543C45.9701 61.9543 45.9086 61.9195 45.7752 61.844C45.5988 61.7441 45.2965 61.5729 45.1538 61.3168C45.0253 61.0862 45.0153 60.7901 45.0078 60.5691C45.0007 60.3589 44.9959 60.2166 44.8937 60.2629Z" fill="#1E1F26"/>
<path d="M47.3355 60.311C47.2819 60.081 47.0931 59.9042 46.8862 59.7902C46.7184 59.6978 46.4291 59.6984 46.4171 59.8896C46.4152 59.9197 46.4646 59.9367 46.538 59.9619C46.6334 59.9948 46.7694 60.0416 46.8862 60.1492C47.1636 60.4048 47.0982 60.5176 47.0373 60.6225C46.9959 60.6938 46.9566 60.7615 47.0291 60.868C47.2604 60.82 47.389 60.5411 47.3355 60.311Z" fill="#1E1F26"/>
<path d="M45.0708 57.7995C45.0433 57.7739 45.0754 57.7516 45.122 57.7192C45.218 57.6525 45.3755 57.543 45.2038 57.274C45.0764 57.0746 44.9391 57.0141 44.8251 56.9639C44.7263 56.9204 44.6448 56.8845 44.6024 56.7724C45.0815 56.6611 45.59 57.1584 45.4894 57.64C45.4714 57.7262 45.4327 57.8151 45.3563 57.859C45.2562 57.9165 45.156 57.8786 45.0708 57.7995Z" fill="#1E1F26"/>
<path d="M44.1526 60.6868C43.8571 60.7861 44.4059 62.0967 44.9609 62.2583C44.9825 62.244 44.9323 62.172 44.8499 62.0537C44.7296 61.8811 44.5408 61.61 44.4059 61.2761C44.2973 61.0071 44.3153 60.8335 44.3251 60.7386C44.3358 60.6348 44.3368 60.6249 44.1526 60.6868Z" fill="#1E1F26"/>
<path d="M45.1802 72.7162C45.2802 72.8479 45.509 72.79 45.5971 72.6501C45.6852 72.5102 45.6741 72.3319 45.6582 72.1673C45.4278 69.7873 44.8101 67.4452 43.8368 65.2611C43.5596 64.639 43.268 63.8633 43.6925 63.3307C44.6737 65.7831 45.6632 68.266 46.0206 70.8832C46.1181 71.5975 46.1531 72.3797 45.7549 72.9807C45.3566 73.5816 44.3643 73.8121 43.9219 73.2429C44.6024 73.1007 45.1231 72.4116 45.074 71.7181C45.3884 71.9324 45.4424 72.4406 45.1802 72.7162Z" fill="#1E1F26"/>
<path fill-rule="evenodd" clip-rule="evenodd" d="M169.351 34.6537C169.943 33.6095 170.882 32.6485 172.074 32.5022C172.399 32.4623 172.73 32.4847 173.06 32.5071C173.506 32.5374 173.95 32.5675 174.375 32.4434C175.114 32.2274 175.63 31.1257 174.979 30.7128C173.767 29.9438 172.464 29.3189 171.106 28.8557C170.663 28.7047 170.068 28.6199 169.821 29.0167C168.22 31.582 166.509 34.1225 164.264 36.1493C162.02 38.1762 159.171 39.6679 156.149 39.7692C156.022 40.0289 156.435 40.2051 156.724 40.1926C160.805 40.0159 164.378 37.2784 166.868 34.0404L166.962 33.9183C167.263 33.5303 167.597 33.1392 168.066 33.0157C168.584 32.8791 169.256 33.3149 169.112 33.8312C167.894 38.2141 164.046 41.7526 159.577 42.6007C159.43 43.0891 160.255 43.1815 160.726 42.9851C163.455 41.8461 166.304 40.4524 167.803 37.9027C168.117 37.3683 168.362 36.7978 168.607 36.2272C168.836 35.693 169.065 35.1586 169.351 34.6537ZM170.809 29.9439L170.913 29.9755C171.559 30.1802 172.192 30.426 172.807 30.7109C173.077 30.8358 173.359 30.9838 173.5 31.2457C173.641 31.5075 173.55 31.9092 173.261 31.9805C173.065 32.0333 172.976 31.7523 172.928 31.5548C172.881 31.3572 172.573 31.1815 172.524 31.3786C172.537 31.5696 172.461 31.7649 172.322 31.8968C172.185 31.9245 172.075 31.7792 172.039 31.6442C172.03 31.6101 172.023 31.5748 172.016 31.5394C171.995 31.435 171.974 31.3303 171.903 31.2539C171.808 31.1516 171.58 31.1894 171.593 31.3284C171.63 31.701 171.437 32.0867 171.116 32.2805C170.796 32.4742 170.365 32.4663 170.052 32.261C169.668 32.0097 169.241 31.8267 168.794 31.7235L169.645 30.2893C169.71 30.1815 169.781 30.076 169.88 29.9995C170.136 29.8021 170.491 29.8527 170.809 29.9439ZM170.046 32.9392C169.418 32.9917 168.772 32.7539 168.328 32.307L168.396 32.2952C169.007 32.2015 169.661 32.4547 170.046 32.9392Z" fill="#1E1F26"/>
<path d="M130.237 75.5715C131.984 76.9428 134.398 77.4194 136.535 76.8152C137.183 76.6318 137.859 76.304 138.133 75.6882C138.407 75.0725 137.992 74.1693 137.32 74.2161C137.201 74.164 137.105 74.3553 137.167 74.469C137.208 74.5445 137.28 74.5938 137.352 74.6434C137.388 74.6686 137.425 74.6939 137.458 74.7227C137.726 74.9588 137.69 75.4143 137.468 75.6943C137.246 75.9744 136.894 76.1151 136.551 76.2168C134.561 76.8073 132.307 76.4267 130.622 75.2158C131.12 75.0722 131.529 74.6493 131.655 74.1457L129.909 75.0678C128.429 75.8491 126.916 76.6419 125.265 76.9097C123.613 77.1776 121.768 76.8324 120.62 75.6155C120.332 75.3106 119.788 75.6839 119.748 76.1012C119.721 76.3862 119.821 76.6576 119.922 76.9301C119.969 77.0566 120.016 77.1835 120.05 77.3118C120.158 77.7169 120.058 78.263 119.652 78.3673L117.886 76.3875C117.329 77.4847 117.412 78.8795 118.096 79.9029C118.338 80.2656 118.022 80.795 117.6 80.9064C117.178 81.0178 116.735 80.8342 116.364 80.6055C114.257 79.3082 113.407 76.4776 114.018 74.0796C114.629 71.6816 116.469 69.7343 118.621 68.5122C118.727 68.4516 118.663 68.2885 118.587 68.1915C118.293 67.8114 117.918 67.4961 117.543 67.1809C117.169 66.8656 116.794 66.5503 116.499 66.1702C116.189 65.7697 115.959 65.3044 115.728 64.8391C115.498 64.3738 115.268 63.9085 114.958 63.508C115.412 65.3419 116.526 67.0048 118.05 68.1217C115.806 69.5714 113.921 71.7665 113.404 74.3879C112.886 77.0092 114.008 80.0245 116.397 81.2225C117.034 81.5423 117.913 81.6812 118.376 81.1389C118.821 80.6181 118.574 79.9454 118.318 79.25C118.093 78.6405 117.863 78.0135 118.086 77.4564C118.495 78.18 119.182 79.0212 119.969 78.7546C120.446 78.5931 120.707 78.0494 120.7 77.546C120.693 77.0425 120.478 76.5682 120.267 76.111C121.544 77.3587 123.489 77.7228 125.255 77.4635C127.022 77.2041 128.656 76.4003 130.237 75.5715Z" fill="#1E1F26"/>
<path d="M131.813 52.7808C131.824 52.7191 131.829 52.6589 131.83 52.6002C131.824 52.6603 131.818 52.7205 131.813 52.7808Z" fill="#1E1F26"/>
<path d="M123.623 68.3862C123.79 68.0191 124.221 67.7543 124.604 67.8777C124.821 67.9473 124.617 68.0553 124.369 68.1866C124.177 68.2881 123.959 68.4036 123.888 68.5261C123.725 68.8101 123.67 69.1358 123.63 69.5678C123.503 69.1848 123.456 68.7534 123.623 68.3862Z" fill="#1E1F26"/>
<path d="M125.83 67.3208C125.472 66.8683 124.839 66.6527 124.279 66.7922C125.747 67.224 125.836 68.0467 125.891 68.5617C125.91 68.7359 125.925 68.875 125.989 68.9516C126.253 68.4385 126.188 67.7734 125.83 67.3208Z" fill="#1E1F26"/>
<path d="M125.199 71.1729C124.233 71.576 123.616 70.9915 123.793 70.7703C123.957 70.5659 123.997 70.6221 124.078 70.7338C124.132 70.8094 124.204 70.9102 124.345 70.9731C124.512 71.0475 124.792 71.0639 125.001 71.0762C125.231 71.0897 125.377 71.0982 125.199 71.1729Z" fill="#1E1F26"/>
<path d="M124.686 71.9948C125.98 72.1056 126.368 71.202 125.749 71.5102C125.373 71.6977 124.962 71.7335 124.698 71.7565C124.527 71.7713 124.418 71.7809 124.418 71.8222C124.416 71.9398 124.569 71.9848 124.686 71.9948Z" fill="#1E1F26"/>
<path d="M122.73 69.9849C122.504 70.0285 122.165 70.0226 121.932 69.7952C121.7 69.5678 121.821 69.1916 121.932 69.0803C121.989 69.0238 122.023 69.1442 122.063 69.2893C122.102 69.4304 122.147 69.595 122.227 69.6432C122.352 69.7184 122.538 69.7477 122.672 69.7689C122.731 69.7781 122.78 69.7858 122.809 69.7952C122.936 69.8351 122.868 69.9583 122.73 69.9849Z" fill="#1E1F26"/>
<path d="M121.73 70.5644C121.823 70.6769 122.252 70.7358 122.139 70.5644C122.119 70.5337 122.096 70.5278 122.065 70.52C122.019 70.5086 121.957 70.493 121.864 70.388C121.817 70.3339 121.797 70.2489 121.78 70.1751C121.762 70.0952 121.746 70.0285 121.702 70.0285C121.547 70.0285 121.638 70.4519 121.73 70.5644Z" fill="#1E1F26"/>
<path fill-rule="evenodd" clip-rule="evenodd" d="M140.88 71.0324C141.271 70.6935 141.675 70.1751 141.444 69.7129C141.248 69.3208 140.767 69.28 140.287 69.2393C139.806 69.1984 139.325 69.1576 139.131 68.7629L139.331 68.7547C140.438 68.7054 141.621 68.578 142.397 67.8032C143.221 66.9813 143.004 65.1929 141.849 65.0555L136.589 64.4298C138.075 64.0432 139.647 63.9938 141.155 64.2865C140.959 62.9395 139.469 62.1438 138.11 62.0689C137.347 62.0269 136.591 62.1398 135.834 62.2529C135.241 62.3414 134.647 62.43 134.05 62.4445C132.168 62.4899 130.477 63.7944 129.568 65.442C129.244 66.0296 128.963 67.0132 128.678 68.0139C128.526 68.546 128.372 69.083 128.211 69.5678C128.108 69.8754 127.818 69.8455 127.818 69.8455C127.765 71.822 125.777 73.5205 123.817 73.2633C121.856 73.0062 120.373 70.8524 120.832 68.9292C121.288 67.0203 123.064 66.0056 124.861 64.9786C126.518 64.032 128.193 63.0749 128.87 61.3976C129.038 60.1206 128.067 58.7569 126.785 58.6351C125.503 58.5133 124.252 59.827 124.559 61.0778C124.083 61.0541 123.861 60.3087 124.246 60.0284L123.916 59.7907C123.25 59.318 122.555 58.8734 121.767 58.6775C120.848 58.449 119.759 58.637 119.174 59.3815C117.742 61.2021 115.927 62.7204 113.882 63.8091L115.094 66.0467C114.573 66.2959 113.917 66.2381 113.447 65.9013C114.202 66.8034 113.587 68.4412 112.425 68.6242C111.266 69.1109 110.096 67.6574 110.21 66.4049C110.29 65.5271 110.725 64.7493 111.161 63.97C111.347 63.6373 111.533 63.3044 111.692 62.9633C112.228 61.8112 112.463 60.5313 112.698 59.2596C113.019 57.5165 113.337 55.7886 114.422 54.4261C115.182 53.4718 116.247 52.8083 117.339 52.2641C121.672 50.1043 126.8 49.5879 131.477 50.8402C132.273 47.9863 133.853 45.355 135.996 43.3096L136.124 43.1898C136.944 42.4341 137.964 41.7591 139.052 41.883L139.138 41.8945C140.218 42.0592 141.157 41.2257 141.942 40.4542L142.185 40.2166C143.785 38.66 145.654 37.1785 147.869 37.0243C149.763 36.8925 151.576 37.762 153.21 38.7272C155.06 39.8193 156.819 41.0641 158.464 42.4447L158.753 42.6898C158.83 42.7559 158.908 42.8225 158.985 42.8895C160.537 44.2221 162.234 45.6802 164.254 45.5593C166.324 45.4355 167.837 43.7167 169.231 42.1329C169.344 42.0048 169.456 41.8775 169.567 41.7521C171.286 39.8166 173.244 38.1127 175.226 36.4437L176.076 35.7299C176.333 35.5143 176.61 35.2897 176.943 35.2465C177.411 35.1857 177.838 35.4964 178.208 35.79L181.993 38.7943C182.73 39.3796 181.867 40.641 180.927 40.7014C180.382 40.7365 179.859 40.5687 179.334 40.4001C178.954 40.2781 178.572 40.1557 178.18 40.1093C175.957 39.8465 174.262 41.9398 172.883 43.7029C171.623 45.3141 170.244 46.8317 168.759 48.239L168.559 48.4276C167.312 49.5875 165.909 50.6721 164.241 50.972C161.922 51.3892 159.618 50.2016 157.724 48.8002C157.262 48.4583 156.808 48.0996 156.354 47.7407L156.353 47.7404C154.946 46.6285 153.537 45.5147 151.869 44.8905C146.69 47.716 142.703 52.6495 141.027 58.3053C143.199 54.9981 147.7 53.4354 151.454 54.6859L147.889 47.6771C149.964 49.7565 151.414 52.4507 152.008 55.3274L151.611 55.2577C149.086 54.8213 146.346 54.5119 144.201 55.8706C143.471 56.333 142.819 56.9786 142.176 57.6169C140.982 58.8005 139.813 59.9592 138.213 59.8786C139.762 60.6554 141.165 61.6773 142.568 62.7001L142.568 62.7003C143.333 63.2577 144.099 63.8155 144.888 64.3338L145.134 64.493C147.316 65.8878 149.82 66.9807 152.39 66.7463C153.961 66.6029 155.782 65.4158 155.406 63.8832C155.148 62.8278 153.983 62.2904 152.928 62.0269C151.599 61.6946 150.197 61.5469 148.8 61.3998C146.029 61.1078 143.283 60.8185 141.18 59.0944C143.473 60.0322 145.903 60.6328 148.368 60.871C148.745 60.9074 149.126 60.9363 149.508 60.9653C151.276 61.0996 153.067 61.2356 154.579 62.1235L155.109 62.4403C155.959 62.9439 156.906 63.4231 157.619 62.8401C157.824 62.6724 157.958 62.4425 158.092 62.2116C158.174 62.0711 158.257 61.9302 158.355 61.8027C158.616 61.4656 159.132 61.2284 159.456 61.5052L159.587 62.5353C159.682 61.8727 160.322 61.334 160.991 61.3526C161.66 61.3712 162.269 61.9446 162.327 62.6115C162.433 63.8221 161.06 64.5465 159.895 64.932L153.857 66.878C151.699 67.5732 149.307 67.2131 147.227 66.3117C145.291 65.4726 143.583 64.1954 141.95 62.8531L141.588 62.5539C140.355 61.5279 138.689 60.4133 137.29 61.1981C139.72 61.3459 141.493 63.4405 142.943 65.4216L143.082 65.6129C143.317 65.9364 143.559 66.277 143.617 66.6724C143.779 67.7795 142.521 68.5144 141.459 68.8663C142.354 69.3457 141.911 70.7378 141.217 71.4794C139.727 73.0732 137.554 74.0069 135.372 73.9922C137.397 73.4291 139.293 72.4101 140.88 71.0324ZM163.453 50.5744C165.888 50.4836 167.794 48.5377 169.425 46.7272L175.378 40.1173C174.863 39.3739 173.805 39.1628 172.937 39.4177C172.069 39.6726 171.361 40.3004 170.751 40.9679C170.328 41.4306 169.936 41.9209 169.544 42.411L169.543 42.4115C169.058 43.0186 168.572 43.6255 168.028 44.1797C167.044 45.1815 165.806 46.026 164.408 46.1573C162.115 46.3727 160.18 44.7052 158.406 43.1768L158.397 43.1683C158.266 43.0558 158.136 42.9441 158.007 42.8339C156.141 41.2391 154.1 39.8496 151.932 38.6984C150.906 38.1538 149.819 37.6535 148.66 37.5858C147.063 37.4925 145.525 38.2351 144.239 39.1861C143.591 39.6653 142.987 40.1999 142.383 40.7345L142.383 40.7349C141.788 41.2612 141.194 41.7875 140.557 42.261C143.651 42.3242 146.705 43.5885 148.938 45.7306C148.387 45.9684 147.809 45.5562 147.331 45.1683L147.234 45.0886C145.234 43.4427 142.569 42.631 139.991 42.8829C142.973 43.2822 146.003 44.2727 148.122 46.4091C147.904 46.7241 147.418 46.4873 147.121 46.2462C145.264 44.7388 142.979 43.7649 140.605 43.4693C140.232 43.4229 139.834 43.3971 139.501 43.5691C139.167 43.7412 138.945 44.1822 139.134 44.5064L141.186 48.0174C141.326 48.256 141.423 48.6381 141.168 48.744C136.657 50.6152 133.073 54.5929 131.68 59.2737C132.522 59.3937 133.308 59.8726 133.8 60.5666C134.101 60.9903 134.703 60.6691 135.191 60.4084L135.223 60.391C135.262 60.3707 135.299 60.3508 135.335 60.3319C135.751 60.1154 136.217 60.0457 136.684 59.9757C136.917 59.9408 137.15 59.9059 137.378 59.8526C139.003 59.4725 140.266 58.1673 141.12 56.7326C141.61 55.907 141.996 55.0266 142.381 54.1457C142.666 53.4957 142.951 52.8455 143.278 52.2168C145.037 48.8369 148.064 46.136 151.622 44.7717C151.211 44.2412 150.672 43.7549 150.01 43.6505C149.347 43.5461 148.575 43.9706 148.51 44.6381C148.205 44.1922 148.375 43.4977 148.851 43.2425L146.029 42.3543C147.811 41.8933 149.639 42.7911 151.229 43.7205C153.281 44.9207 155.275 46.222 157.2 47.6181L157.611 47.9187L157.738 48.0124C159.461 49.2816 161.323 50.6538 163.453 50.5744ZM115.032 54.4531C113.869 55.7056 113.558 57.4068 113.244 59.1272C113.06 60.1337 112.875 61.1467 112.517 62.0803C112.965 62.7336 113.904 62.8947 114.659 62.6553C115.414 62.4159 116.024 61.8631 116.588 61.3068C117.989 59.9257 119.271 58.4246 120.417 56.8254L120.899 56.1476C121.549 55.2427 122.244 54.3612 123.212 53.8353C125.043 52.8412 127.291 53.3859 129.295 53.9532L129.417 53.9886C129.763 54.0929 130.118 54.2373 130.284 54.5508C130.432 54.8315 130.385 55.1712 130.335 55.4848L129.781 58.9054C130.899 59.1686 131.665 57.8708 132.148 56.8139L132.175 56.7543C133.875 52.9842 137.039 49.8976 140.851 48.2923C139.413 46.6429 138.464 44.5722 138.153 42.4061C134.65 44.6114 132.253 48.4839 131.83 52.6002C131.847 51.6157 130.562 51.034 129.525 50.8839C125.289 50.2707 120.864 51.026 117.071 53.0102C116.329 53.398 115.601 53.8398 115.032 54.4531ZM122.508 72.1389C123.437 72.6797 124.405 72.8972 125.595 72.4559C126.785 72.0146 127.535 69.9738 127.535 69.9738C127.252 69.3986 127.807 68.1851 128.083 67.8405C128.318 67.5472 128.429 67.1802 128.539 66.8175C128.558 66.7543 128.577 66.6911 128.596 66.6285C129.317 64.3361 131.122 62.4106 133.363 61.543C133.683 61.4191 133.506 60.9307 133.266 60.6851C132.93 60.342 132.543 60.0236 132.078 59.9052C131.613 59.7868 131.058 59.9167 130.794 60.3176C129.474 62.326 127.664 64.0095 125.565 65.1803C125.35 65.3001 125.132 65.415 124.913 65.5299L124.913 65.5301C124.28 65.8632 123.647 66.1963 123.097 66.6503C122.302 67.3067 121.71 68.2056 121.421 69.1952C121.227 69.8572 121.177 70.6051 121.512 71.2077C121.736 71.6095 122.111 71.9074 122.508 72.1389ZM129.662 54.8086C129.463 54.4943 129.067 54.3773 128.704 54.2958C127.721 54.0753 126.719 53.9384 125.712 53.8872C125.18 53.8602 124.635 53.8586 124.129 54.0229C123.59 54.1976 123.127 54.5488 122.701 54.9212C121.659 55.8313 120.762 56.9076 120.056 58.0969C121.382 57.881 122.794 58.2572 123.837 59.1047L123.939 59.1873C124.041 59.2693 124.149 59.3453 124.274 59.3789C124.442 59.4238 124.653 59.3633 124.713 59.2007C125.018 58.3768 125.906 57.8092 126.782 57.8787C127.657 57.9483 128.445 58.6489 128.615 59.5105C128.766 59.6476 128.973 59.4163 129.04 59.2238C129.435 58.0856 129.688 56.8976 129.789 55.6967C129.815 55.3931 129.825 55.0659 129.662 54.8086ZM174.335 38.1546C175.07 38.2574 175.765 38.6191 176.272 39.1597L176.337 39.2312C176.588 39.516 177.016 39.6303 177.375 39.5089C177.735 39.3875 178.006 39.0376 178.033 38.6588C178.237 38.59 178.353 38.872 178.374 39.0931L178.376 39.1243C178.389 39.3488 178.549 39.6548 178.746 39.546C178.794 39.5191 178.826 39.4713 178.853 39.4219L179.148 38.8564C179.31 38.9504 179.391 39.1615 179.339 39.3401L179.327 39.3754C179.202 39.6897 179.642 40.0087 179.947 39.8631C180.252 39.7174 180.344 39.3005 180.23 38.9819C180.116 38.6634 179.853 38.4248 179.591 38.2109C178.805 37.5702 177.943 37.024 177.027 36.588C176.754 36.4577 176.459 36.3344 176.158 36.3721C175.741 36.4245 175.433 36.7648 175.168 37.0965L174.335 38.1546ZM112.397 65.7222L112.753 67.073C112.8 67.2524 112.863 67.4517 113.027 67.5377C113.191 67.6237 113.453 67.4638 113.373 67.296C112.987 66.4757 112.855 65.5379 112.999 64.6427C113.398 65.0761 113.857 65.4541 114.36 65.7623C114.523 65.5201 114.274 65.2799 114.04 65.055C113.98 64.9968 113.921 64.9397 113.87 64.8838C113.727 64.7262 113.641 64.5225 113.555 64.3209C113.443 64.0544 113.331 63.7914 113.092 63.6434C112.803 63.4652 112.414 63.5295 112.132 63.7172C111.849 63.9048 111.653 64.1943 111.475 64.4832C111.135 65.0366 110.832 65.6316 110.75 66.2759C110.667 66.9203 110.838 67.6259 111.32 68.0608L111.221 66.4972C111.204 66.2352 111.361 65.8497 111.591 65.976C111.588 66.7801 111.772 67.5844 112.125 68.3069C112.316 67.7362 112.32 67.1047 112.138 66.5313L112.083 66.3627C112.048 66.2494 112.022 66.1346 112.038 66.0186C112.062 65.8445 112.227 65.6749 112.397 65.7222ZM161.578 62.2751C161.464 62.2184 161.229 62.4264 160.972 62.654C160.791 62.8136 160.6 62.9828 160.432 63.077C160.432 63.077 161.109 61.9705 160.94 61.9081C160.769 61.8452 159.752 62.8265 159.752 62.8265C159.361 63.1292 158.767 63.4233 158.427 63.0637C158.299 62.9285 158.076 63.0496 157.938 63.1736L157.858 63.2465C157.528 63.5584 157.217 63.9726 157.357 64.3924C157.51 64.8526 158.106 64.9813 158.588 64.927C159.777 64.7931 161.064 64.1082 161.73 63.2465C161.837 63.1083 161.291 63.2449 161.096 63.3719C160.901 63.4989 160.567 63.6021 160.532 63.3719C161.009 63.1667 161.909 62.4403 161.578 62.2751ZM156.456 63.6538C156.351 63.5863 156.224 63.5372 156.102 63.5649C155.869 63.618 155.785 63.901 155.744 64.1367L155.573 65.1128C155.55 65.2463 155.536 65.4082 155.642 65.4929C155.692 65.5333 155.76 65.5454 155.824 65.5501C156.277 65.583 156.733 65.2786 156.877 64.8475C157.021 64.4165 156.838 63.8992 156.456 63.6538ZM136.533 61.4274C135.889 61.2648 135.21 61.2377 134.555 61.3485C134.123 61.4215 133.657 61.5877 133.451 61.9749C134.274 62.0721 135.112 62.0359 135.923 61.8683C136.186 61.814 136.496 61.6932 136.533 61.4274ZM173.921 38.6871L175.641 39.7028C175.78 39.7849 175.969 39.8633 176.089 39.7545C175.673 39.0056 174.769 38.5605 173.921 38.6871ZM137.953 60.0732C137.223 60.2662 136.503 60.4907 135.793 60.7456C136.53 61.1533 137.577 60.8274 137.953 60.0732ZM130.775 59.6362C130.935 59.5084 131.026 59.1925 130.825 59.1511L129.026 59.7155C129.547 60.0591 130.288 60.0255 130.775 59.6362ZM176.945 35.6608C176.835 35.6109 176.713 35.5631 176.595 35.5911C176.514 35.6104 176.442 35.6667 176.404 35.7411L178.876 37.0032C178.322 36.4427 177.664 35.9852 176.945 35.6608ZM138.964 42.4263L138.939 42.4092C138.741 42.6952 138.714 43.0906 138.87 43.4012C139.183 43.1507 139.444 42.8354 139.632 42.4811C139.417 42.4131 139.187 42.3942 138.964 42.4263ZM181.239 38.957L181.234 38.9414C181.046 38.6396 180.752 38.4053 180.416 38.2889C180.661 38.8731 181.116 39.3666 181.679 39.6584C181.698 39.3642 181.512 39.0679 181.239 38.957ZM130.018 60.57L130.058 60.5142C129.767 60.4094 129.434 60.4221 129.151 60.549C128.983 60.7205 129.228 61.0294 129.467 61.0016C129.705 60.9739 129.875 60.7637 130.018 60.57ZM113.563 63.3338C113.597 63.1176 113.356 62.9623 113.143 62.9125C112.807 62.8341 112.446 62.8643 112.128 62.9975C112.593 63.1573 113.075 63.2701 113.563 63.3338ZM158.368 62.6577C158.262 62.7168 158.363 62.9191 158.474 62.871C158.672 62.7696 159.143 62.4975 159.127 62.2751C159.096 61.3812 158.368 62.6577 158.368 62.6577ZM128.083 68.3069C127.876 68.3069 127.774 69.0373 127.72 69.4247L127.72 69.4251C127.705 69.5337 127.693 69.6152 127.685 69.6461C127.911 69.7479 128.108 69.5818 128.135 69.3705C128.143 69.3101 128.162 69.2243 128.184 69.1272C128.263 68.7753 128.376 68.2758 128.083 68.3069Z" fill="#1E1F26"/>
<path fill-rule="evenodd" clip-rule="evenodd" d="M63.9899 83.0034C62.4913 83.0094 60.9924 82.9478 59.4994 82.8189L59.3544 82.8055C58.8198 82.7521 58.2591 82.6451 57.9088 82.2475C57.436 81.7108 57.5514 80.9017 57.6934 80.1938L57.7077 80.1234C58.3422 77.0173 58.5915 73.8326 58.4483 70.6656L58.4217 70.1197C58.3819 69.1378 58.4446 68.0243 59.2603 67.5193C59.5085 67.3657 59.7965 67.2944 60.0837 67.2365L60.1793 67.2176C65.4016 66.2003 70.8392 66.3034 76.0192 67.5179C76.7012 67.6778 76.891 68.6019 76.6648 69.2649C76.5603 69.5714 76.4003 69.8554 76.2404 70.1389C76.0545 70.4688 75.8689 70.7981 75.7712 71.1619C75.5895 71.8385 75.9225 72.7544 76.6228 72.7764C78.0801 72.822 79.3153 74.3026 79.1195 75.7474C78.9236 77.1922 77.362 78.2879 75.9325 78.0011C75.597 77.9338 75.4783 78.4296 75.5151 78.7698L75.9231 82.5413C75.9897 83.1569 75.1161 83.3513 74.4988 83.3033L70.8973 83.023C70.3314 82.9789 69.5726 83.0765 69.4855 83.6373C69.2684 85.0336 67.8367 86.1239 66.4329 85.962C65.0292 85.8001 63.8833 84.4125 63.9899 83.0034ZM68.5942 84.1861C68.6762 83.9948 68.7285 83.7822 68.6867 83.5783C68.6478 83.3884 68.5324 83.2051 68.4204 83.0272C68.2409 82.7421 68.0702 82.4709 68.2367 82.2087L73.6699 82.6135C74.3506 82.6642 75.3258 82.4115 75.1945 81.7417C74.8156 79.8095 74.736 77.8188 74.9593 75.8625C75.2093 76.8123 76.3543 77.4144 77.2785 77.0819C78.2027 76.7494 78.7018 75.556 78.2893 74.6646C77.8769 73.7731 76.6442 73.3809 75.7925 73.8701C75.4763 74.0517 75.1926 73.5775 75.1512 73.2152C74.9888 71.7945 75.2372 70.3292 75.8587 69.0414C76.1228 68.4944 75.356 68.0416 74.7602 67.9232C70.1035 66.9974 65.2715 66.9619 60.6017 67.8192C59.878 67.9521 58.975 68.3328 59.033 69.0663C59.3532 73.1141 59.0952 77.2072 58.2693 81.1827C58.1492 81.7608 58.917 82.0779 59.5042 82.139C61.4019 82.3363 63.3215 82.3214 65.2158 82.0946C64.4704 82.973 64.7105 84.4966 65.6901 85.103C66.6515 85.6981 68.0862 85.2618 68.568 84.2443L68.5942 84.1861Z" fill="#1E1F26"/>
<path fill-rule="evenodd" clip-rule="evenodd" d="M107.443 71.5138L96.8007 71.2998C95.8288 71.2844 94.8299 71.3082 93.9648 71.7392C92.7788 72.3303 92.0553 73.6077 91.8017 74.9084C91.5701 76.096 91.6736 77.3175 91.8068 78.5232L91.8454 78.8672C92.7736 78.2612 94.1902 78.6337 94.7002 79.6179C95.2103 80.6022 94.6977 81.9743 93.6673 82.3832C92.6369 82.792 91.323 82.1445 91.0195 81.0783C90.7674 82.4284 90.8133 83.8332 91.153 85.1639C91.2938 85.7154 91.5235 86.3027 92.0232 86.5753C92.3755 86.7675 92.7975 86.7659 93.1988 86.7593L98.5381 86.6727C98.9445 86.6661 99.3843 86.6481 99.7007 86.3929C100.017 86.1377 100.079 85.5518 99.718 85.3657C99.1954 85.0967 98.9977 84.3891 99.2023 83.8381C99.4069 83.2872 99.9334 82.9008 100.499 82.7402C101.426 82.4768 102.528 82.8155 103.049 83.6265C103.57 84.4376 103.363 85.6682 102.542 86.1736C104.119 86.3292 105.707 86.3697 107.289 86.2946L107.372 86.2905C107.76 86.2697 108.158 86.2268 108.485 86.0212C108.883 85.7715 109.103 85.329 109.271 84.8852L109.325 84.7375C110.618 81.1301 110.748 77.1162 109.692 73.4325C109.495 72.7424 109.196 71.994 108.546 71.6904C108.258 71.5561 107.936 71.528 107.617 71.518L107.443 71.5138ZM107.517 72.212C107.83 72.2252 108.151 72.2527 108.418 72.413L108.476 72.451C108.856 72.7158 109.021 73.2044 109.139 73.6583C110.057 77.1695 109.931 80.9463 108.782 84.3886C108.669 84.7263 108.536 85.0766 108.266 85.3083C107.991 85.5439 107.616 85.62 107.257 85.6671C106.151 85.8122 105.02 85.7607 103.932 85.5158C104.475 83.8614 103.06 81.8839 101.319 81.8642C99.5777 81.8445 98.1183 83.7896 98.624 85.4558C98.7131 85.7493 98.2896 85.9078 97.983 85.9176L93.0329 86.0769C92.4816 86.0947 92.0132 85.6175 91.8529 85.0897C91.6925 84.562 91.7686 83.9951 91.8462 83.449C93.5538 83.7823 95.47 82.534 95.6691 80.8055C95.8682 79.077 94.0637 77.3725 92.3863 77.8346C92.3242 76.794 92.2638 75.7343 92.516 74.7228C92.7681 73.7113 93.3863 72.737 94.3403 72.3169C94.9796 72.0354 95.7009 72.0255 96.3995 72.0229L97.5037 72.0212C100.816 72.0227 104.129 72.0853 107.439 72.2089L107.517 72.212Z" fill="#1E1F26"/>
<path fill-rule="evenodd" clip-rule="evenodd" d="M61.4512 94.8259C60.9228 98.2552 60.9221 101.765 61.449 105.195C61.5931 106.132 61.8181 107.139 62.5387 107.756C62.9528 108.11 63.4814 108.29 64.012 108.429L64.2241 108.482C68.5968 109.56 73.2141 109.631 77.6179 108.689C78.3808 108.526 78.6866 107.623 78.857 106.862L79.8161 102.576C79.4505 102.258 78.9742 102.417 78.4806 102.58C78.2057 102.671 77.9253 102.764 77.6558 102.778C76.6992 102.826 76.0075 101.812 75.8792 100.863C75.746 99.877 76.0374 98.7983 76.7913 98.1488C77.5451 97.4994 78.7842 97.4083 79.521 98.0771C79.6943 98.2345 79.9488 98.0066 80.0587 97.7999C80.7486 96.5018 81.0026 94.9768 80.7704 93.5252C80.7403 93.3367 80.6964 93.1381 80.5632 93.0015C80.3856 92.8195 80.1046 92.7992 79.8505 92.7909L79.0643 92.7677C76.9675 92.7119 74.8694 92.7054 72.7723 92.748C73.6979 93.4533 73.4682 95.0827 72.4914 95.7152C71.5145 96.3476 70.1429 96.0781 69.2604 95.3196C68.8903 95.0015 68.5752 94.5819 68.5181 94.0973C68.461 93.6127 68.7313 93.0704 69.2016 92.9401C69.3985 92.8856 69.4027 92.5762 69.2491 92.4414C69.0954 92.3067 68.8715 92.2991 68.6671 92.2986L64.1776 92.2862C63.5912 92.2864 62.9764 92.3104 62.4895 92.6314C61.8392 93.0602 61.609 93.8817 61.4779 94.66L61.4512 94.8259ZM75.3175 102.291C76.0971 103.426 77.7202 103.928 78.966 103.343L77.9773 107.074C77.9056 107.345 77.8227 107.634 77.6072 107.813C77.4418 107.951 77.223 108.002 77.0125 108.046L76.7749 108.095C72.4937 108.958 68.0103 108.804 63.7992 107.646L63.717 107.623C63.3879 107.53 63.056 107.417 62.8032 107.189C62.4356 106.858 62.3038 106.35 62.2196 105.856L62.1944 105.701C61.6768 102.381 61.5929 98.9943 61.9456 95.6531C62.007 95.0712 62.0881 94.4712 62.3899 93.9698C63.2761 92.4974 65.4169 92.6298 67.1056 92.9491L67.1667 92.9608C67.3299 92.9931 67.495 93.0355 67.6208 93.1423C67.7998 93.2944 67.8536 93.5313 67.888 93.7711L67.9199 94.0087C68.1485 95.6071 69.7704 96.8722 71.3763 96.7049C72.9823 96.5376 74.3085 94.9653 74.2027 93.3541L80.0068 93.3117C80.2595 94.2337 80.2722 95.2205 80.0431 96.1487C79.9857 96.3814 79.8976 96.6312 79.6911 96.7529C79.5278 96.849 79.3306 96.8419 79.1383 96.8257L79.0238 96.8156C77.6521 96.6985 76.2142 97.294 75.4142 98.4144C74.6142 99.5348 74.5378 101.156 75.3175 102.291Z" fill="#1E1F26"/>
<path fill-rule="evenodd" clip-rule="evenodd" d="M110.396 110.946C110.311 111.165 110.287 111.833 110.287 111.833C108.4 110.509 108.883 109.202 109.188 108.52C108.718 109.039 108.484 109.763 108.56 110.459C107.594 110.075 106.89 109.202 106.589 108.211C106.574 107.913 106.556 107.591 106.536 107.245C106.522 106.999 106.507 106.742 106.492 106.471C106.547 106.2 106.637 105.936 106.765 105.685C113.021 111.084 121.734 115.554 131.21 116.523C129.449 115.987 127.656 115.554 125.844 115.227C126.9 114.755 126.783 113.123 126.023 112.252C125.601 111.767 125.061 111.414 124.521 111.059C124.089 110.776 123.656 110.492 123.281 110.141C122.022 108.959 121.561 107.145 121.485 105.419L121.483 105.365C121.468 104.876 121.547 104.304 121.983 104.097C123.328 103.456 124.956 103.442 126.312 104.06C127.773 104.725 128.932 106.447 128.301 107.924C127.689 109.355 127.064 110.887 127.329 112.421C127.595 113.955 129.156 115.365 130.63 114.866L130.724 114.835C132.265 114.359 133.985 114.945 135.265 115.937C136.406 116.821 137.277 117.991 138.141 119.153L138.142 119.153L138.142 119.154L138.142 119.154L138.142 119.154L138.143 119.155L138.143 119.155L138.143 119.155L138.144 119.156C138.268 119.323 138.392 119.49 138.517 119.655L138.635 119.812C139.865 121.431 141.228 122.994 142.968 124.04C144.764 125.121 147.036 125.585 148.987 124.819C149.377 124.666 149.747 124.467 150.117 124.269L150.117 124.269C150.597 124.012 151.075 123.756 151.595 123.599C152.514 123.321 153.683 123.467 154.177 124.292C154.063 123.324 152.849 122.857 151.895 123.055C151.295 123.18 150.753 123.472 150.21 123.765C149.891 123.937 149.571 124.11 149.237 124.249C147.426 125.006 145.293 124.705 143.554 123.794C141.815 122.883 140.424 121.421 139.248 119.849C138.997 119.513 138.752 119.169 138.506 118.824C137.446 117.337 136.376 115.835 134.803 114.949C133.455 114.189 131.811 113.97 130.311 114.349L130.248 114.363C129 114.627 127.858 113.313 127.746 112.026C127.656 110.98 128.008 109.97 128.358 108.967L128.358 108.966L128.358 108.966C128.446 108.715 128.533 108.466 128.613 108.216C129.267 106.174 129.432 103.847 128.412 101.96L130.057 101.042L128.861 101.018L129.806 100.014C129.155 100.079 128.553 100.508 128.279 101.102C128.137 99.6089 126.841 98.4048 125.395 98.0065C123.949 97.6082 122.397 97.8842 120.981 98.3786C120.299 98.6168 119.609 98.9225 119.138 99.47C118.667 100.017 118.475 100.864 118.865 101.473C119.022 101.719 119.253 101.901 119.484 102.084L119.484 102.084C119.587 102.165 119.689 102.245 119.786 102.332C120.865 103.303 121.031 104.795 121.198 106.301C121.352 107.686 121.507 109.083 122.376 110.097C122.813 110.608 123.387 110.962 123.963 111.317C124.383 111.576 124.803 111.836 125.173 112.157C126.05 112.918 126.552 114.417 125.682 115.187C118.416 113.998 106.652 105.238 106.652 105.238C106.652 105.238 106.564 105.51 106.464 105.921C106.435 105.336 106.41 104.696 106.396 103.999C106.361 102.29 106.753 101.368 107.141 100.456C107.345 99.978 107.547 99.5023 107.686 98.9169L107.705 98.8355C107.99 97.6103 108.183 96.173 107.319 95.2705C106.597 94.5159 105.473 94.4809 104.394 94.5035L103.773 94.5184C102.526 94.5423 100.984 94.1559 100.71 92.9388L100.695 92.8755C100.4 91.7423 99.1139 90.9603 97.9719 91.2352C96.8087 91.5152 96.0118 92.8393 96.309 93.9982C96.4344 94.4869 95.7309 94.7212 95.2264 94.7213L91.6171 94.7221C90.9638 94.7223 90.0419 95.0747 90.2733 95.6856C90.7554 96.959 90.721 98.4196 90.1796 99.6689C88.6034 98.9359 86.4789 100.201 86.372 101.936C86.265 103.671 88.218 105.187 89.8723 104.653C89.2963 106.504 88.8147 108.384 88.4302 110.285C93.5144 109.57 98.6719 110.114 103.709 111.152C106.018 111.628 106.572 111.244 106.616 109.498C106.628 109.51 106.64 109.522 106.652 109.534C112.746 115.343 117.439 116.936 123.596 119.027L123.639 119.042C123.809 119.1 123.88 119.288 123.918 119.47L123.934 119.553L124.713 124.108C119.909 125.107 114.924 124.032 110.223 122.627C109.384 122.377 108.512 122.094 107.895 121.472C107.279 120.85 107.021 119.781 107.563 119.093C111.997 120.856 116.867 121.508 121.609 120.975C122.278 120.9 123.065 120.709 123.296 120.077C117.972 121.12 112.339 120.522 107.352 118.385C106.904 118.193 106.453 117.988 105.998 117.781C103.549 116.668 101.016 115.516 98.4732 116.177C98.0201 116.295 97.5271 116.526 97.3963 116.975C97.2656 117.425 97.8465 117.964 98.1901 117.646C97.9715 117.73 97.7727 117.417 97.8633 117.201C97.9539 116.985 98.1939 116.879 98.4161 116.805C100.492 116.118 102.921 116.639 104.533 118.117L104.93 120.225C104.268 120.249 103.665 119.959 103.057 119.666C102.71 119.499 102.361 119.331 101.999 119.221C101.04 118.929 100.148 119.512 99.6592 120.384C99.6535 120.394 99.5124 120.499 99.3848 120.456C99.2755 120.419 99.2495 120.264 99.246 120.23C99.3102 119.294 100.167 118.481 101.105 118.466C101.251 118.463 101.312 118.249 101.226 118.131C101.14 118.013 100.979 117.979 100.833 117.974C100.471 117.961 100.105 118.072 99.8106 118.283C99.7122 118.354 99.6218 118.436 99.5314 118.517C99.4064 118.63 99.2815 118.742 99.1361 118.826C98.8857 118.97 98.2379 118.926 98.3404 118.656C98.6928 117.727 99.7393 117.576 100.644 117.535C100.795 117.528 100.844 117.3 100.745 117.186C100.647 117.072 100.48 117.05 100.329 117.048C99.6306 117.038 98.9314 117.281 98.3899 117.722C98.1365 117.928 98.0493 118.328 98.0529 118.656C98.0565 118.984 98.2881 119.137 98.6144 119.175C98.8555 119.203 99.1688 118.991 99.5314 118.745C99.7658 118.587 100.021 118.414 100.29 118.283C100.639 118.114 101.023 118.214 101.034 118.249C101.039 118.264 100.98 118.278 100.881 118.301C100.659 118.351 100.237 118.447 99.861 118.712C99.321 119.092 99.0341 119.708 99.0341 119.849C99.0341 120.11 99.0457 120.237 99.0794 120.282C99.1189 120.443 99.2462 120.686 99.3848 120.674C99.6803 120.649 99.7462 120.534 99.7562 120.516C99.7572 120.514 99.7576 120.513 99.7577 120.514C100.105 119.615 101.381 119.644 102.308 119.907C103.97 120.381 105.551 121.085 107.132 121.789C108.125 122.231 109.119 122.674 110.133 123.059C114.876 124.863 120.092 125.402 125.104 124.607C126.484 128.014 129.786 130.176 133.009 131.975L134.403 132.747C137.373 134.398 140.367 136.203 142.061 139.108C142.155 139.269 142.245 139.433 142.335 139.598L142.336 139.599L142.336 139.6C142.612 140.104 142.888 140.609 143.283 141.023C143.808 141.571 144.623 141.932 145.334 141.666C146.045 141.4 146.384 140.324 145.797 139.842C145.954 140.413 145.603 141.076 145.043 141.267C144.482 141.457 143.799 141.145 143.577 140.596C142.365 137.604 139.739 135.434 136.994 133.716L136.71 133.539C135.936 133.065 135.146 132.612 134.355 132.16L134.355 132.159C132.237 130.947 130.12 129.734 128.32 128.098C125.849 125.851 124.018 122.538 124.611 119.251C127.355 120.653 130.172 122.078 133.231 122.45C131.451 121.721 129.674 121.006 127.9 120.292L127.897 120.291L127.897 120.291L127.897 120.291C123.557 118.545 119.238 116.806 114.94 114.886C113.935 114.437 111.011 112.521 110.811 112.157C110.552 111.685 110.722 111.048 110.877 110.47C110.922 110.302 110.966 110.139 110.997 109.986C110.997 109.986 110.548 110.55 110.396 110.946ZM122.285 98.2433C123.143 98.2522 124 98.3358 124.843 98.4928C125.946 98.6983 127.174 99.1627 127.547 100.221C127.652 100.522 127.676 100.84 127.699 101.16C127.716 101.387 127.732 101.615 127.779 101.837C127.863 102.24 128.043 102.612 128.222 102.984C128.338 103.223 128.453 103.462 128.544 103.71C128.776 104.345 128.805 105.145 128.313 105.608L126.815 103.373C126.61 103.067 126.29 102.718 125.942 102.839C124.551 103.325 123.061 103.523 121.592 103.416C121.208 103.389 120.732 103.258 120.67 102.877C121.131 102.76 121.609 102.751 122.086 102.742C122.283 102.738 122.48 102.734 122.676 102.723C123.347 102.684 124.055 102.533 124.532 102.059C124.614 101.977 124.692 101.875 124.686 101.759C124.68 101.643 124.544 101.537 124.447 101.601C123.252 102.385 121.667 102.538 120.344 101.996C119.81 101.777 119.276 101.389 119.179 100.821C119.102 100.376 119.326 99.9164 119.667 99.6212C120.009 99.326 120.452 99.1742 120.896 99.0897C121.765 98.9242 122.679 98.9971 123.511 99.2984L123.54 99.3088C124.027 99.4853 124.627 99.7026 124.99 99.3398C124.121 98.9311 123.18 98.6792 122.223 98.5996C122.205 98.4783 122.227 98.3512 122.285 98.2433ZM105.39 118.115L106.75 118.896C106.84 118.948 106.854 119.07 106.858 119.175L106.932 121.14C105.928 120.891 105.723 120.702 105.439 120.334C104.987 119.749 104.93 118.889 104.977 118.187C104.961 118.014 105.239 118.028 105.39 118.115ZM102.719 110.221C98.3438 109.148 93.7734 108.877 89.3023 109.426C90.0783 107.618 90.4189 105.624 90.2874 103.661C89.1223 104.478 87.2095 103.52 87.1653 102.098C87.1212 100.676 88.9709 99.6013 90.1844 100.344C90.5062 100.541 90.8597 100.133 90.9883 99.7781C91.4265 98.5704 91.4308 97.2104 91.0002 96C90.8326 95.5285 91.544 95.2729 92.0443 95.2827L96.29 95.3668C96.5751 95.3724 96.8778 95.3735 97.1213 95.2251C97.3648 95.0767 97.5031 94.7196 97.3242 94.4976C96.5895 93.586 97.4339 91.9545 98.6024 92.0279C99.771 92.1013 100.405 93.8256 99.5616 94.6381C99.4043 94.7897 99.7099 94.9848 99.9282 94.9898L105.48 95.1176C106.584 95.143 107.364 96.3193 107.409 97.4228C107.447 98.3566 107.116 99.2509 106.788 100.134C106.76 100.211 106.731 100.288 106.703 100.365L106.612 100.615C105.629 103.374 105.312 106.368 105.697 109.272C105.772 109.838 105.251 110.342 104.693 110.465C104.2 110.573 103.693 110.466 103.2 110.342L102.719 110.221Z" fill="#1E1F26"/>
<path d="M127.821 107.774C127.723 107.938 127.618 108.109 127.452 108.204C127.287 108.3 127.043 108.29 126.938 108.13C127.332 107.679 127.626 107.14 127.792 106.563C127.54 106.451 127.306 106.736 127.148 106.962C126.989 107.188 126.634 107.39 126.476 107.164C126.601 106.807 126.838 106.492 127.146 106.274C127.285 106.175 127.447 106.094 127.617 106.101C127.958 106.115 128.194 106.487 128.186 106.829C128.179 107.171 127.997 107.481 127.821 107.774Z" fill="#1E1F26"/>
<path d="M128.712 123.361C129.386 123.557 129.794 124.205 130.172 124.805C130.195 124.842 130.218 124.878 130.241 124.915C131.401 126.747 133.001 128.299 134.868 129.403C136.038 130.095 137.3 130.608 138.563 131.121C139.607 131.545 140.652 131.97 141.646 132.496C143.843 133.66 145.901 135.544 146.252 138.004C145.358 136.278 144.037 134.776 142.44 133.669C141.165 132.785 139.741 132.163 138.316 131.54C137.294 131.094 136.271 130.647 135.301 130.103C132.523 128.544 130.207 126.174 128.712 123.361Z" fill="#1E1F26"/>
<path fill-rule="evenodd" clip-rule="evenodd" d="M134.908 125.73L134.867 125.637C134.72 125.323 134.564 124.996 134.288 124.785C134.013 124.574 133.58 124.524 133.336 124.771C133.042 125.067 132.658 125.273 132.248 125.354C132.576 126.057 133.156 126.639 133.857 126.968C134.182 127.121 134.599 127.209 134.874 126.979C135.22 126.691 135.092 126.156 134.908 125.73ZM133.924 125.013C134.276 125.074 134.997 126.01 134.644 126.645C134.29 127.279 132.875 125.658 132.875 125.658C133.081 125.648 133.268 125.468 133.443 125.301C133.613 125.138 133.771 124.986 133.924 125.013Z" fill="#1E1F26"/>
<path d="M174.83 117.315C169.442 124.005 161.061 128.188 152.476 128.47C151.948 128.487 151.609 129.014 151.339 129.467C150.113 131.521 148.392 133.278 146.363 134.546C145.936 134.813 145.32 135.037 144.982 134.663C147.004 133.809 148.772 132.365 150.014 130.556C150.099 130.432 150.184 130.304 150.27 130.176C150.996 129.093 151.788 127.911 153.049 127.829C157.51 127.539 162.014 126.569 165.853 124.278C167.168 123.494 168.389 122.565 169.607 121.638C172.391 119.519 175.325 117.197 176.416 113.873L176.426 113.84L176.457 113.745C176.69 113.029 176.954 112.218 177.657 111.992C178.531 111.71 179.328 112.557 179.86 113.307L183.693 118.71C183.791 118.849 183.892 118.992 183.929 119.158C184.095 119.892 182.999 120.263 182.293 120.003C181.814 119.826 181.371 119.519 180.933 119.216C180.196 118.705 179.476 118.206 178.631 118.358C177.602 118.543 177.023 119.609 176.531 120.53C173.695 125.84 168.923 130.088 163.32 132.29C161.876 132.857 160.383 133.292 158.894 133.726L155.884 134.603C160.526 135.443 165.535 136.044 169.775 133.975C172.731 132.532 174.949 129.956 177.079 127.449C178.455 125.829 179.881 124.109 180.282 122.022C180.417 121.315 181.31 120.978 182.004 121.169C182.698 121.361 183.226 121.91 183.718 122.436L187.443 126.423C187.737 126.738 188.046 127.084 188.089 127.512C188.132 127.94 187.748 128.424 187.335 128.304L183.295 127.131C182.916 127.021 182.497 126.913 182.14 127.082C181.847 127.22 181.665 127.514 181.5 127.793L177.19 135.072C175.967 137.137 173.701 138.335 171.473 139.231C166.133 141.378 160.338 142.387 154.585 142.171C153.961 142.148 153.335 142.11 152.718 142.012C150.294 141.631 148.115 140.36 146.001 139.114C145.671 138.919 145.373 138.356 145.744 138.263L147.007 138.988C148.598 139.901 150.213 140.825 151.988 141.289C154.426 141.926 156.998 141.657 159.503 141.373C165.15 140.733 171.203 139.854 175.346 135.964C177.827 133.635 179.328 130.476 180.773 127.395C181.302 126.269 182.926 126.259 184.085 126.712C184.358 126.819 184.631 126.943 184.904 127.067L184.905 127.067C185.79 127.468 186.682 127.872 187.621 127.724C186.021 125.748 184.343 123.836 182.591 121.993C182.057 121.431 181.03 121.751 180.618 122.408C180.207 123.065 180.23 123.895 180.266 124.67C180.886 125.018 181.389 125.569 181.678 126.218C181.274 126.362 180.914 125.941 180.648 125.603C180.383 125.265 179.857 124.956 179.572 125.278L174.708 130.769C174.048 131.514 173.384 132.263 172.619 132.9C170.73 134.474 168.314 135.292 165.891 135.707C161.656 136.433 157.229 136.006 153.211 134.485C159.707 133.233 166.375 131.253 171.154 126.678C173.212 124.708 174.836 122.328 176.254 119.858C176.688 119.102 177.17 118.278 177.989 117.981C178.929 117.641 179.851 118.113 180.788 118.593C181.627 119.023 182.477 119.459 183.362 119.322C181.927 117.077 180.359 114.918 178.669 112.858C178.514 112.669 178.326 112.465 178.081 112.462C177.747 112.457 177.542 112.815 177.411 113.123L176.431 115.416C176.211 115.931 176.011 116.584 176.386 117C176.479 117.102 176.597 117.176 176.716 117.249C176.831 117.321 176.946 117.392 177.038 117.491C177.224 117.691 177.216 118.11 176.946 118.15C176.698 117.78 176.436 117.398 176.049 117.18C175.661 116.963 175.109 116.969 174.83 117.315Z" fill="#1E1F26"/>
<path d="M124.428 109.861C124.902 109.819 125.342 109.508 125.539 109.075C125.474 108.823 125.101 108.994 124.886 109.141C124.389 109.48 123.634 109.356 123.272 108.875C123.098 108.86 123.097 109.14 123.196 109.284C123.467 109.674 123.955 109.903 124.428 109.861Z" fill="#1E1F26"/>
<path d="M122.443 105.203C122.082 105.257 121.777 105.571 121.734 105.934C122.27 105.479 122.447 105.527 122.746 105.607C122.894 105.647 123.07 105.695 123.334 105.695C123.187 105.361 122.803 105.149 122.443 105.203Z" fill="#1E1F26"/>
<path d="M124.119 108.127L124.529 107.951C124.692 108.26 124.445 108.681 124.101 108.744C123.757 108.806 123.405 108.556 123.289 108.226C123.173 107.896 123.264 107.519 123.463 107.232C123.623 107.318 123.632 107.519 123.641 107.712C123.644 107.762 123.646 107.812 123.651 107.859C123.675 108.086 123.989 108.316 124.095 108.113L124.119 108.127Z" fill="#1E1F26"/>
<path d="M125.822 105.564C125.679 105.223 125.541 105.195 125.022 105.153C124.503 105.111 123.334 105.948 125.071 105.433C125.112 105.421 125.261 105.463 125.417 105.508C125.628 105.568 125.85 105.631 125.822 105.564Z" fill="#1E1F26"/>
<path d="M124.875 106.05C125.162 106.278 125.079 107.183 124.656 107.013C124.478 106.941 124.266 105.567 124.875 106.05Z" fill="#1E1F26"/>
<path d="M138.844 129.841C138.626 129.83 138.47 130.134 138.607 130.305L138.609 130.301C138.763 130.334 138.934 130.26 139.017 130.125C139.006 130.011 138.94 129.903 138.844 129.841Z" fill="#1E1F26"/>
<path d="M135.004 128.494L134.706 128.539C134.647 128.455 134.628 128.343 134.658 128.244C134.793 128.071 135.132 128.292 135.028 128.485L135.004 128.494Z" fill="#1E1F26"/>
<path d="M136.731 129.315C136.634 129.466 136.657 129.763 136.83 129.716L136.835 129.71C136.962 129.694 137.08 129.615 137.144 129.503L136.731 129.315Z" fill="#1E1F26"/>
<path d="M131.368 125.307C131.463 125.231 131.628 125.274 131.673 125.388C131.719 125.501 131.631 125.646 131.509 125.658C131.377 125.626 131.311 125.442 131.394 125.333L131.368 125.307Z" fill="#1E1F26"/>
<path d="M122.27 106.589C122.262 106.871 122.436 107.034 122.602 107.034C122.773 107.034 122.848 106.323 122.602 106.184C122.356 106.046 122.279 106.307 122.27 106.589Z" fill="#1E1F26"/>
<path d="M53.8407 109C53.8819 108.997 53.9252 108.993 53.9691 108.992C54.0241 108.992 54.0876 109.002 54.1475 109.011C54.3089 109.036 54.4441 109.057 54.3164 108.857C54.1415 108.583 53.6295 108.552 53.5456 108.866C53.569 109.024 53.691 109.014 53.8407 109Z" fill="#1E1F26"/>
<path d="M54.2528 110.355C54.2553 110.345 54.2577 110.336 54.2602 110.327C54.3846 109.855 54.3126 109.483 53.9691 109.483C53.8365 109.493 53.6342 110.168 53.6535 110.373C53.6728 110.577 53.9035 110.767 54.0821 110.665C54.1881 110.605 54.222 110.474 54.2528 110.355Z" fill="#1E1F26"/>
<path d="M51.9868 110.212C51.7473 109.879 51.7222 109.406 51.9251 109.049C51.9554 108.996 51.9921 108.944 52.0451 108.914C52.1795 108.837 52.3592 108.941 52.4184 109.084C52.4777 109.227 52.4518 109.389 52.425 109.542C52.425 109.542 52.2263 110.544 51.9868 110.212Z" fill="#1E1F26"/>
<path fill-rule="evenodd" clip-rule="evenodd" d="M65.9775 110.419C65.7802 110.544 65.6208 110.74 65.5036 110.945C65.6864 110.366 65.8714 109.636 65.4215 109.577C64.6584 109.478 63.9124 110.72 64.0449 111.38C63.8331 110.854 62.9519 111.082 62.7385 111.607C62.5747 112.01 62.6444 112.451 62.7135 112.889C62.7345 113.022 62.7554 113.154 62.7697 113.285C62.999 115.379 61.4295 117.336 59.5268 118.238C57.7328 119.09 55.6969 119.209 53.7055 119.271L53.241 119.285C52.1041 119.314 50.873 119.288 50.0053 118.562C49.1114 117.815 49.1124 116.041 50.2349 115.727C53.0844 114.931 55.258 112.155 55.3465 109.197C55.3727 108.323 55.9395 107.596 56.4873 106.893C56.5366 106.83 56.5856 106.767 56.6341 106.704L56.7544 106.547C57.3677 105.734 57.8717 104.613 57.3568 103.734C56.5591 104.757 55.0647 105.17 53.8548 104.701C53.35 104.505 52.9027 104.178 52.4582 103.853C51.863 103.418 51.2728 102.987 50.556 102.879C49.1541 102.668 47.7637 104.087 48.0036 105.484C47.6241 105.166 47.0351 105.648 46.9941 106.142C46.97 106.432 47.0462 106.714 47.1229 106.998C47.1766 107.197 47.2306 107.396 47.2501 107.6C47.2729 107.836 47.2486 108.073 47.2243 108.31C47.2079 108.471 47.1915 108.631 47.1895 108.792C47.1794 109.623 47.55 110.393 47.9149 111.151L47.9158 111.153C47.9523 111.229 47.9888 111.305 48.0248 111.38L48.1224 111.588C48.5379 112.489 48.8461 113.561 48.4033 114.449C47.9605 115.337 46.4533 115.615 46.0263 114.719C43.9335 110.331 39.19 107.342 34.3278 107.35C28.6982 107.358 23.6331 111.068 20.3155 115.616C19.9017 116.184 19.4968 116.795 19.4066 117.491C19.3164 118.187 19.6395 118.986 20.3019 119.219C20.9642 119.452 21.8231 118.801 21.6073 118.133C21.9434 118.525 22.6306 118.154 22.7889 117.662C22.8779 117.386 22.8768 117.095 22.8757 116.802C22.8749 116.574 22.874 116.346 22.9159 116.123C23.1211 115.033 24.243 114.403 25.2527 113.942L25.4563 113.85C27.8348 112.773 30.3129 111.812 32.9144 111.63C35.5904 111.442 38.4459 112.185 40.2848 114.138C37.7756 114.734 36.3184 117.251 35.1568 119.577L34.9957 119.901C33.823 122.256 32.2869 124.826 29.7151 125.325C29.8129 125.832 30.2609 126.252 30.7735 126.316L21.3454 131.922L22.0686 132.819C19.7731 136.337 17.1768 139.659 14.3175 142.737C12.7628 144.41 10.7441 146.144 8.49354 145.754C8.08658 145.684 7.69201 145.544 7.2988 145.405C6.72302 145.201 6.15018 144.998 5.54564 145.015C4.52826 145.045 3.50726 146.282 4.19785 147.03C5.72727 148.686 7.47285 150.142 9.37628 151.349L9.42558 151.38C9.6573 151.524 9.91216 151.659 10.1808 151.628C10.4525 151.597 10.6736 151.404 10.8756 151.22L23.6445 139.577C24.6903 138.631 25.8411 137.685 27.2342 137.546L27.3517 137.532C28.3821 137.388 29.2309 136.737 30.0821 136.084C30.4527 135.799 30.8238 135.514 31.2106 135.271C32.5192 134.448 34.6897 134.363 35.1987 135.823C35.4692 136.599 35.1152 137.388 34.7662 138.166C34.6623 138.398 34.5587 138.628 34.4723 138.857C34.096 139.855 34.4044 141.39 35.4707 141.371L41.4382 141.266C41.6527 141.264 41.8785 141.276 42.0453 141.407C42.2198 141.544 42.281 141.773 42.3145 141.997L42.3284 142.099C42.5531 143.927 42.5221 145.786 42.2366 147.605C41.9271 149.577 41.1038 151.745 39.2436 152.468C38.0703 152.924 36.7634 152.687 35.5276 152.404L28.0188 150.65C28.0062 149.741 28.8289 149.001 29.7058 148.76C30.4494 148.556 31.2303 148.618 32.0037 148.68C32.0512 148.683 32.0988 148.687 32.1462 148.691L32.419 148.711C34.3194 148.842 36.2405 148.665 38.0852 148.19L35.4234 141.529C35.6948 143.741 36.2929 145.912 37.1924 147.95L28.4421 148.234C27.6802 148.255 26.8342 148.222 26.322 147.666C26.1905 147.523 26.0809 147.347 25.9723 147.173C25.7493 146.816 25.5305 146.465 25.1345 146.419C24.7924 146.379 24.4825 146.608 24.2204 146.831C22.5096 148.291 21.0892 150.089 20.0658 152.091C20.4347 153.005 21.6572 153.26 22.607 152.998C23.1625 152.845 23.6696 152.568 24.1776 152.292C24.5381 152.095 24.899 151.898 25.2781 151.745C27.3933 150.89 29.7187 151.47 31.9525 152.142L33.2793 152.546C35.9014 153.334 39.0984 153.738 41.0634 151.831C42.2229 150.706 42.6453 149.032 42.8749 147.433C43.5373 142.819 43.0003 138.037 41.3306 133.684C43.1923 132.966 44.0708 130.884 44.7537 129.009L46.0912 125.337C46.538 124.11 47.5532 122.605 48.7617 123.099C52.2161 124.512 56.2964 123.915 59.5126 122.021C62.7287 120.127 65.1363 117.06 66.7579 113.698L66.8014 113.608C67.1187 112.94 67.5232 111.381 67.1619 111.208C67.0272 111.103 66.7873 111.278 66.6238 111.398C66.5353 111.462 66.4693 111.511 66.4543 111.49C66.4451 111.476 66.4747 111.39 66.5167 111.268C66.6819 110.787 67.0384 109.748 65.9775 110.419ZM53.1116 119.974C56.672 119.779 60.7967 119.265 62.6643 116.227C63.1486 115.439 63.0453 114.201 62.9602 113.18C62.8918 112.361 62.8351 111.681 63.1043 111.49C63.7086 111.059 64.192 112.17 64.192 112.17C64.2097 112.096 64.23 112.005 64.2529 111.902C64.4216 111.146 64.7324 109.751 65.2207 110.013C65.4215 110.121 65.3524 110.799 65.3049 111.264L65.3049 111.265C65.2937 111.374 65.2838 111.472 65.2788 111.547C65.2674 111.619 65.2658 111.679 65.2743 111.722C65.2811 111.719 65.2882 111.715 65.2956 111.71C65.2986 111.71 65.3019 111.708 65.3055 111.705C65.3083 111.703 65.3112 111.7 65.3144 111.696C65.3933 111.629 65.5015 111.465 65.6218 111.281C65.8711 110.902 66.1726 110.443 66.3747 110.611C66.692 110.876 65.5639 112.568 65.5639 112.568C65.5639 112.568 66.9037 111.095 67.0167 111.722C67.1298 112.349 64.0784 118.008 61.324 120.228C58.5696 122.447 54.6886 123.69 51.1793 123.245C51.2576 121.853 51.7197 120.05 53.1116 119.974ZM65.3144 111.696C65.3079 111.701 65.3017 111.706 65.2956 111.71C65.2744 111.714 65.272 111.651 65.2788 111.547C65.3046 111.384 65.3811 111.159 65.5036 110.945C65.4804 111.018 65.4572 111.09 65.4353 111.157C65.3376 111.457 65.2668 111.674 65.3402 111.657C65.3348 111.666 65.3298 111.674 65.3252 111.681C65.3213 111.687 65.3177 111.692 65.3144 111.696ZM43.1174 131.029C42.6995 131.969 42.008 133.075 40.9872 132.95C40.4407 132.883 40.0278 132.471 39.6564 132.047L39.4574 131.816C37.3001 129.312 34.3695 127.648 31.424 126.116L30.4426 125.609C32.842 125.137 34.3221 122.764 35.379 120.559L35.7158 119.856C36.6822 117.853 37.7819 115.791 39.7752 114.889C40.0507 114.764 40.3667 114.665 40.6509 114.769C40.6939 114.784 40.7404 114.802 40.7888 114.821C41.1396 114.956 41.5914 115.129 41.5842 114.797C40.9446 114.539 40.8394 113.606 41.2084 113.024C41.5452 112.492 42.1286 112.185 42.7064 111.92L42.8711 111.846C42.5025 111.338 41.7038 111.765 41.2866 112.234L41.2522 112.272C40.8334 112.731 40.1906 113.234 39.7073 112.861C37.7101 111.318 35.0483 110.822 32.5359 111.065C30.0236 111.307 27.6267 112.226 25.3315 113.276C24.4903 113.661 23.6359 114.08 23.0117 114.763C22.5287 115.291 22.4787 115.994 22.4284 116.7C22.4137 116.907 22.3989 117.114 22.3733 117.318C22.3113 117.809 22.0411 117.828 21.8031 117.844C21.6755 117.853 21.5572 117.861 21.4851 117.941C21.4793 117.948 21.4607 117.976 21.4326 118.019C21.2897 118.239 20.903 118.833 20.7283 118.773C20.4718 118.686 20.6026 118.133 20.6026 118.133C20.6026 118.133 19.8414 118.35 19.7847 118.133C19.5865 117.371 20.7283 115.814 20.7283 115.814C22.6482 112.989 25.4952 110.646 28.6253 109.284C31.8134 107.896 35.5336 107.628 38.7926 108.84C42.4669 110.205 45.3764 113.467 46.3144 117.273C46.5482 118.222 47.6519 118.641 48.6163 118.799C48.649 118.804 48.6818 118.809 48.7147 118.815C48.7728 118.824 48.8313 118.833 48.8901 118.842L48.8914 118.842C49.7814 118.981 50.7279 119.129 51.2952 119.809C51.4623 120.009 51.4161 120.306 51.3587 120.56L51.3419 120.634C51.1303 121.541 50.7612 122.557 49.8793 122.832C49.0778 123.083 48.1281 122.437 48.0668 121.599C48.0614 121.525 48.0598 121.447 48.0582 121.368C48.0514 121.043 48.0443 120.7 47.771 120.566L43.1174 131.029ZM35.5377 135.993C35.238 134.453 34.327 133.067 33.1318 132.051C33.1784 132.656 33.4345 133.244 33.8464 133.69C31.821 134.334 29.911 135.339 28.2333 136.643C27.7843 136.992 27.0214 137.311 26.7584 136.807C25.7238 134.822 24.0766 133.163 22.1001 132.113L30.2259 127.443C30.5932 127.232 30.9816 127.015 31.4052 127.011C31.7335 127.008 32.0454 127.134 32.3423 127.28L32.4895 127.355C35.5303 128.921 38.2523 131.103 40.4424 133.73C40.9848 134.381 41.2371 135.213 41.4519 136.037L42.4185 139.813C42.4825 140.064 42.5294 140.373 42.3335 140.541C42.2232 140.636 42.068 140.652 41.9231 140.663L41.7537 140.676C39.3475 140.862 37.4063 141.011 34.9957 140.663C34.636 139.974 34.9078 139.119 35.1885 138.237C35.429 137.48 35.676 136.704 35.5377 135.993ZM23.4493 133.671C24.3509 134.465 25.1637 135.36 25.8677 136.333C25.943 136.437 26.0205 136.554 26.0125 136.682C26.0031 136.832 25.8819 136.947 25.769 137.046L15.2667 146.238C14.8288 146.621 14.1302 146.554 13.6397 146.241C13.2104 145.967 12.9036 145.546 12.622 145.118L12.5026 144.935C15.2397 143.496 16.9954 140.919 18.7668 138.32C19.8779 136.689 20.9951 135.049 22.3645 133.676C22.4976 133.542 22.6478 133.404 22.8351 133.383C23.0669 133.357 23.2743 133.517 23.4493 133.671ZM54.0335 108.031L54.3016 108.114C54.8238 108.275 54.9105 108.975 54.8441 109.517C54.5688 111.764 53.1726 113.987 51.0197 114.685L50.9428 114.711C49.5398 115.207 48.5369 116.674 48.5968 118.163C47.6551 118.339 46.6455 117.586 46.5466 116.633C46.5268 116.443 46.5831 116.196 46.7719 116.167C47.6274 116.036 48.4143 115.511 48.8641 114.771C49.3139 114.032 49.4182 113.091 49.1414 112.271C49.0849 112.104 49.013 111.936 48.941 111.768C48.7364 111.291 48.531 110.811 48.6748 110.33C49.0027 110.36 49.0649 110.81 49.0303 111.137L49.0265 111.177C49 111.5 49.057 111.914 49.3701 111.957C49.5766 111.483 49.6195 110.952 49.6621 110.426C49.7159 109.761 49.7692 109.102 50.1505 108.572C50.5865 107.966 51.3686 107.688 52.1149 107.679C52.7679 107.672 53.4064 107.841 54.0335 108.031ZM6.84503 145.906L6.91238 145.828C7.28825 145.746 7.64717 146.227 7.46103 146.564C7.3416 146.78 7.70888 146.994 7.91395 146.856C8.11902 146.719 8.16039 146.44 8.18294 146.194C8.38926 146.129 8.56774 146.366 8.60668 146.578C8.61697 146.635 8.62336 146.693 8.62975 146.751C8.64754 146.913 8.66537 147.075 8.76758 147.197C8.9065 147.363 9.27455 147.277 9.21418 147.069C9.12413 146.76 9.48998 146.507 9.80926 146.461C9.88603 146.45 9.96529 146.444 10.0448 146.437C10.2958 146.417 10.549 146.396 10.7317 146.233L10.7593 146.211C10.9913 146.046 11.2784 146.351 11.4535 146.621L11.535 146.752C11.9199 147.35 12.5743 147.769 13.2797 147.865C13.4179 147.884 13.3476 148.1 13.2461 148.195L10.8652 150.437C10.7498 150.546 10.5628 150.469 10.4276 150.386C9.01435 149.521 7.70971 148.478 6.55391 147.291C6.18979 146.917 6.49859 146.32 6.84503 145.906ZM27.6658 150.079C27.5971 150.362 27.4019 150.678 27.1118 150.657C26.4124 150.605 25.7033 150.689 25.0356 150.904C25.0968 150.619 24.9723 150.303 24.7332 150.137C24.5587 150.386 24.63 150.773 24.882 150.944L24.2163 151.602L23.8977 150.869C23.7406 150.911 23.736 151.104 23.7468 151.281L23.7546 151.39C23.7865 151.854 23.3932 152.305 22.9296 152.336C22.466 152.367 22.0158 151.973 21.9851 151.51C21.9517 151.005 22.3386 150.581 22.6982 150.225L25.2521 147.696C25.3064 147.644 25.3686 147.596 25.4419 147.598C25.5229 147.599 25.5886 147.661 25.6456 147.718L26.6421 148.724C26.8354 148.919 26.7133 149.217 26.5943 149.508C26.4717 149.807 26.3525 150.098 26.5839 150.261C26.8092 150.274 26.9967 150.078 27.0833 149.87C27.1275 149.764 27.1543 149.652 27.1812 149.539C27.207 149.432 27.2328 149.324 27.2739 149.221C27.3579 149.012 27.5392 148.812 27.7648 148.817C27.9904 148.822 28.1645 149.144 27.99 149.287C27.804 149.44 27.7509 149.688 27.6992 149.929C27.6884 149.98 27.6777 150.03 27.6658 150.079ZM10.2048 151.197C7.90938 149.969 5.88034 148.246 4.29659 146.18C4.50426 145.983 4.81658 146.193 5.01744 146.416L5.06717 146.474C6.57198 148.336 8.46183 149.886 10.5827 150.996C10.5655 151.164 10.3533 151.277 10.2048 151.197ZM21.2135 150.727C22.2078 149.427 23.3095 148.208 24.5037 147.089C24.6889 146.915 25.0733 146.798 25.1202 147.047C23.7299 148.374 22.4002 149.765 21.1366 151.213C20.9993 151.094 21.1031 150.871 21.2135 150.727ZM13.577 147.476C12.8831 147.229 12.2646 146.774 11.8214 146.186C11.6546 145.965 11.5494 145.58 11.8021 145.467C12.0018 145.377 12.1936 145.566 12.3329 145.749L12.4374 145.891C12.8862 146.483 13.5264 146.928 14.2384 147.141C14.2396 147.331 14.0824 147.509 13.8937 147.531C13.7862 147.544 13.6789 147.512 13.577 147.476ZM47.6264 108.992C47.9527 109 48.2288 109.34 48.1696 109.661L48.1772 109.666C48.2223 109.898 48.1926 110.145 48.0936 110.36C47.7369 110.01 47.5583 109.487 47.6264 108.992Z" fill="#1E1F26"/>
<path fill-rule="evenodd" clip-rule="evenodd" d="M43.546 59.4089C43.5864 59.1472 43.9352 58.9961 44.1872 59.0859C44.4392 59.1757 44.6642 59.5372 44.4795 59.7416C44.1872 60.0653 43.4676 59.9167 43.546 59.4089Z" fill="#EB9050"/>
<path fill-rule="evenodd" clip-rule="evenodd" d="M153.253 127.168C153.089 127.306 152.758 127.356 152.728 127.144C153.371 126.489 153.813 125.64 153.981 124.739C154.191 124.682 154.251 125.017 154.199 125.228C154.021 125.938 153.814 126.697 153.253 127.168Z" fill="#1E1F26"/>
<path d="M11.2982 49.2241C11.2917 49.435 10.9718 49.4227 10.7783 49.3385C10.848 49.1503 11.1303 49.0873 11.2733 49.2281L11.2982 49.2241Z" fill="#1E1F26"/>
<path fill-rule="evenodd" clip-rule="evenodd" d="M102.588 107.162C102.366 107.361 101.991 107.057 102.024 106.761C102.057 106.464 102.319 106.252 102.571 106.093C103.475 105.52 104.521 105.175 105.587 105.098C105.616 105.505 105.089 105.673 104.688 105.751C103.839 105.917 103.031 106.284 102.348 106.816C102.471 106.891 102.561 107.02 102.588 107.162V107.162Z" fill="#1E1F26"/>
<path fill-rule="evenodd" clip-rule="evenodd" d="M105.617 107.681C105.117 107.923 104.608 108.146 104.091 108.35C104.15 108.568 104.463 108.561 104.675 108.484C104.888 108.408 105.167 108.327 105.305 108.506C104.955 109.039 104.09 109.122 103.645 108.665C103.452 108.467 103.102 108.597 102.852 108.477C102.495 108.304 102.562 107.765 102.772 107.429C103.211 106.727 104.048 106.294 104.875 106.341C105.19 106.359 105.566 106.515 105.587 106.829C104.6 106.767 103.593 107.174 102.926 107.905C103.305 108.198 103.848 107.98 104.275 107.763C104.702 107.547 105.266 107.356 105.617 107.681Z" fill="#1E1F26"/>
<path fill-rule="evenodd" clip-rule="evenodd" d="M53.0526 110.482C53.336 110.766 53.4536 110.896 53.4536 111.313C53.4536 111.73 53.2273 111.997 52.8456 112.12C52.6695 112.176 52.4258 112.133 52.3801 111.954C53.6524 111.694 53.1848 111.139 53.0526 110.482Z" fill="#1E1F26"/>
<path fill-rule="evenodd" clip-rule="evenodd" d="M51.3552 108.708C51.491 108.258 52.0814 108.015 52.4947 108.239C52.6583 108.327 52.7943 108.489 52.8027 108.674C52.3202 108.686 51.9229 108.374 51.3552 108.708Z" fill="#1E1F26"/>
<path fill-rule="evenodd" clip-rule="evenodd" d="M52.5101 112.729C49.8187 111.234 51.9258 113.149 52.5101 112.729V112.729Z" fill="#1E1F26"/>
</svg>
