<svg width="180" height="184" viewBox="0 0 180 184" fill="none" xmlns="http://www.w3.org/2000/svg">
<path fill-rule="evenodd" clip-rule="evenodd" d="M84.912 144.361C59.4507 138.788 25.5262 127.73 31.1009 89.7862C36.6757 51.8426 60.5728 37.2126 90.1379 37.2126C119.702 37.2126 153.291 59.5175 146.697 105.724C140.103 151.931 110.373 149.933 84.912 144.361ZM168.602 98.6223C169.653 88.0643 168.536 77.6177 165.535 67.8249L174.097 63.2386C175.54 62.4659 176.083 60.6701 175.311 59.2275L163.622 37.4047C162.848 35.9621 161.052 35.4191 159.609 36.1918L151.048 40.778C144.557 32.8555 136.48 26.1373 127.11 21.1622L129.919 11.8692C130.393 10.3026 129.507 8.64896 127.94 8.17537L104.243 1.00991C102.676 0.536315 101.024 1.42217 100.549 2.98873L97.7406 12.2817C87.1809 11.2306 79.4879 15.0999 69.6948 18.099L65.1083 9.53706C64.3358 8.09438 62.5398 7.55143 61.0974 8.32412L39.2747 20.0138C37.832 20.7865 37.289 22.5823 38.0617 24.0247L42.648 32.5868C34.7254 39.0772 25.255 44.4023 20.2798 53.7736L10.9866 50.9637C9.4203 50.4901 7.76638 51.3759 7.29279 52.9423L0.127584 76.6392C-0.346007 78.2057 0.539848 79.8594 2.10616 80.3332L11.3994 83.1432C10.3483 93.7009 11.4653 104.148 14.4643 113.94L5.90244 118.527C4.45976 119.299 3.91681 121.095 4.6895 122.538L16.3791 144.361C17.1518 145.803 18.9476 146.346 20.3901 145.573L28.9522 140.987C35.4425 148.91 43.5199 155.628 52.8912 160.603L50.0813 169.896C49.6077 171.463 50.4936 173.116 52.0599 173.59L75.7572 180.754C77.3221 181.229 78.977 180.343 79.4515 178.776L82.26 169.484C92.8172 170.535 103.265 169.418 113.058 166.419L117.643 174.981C118.417 176.423 120.213 176.965 121.656 176.193L143.479 164.504C144.92 163.731 145.465 161.935 144.691 160.493L140.103 151.931C148.027 145.44 154.744 137.363 159.721 127.992L169.013 130.801C170.58 131.275 172.235 130.389 172.707 128.823L179.872 105.126C180.347 103.56 179.461 101.906 177.893 101.432L168.602 98.6223Z" fill="#FAB4B0"/>
<path fill-rule="evenodd" clip-rule="evenodd" d="M122.752 45.3455L121.927 45.3176L121.904 46.0508C121.865 47.37 121.883 48.7812 121.902 50.3199C121.916 51.3922 121.931 52.5264 121.927 53.7345L121.79 56.1201C121.794 58.3426 121.809 61.436 121.837 65.4004L121.927 76.686C121.32 76.8872 120.864 77.4109 120.773 78.0478C120.273 78.1241 119.888 78.549 119.888 79.0602C119.888 79.422 120.081 79.7404 120.371 79.9228L120.018 80.7761C119.861 81.1551 119.602 81.4792 119.27 81.7133C117.811 82.7392 116.953 84.4008 116.973 86.158C116.974 86.2048 116.975 86.2513 116.977 86.2978C116.983 86.4663 117.127 86.5961 117.3 86.5915C117.471 86.5853 117.606 86.4436 117.599 86.2751C117.598 86.2339 117.597 86.1926 117.596 86.1512C117.578 84.5928 118.615 83.1191 119.908 82.2092C120.337 81.9077 120.67 81.4914 120.871 81.0053L120.976 80.0848H121.42C121.42 80.0848 121.574 80.9133 121.574 81.561C121.574 82.2087 121.42 83.4917 121.42 83.4917H120.909C120.324 83.4917 119.848 83.9578 119.848 84.5308C119.848 85.1038 120.324 85.57 120.909 85.57H120.982C121.567 85.57 121.768 85.2707 121.768 84.5308C121.768 84.1436 121.81 83.8665 122.442 83.8665C123.074 83.8665 122.912 84.5308 122.912 84.5308C122.912 85.1038 123.388 85.57 123.973 85.57H124.046C124.631 85.57 125.107 85.1038 125.107 84.5308C125.107 83.9578 124.12 83.4732 123.535 83.4732C123.535 83.4732 123.379 82.3074 123.379 81.7133C123.379 81.2126 123.535 80.1889 123.535 80.1889H122.912C122.912 80.1889 123.042 81.1444 123.042 81.7276C123.042 82.3107 122.912 83.4732 122.912 83.4732C122.912 83.4732 122.568 83.5352 122.404 83.5387C122.24 83.5422 122.043 83.4917 122.043 83.4917C122.043 83.4917 121.906 82.2996 121.906 81.7276C121.906 81.1555 122.043 80.0848 122.043 80.0848H123.978L124.359 81.0051C124.55 81.4675 125.123 81.8734 125.559 82.1826L125.614 82.2219C126.879 83.1198 127.359 84.568 127.359 86.0957C127.359 87.386 126.842 88.5956 125.903 89.5014C124.965 90.407 123.723 91.1707 122.404 91.1518C121.359 91.1369 120.289 90.5607 119.454 89.9362C118.644 89.3315 117.596 87.6775 117.422 87.2957C117.247 86.9139 117.165 87.5165 117.216 87.6775C117.552 88.7421 118.239 89.7035 119.15 90.3847C120.093 91.089 121.215 91.4702 122.395 91.487C123.882 91.508 125.283 90.9575 126.341 89.9362C127.399 88.9148 127.982 87.5508 127.982 86.0957C127.982 84.373 127.131 82.74 125.705 81.7276C125.358 81.4809 125.092 81.1519 124.936 80.7759L124.584 79.9228C124.873 79.7405 125.066 79.4221 125.066 79.0602C125.066 78.549 124.682 78.1241 124.182 78.0479C124.079 77.3296 123.512 76.7554 122.789 76.6253L122.749 76.6253L122.271 66.1306C122.242 62.1359 122.616 54.1516 122.616 54.1516C122.623 51.0812 122.66 48.3893 122.729 46.076L122.752 45.3455ZM123.535 84.5308C123.535 84.7672 123.731 84.9594 123.973 84.9594H124.046C124.065 84.9594 124.084 84.9597 124.103 84.96H124.104H124.104H124.104H124.104C124.318 84.9634 124.483 84.9661 124.483 84.5308C124.483 84.0564 123.535 83.8665 123.535 83.8665V84.5308ZM121.42 84.5308C121.511 85.3879 120.273 85.1277 120.233 84.5308C120.192 83.9339 121.42 83.8665 121.42 83.8665V84.5308ZM122.477 77.2076C121.959 77.2076 121.523 77.5614 121.408 78.0356H123.546C123.432 77.5615 122.996 77.2076 122.477 77.2076ZM124.02 78.6462C124.253 78.6462 124.443 78.8319 124.443 79.0602C124.443 79.2885 124.253 79.4742 124.02 79.4742H120.934C120.701 79.4742 120.512 79.2885 120.512 79.0602C120.512 78.8319 120.701 78.6462 120.934 78.6462H124.02ZM129.906 81.3041H129.361C129.207 81.3041 129.083 81.1809 129.083 81.0289C129.083 80.8769 129.207 80.7537 129.361 80.7537H129.906C130.059 80.7537 130.184 80.8769 130.184 81.0289C130.184 81.1809 130.059 81.3041 129.906 81.3041ZM128.928 83.2526L129.452 83.4732C129.6 83.5353 129.672 83.7115 129.612 83.8665C129.553 84.0216 129.385 84.0968 129.237 84.0346L128.713 83.814C128.566 83.7518 128.494 83.5757 128.553 83.4207C128.598 83.3025 128.706 83.2307 128.821 83.2307C128.856 83.2307 128.893 83.2378 128.928 83.2526ZM128.951 78.3703L128.46 78.7642C128.322 78.8753 128.132 78.8352 128.036 78.6748C127.94 78.5143 127.975 78.2941 128.113 78.183L128.604 77.789C128.657 77.7466 128.718 77.7262 128.778 77.7262C128.874 77.7262 128.969 77.7794 129.029 77.8785C129.124 78.039 129.09 78.2592 128.951 78.3703ZM115.318 81.3041H114.774C114.62 81.3041 114.496 81.1809 114.496 81.0289C114.496 80.8769 114.62 80.7537 114.774 80.7537H115.318C115.472 80.7537 115.597 80.8769 115.597 81.0289C115.597 81.1809 115.472 81.3041 115.318 81.3041ZM115.227 83.4732L115.751 83.2526C115.786 83.2378 115.823 83.2307 115.859 83.2307C115.973 83.2307 116.081 83.3026 116.126 83.4207C116.185 83.5757 116.114 83.7518 115.966 83.814L115.442 84.0346C115.294 84.0968 115.126 84.0216 115.067 83.8665C115.008 83.7115 115.079 83.5353 115.227 83.4732ZM116.219 78.7642L115.728 78.3703C115.589 78.2592 115.555 78.039 115.651 77.8785C115.71 77.7794 115.805 77.7262 115.902 77.7262C115.962 77.7262 116.022 77.7466 116.075 77.789L116.566 78.183C116.704 78.2941 116.739 78.5142 116.643 78.6747C116.547 78.8352 116.358 78.8753 116.219 78.7642Z" fill="#FCA740"/>
<path d="M82.0928 122.198C85.1286 122.997 86.6864 124.899 88.002 126.67C89.3203 128.441 86.4222 127.598 84.8231 126.959C83.224 126.32 79.3735 123.956 79.3735 123.956L66.6084 120.095V114.191L70.4258 113.968C70.4258 113.968 79.0543 121.399 82.0928 122.198Z" fill="white"/>
<path d="M68.8658 78.9565C71.5961 89.2898 73.0053 99.1768 73.2282 108.662C73.2282 108.662 75.7851 108.981 75.4658 111.218C75.1465 113.456 68.4337 119.528 68.4337 119.528L66.108 111.819L65.2383 83.4122L68.8658 78.9565Z" fill="white"/>
<path fill-rule="evenodd" clip-rule="evenodd" d="M69.7972 84.2451L68.2294 83.2052C68.1293 83.1387 67.9972 83.1904 67.9612 83.31L67.4145 85.1257C67.3689 85.2769 67.505 85.4186 67.646 85.3669L69.7604 84.5911C69.9046 84.5382 69.9266 84.3309 69.7972 84.2451ZM69.6075 84.5454L67.6809 85.1027L68.2543 83.4513L69.6075 84.5454Z" fill="#FCA740"/>
<path fill-rule="evenodd" clip-rule="evenodd" d="M69.1092 97.3184L67.5414 96.2785C67.4413 96.2121 67.3092 96.2637 67.2732 96.3833L66.7265 98.199C66.6809 98.3502 66.817 98.492 66.958 98.4402L69.0724 97.6644C69.2166 97.6115 69.2386 97.4043 69.1092 97.3184ZM68.9195 97.6185L66.993 98.1758L67.5664 96.5245L68.9195 97.6185Z" fill="#FCA740"/>
<path fill-rule="evenodd" clip-rule="evenodd" d="M68.2849 104.663L68.4016 102.786C68.4091 102.666 68.2983 102.577 68.1767 102.606L66.3309 103.04C66.1772 103.076 66.1225 103.265 66.2378 103.361L67.9669 104.804C68.0848 104.903 68.2753 104.818 68.2849 104.663ZM67.9302 104.649L66.4843 103.259L68.2012 102.93L67.9302 104.649Z" fill="#FCA740"/>
<path fill-rule="evenodd" clip-rule="evenodd" d="M71.2563 103.278L69.3787 103.161C69.2587 103.154 69.1702 103.265 69.1988 103.386L69.6332 105.232C69.6693 105.386 69.858 105.44 69.9542 105.325L71.3975 103.596C71.4959 103.478 71.4113 103.288 71.2563 103.278ZM71.2421 103.633L69.8523 105.079L69.5233 103.362L71.2421 103.633Z" fill="#FCA740"/>
<path fill-rule="evenodd" clip-rule="evenodd" d="M69.8067 112.85L68.1223 113.688C68.0147 113.741 67.9933 113.881 68.0789 113.972L69.378 115.354C69.4862 115.469 69.6769 115.422 69.7026 115.274L70.088 113.055C70.1143 112.903 69.9458 112.781 69.8067 112.85ZM69.9719 113.164L69.4913 115.111L68.3479 113.789L69.9719 113.164Z" fill="#FCA740"/>
<path fill-rule="evenodd" clip-rule="evenodd" d="M70.6324 107.62L68.9479 108.458C68.8404 108.512 68.819 108.652 68.9046 108.743L70.2037 110.124C70.3119 110.239 70.5026 110.192 70.5283 110.044L70.9137 107.825C70.94 107.674 70.7715 107.551 70.6324 107.62ZM70.7973 107.935L70.3166 109.882L69.1732 108.56L70.7973 107.935Z" fill="#FCA740"/>
<path d="M59.712 85.1703L57.8598 90.762C53.6261 103.568 51.5413 110.068 51.4787 110.678C51.4397 111.056 51.6693 111.339 52.0233 111.435C52.236 111.493 52.4962 111.49 52.8194 111.442C53.3221 111.368 53.9943 111.179 54.8059 110.899C55.4333 110.682 56.1113 110.422 56.798 110.141L57.0869 110.021C57.1808 109.982 57.2721 109.944 57.3604 109.907L57.8193 109.709L57.9503 109.651L58.0265 109.53C58.1618 109.314 58.3546 108.933 58.5447 108.411C58.7117 107.952 58.8449 107.461 58.9325 106.942L58.9631 106.746C58.9903 106.555 59.2521 106.114 59.7918 105.36L60.168 104.845C60.4765 104.43 61.0702 103.635 61.1299 103.555L61.4789 103.082C61.8125 102.627 62.1037 102.221 62.3882 101.811C63.8154 99.7567 64.8239 97.9582 65.4188 96.2276C65.9235 94.7595 66.1005 93.3992 65.9006 92.1488C65.5946 90.2398 65.7118 88.416 66.1585 86.7042C66.5297 85.2819 65.3557 83.9697 63.6633 83.4873C61.9146 82.9889 60.2485 83.5535 59.712 85.1703Z" fill="white"/>
<path d="M62.8121 76.9014C63.8437 77.9963 64.7093 78.8312 65.4088 79.4062C66.5872 80.3747 68.2763 81.4128 70.4764 82.5203C63.747 84.0787 59.6379 84.3867 58.1491 83.4446C58.1491 83.4446 58.7692 80.5266 59.6602 79.2764C60.3236 78.3455 62.8121 76.9014 62.8121 76.9014Z" fill="white"/>
<path d="M73.5168 62.8342C72.1186 68.1445 68.2984 73.6884 64.2305 72.6178C60.1627 71.5468 57.9113 64.2888 59.3094 58.9785C60.7076 53.6682 65.1388 50.2314 69.2067 51.3021C73.2746 52.3727 74.9149 57.5242 73.5168 62.8342Z" fill="white"/>
<path d="M74.4472 64.5277C72.8649 70.6049 68.5416 76.9494 63.938 75.7241C59.3344 74.4986 56.7865 66.1924 58.3688 60.1153C59.9511 54.0381 64.9659 50.105 69.5695 51.3303C74.1731 52.5555 76.0295 58.4509 74.4472 64.5277Z" fill="white"/>
<path fill-rule="evenodd" clip-rule="evenodd" d="M67.1003 52.0293C70.2374 52.2075 72.5268 53.2381 73.8103 55.0541L73.9549 55.2641C74.5897 56.1801 75.1234 56.7566 75.3568 58.4904L75.3793 58.6747C75.5126 59.8153 75.5517 61.0185 75.4832 61.4178C75.4462 61.5865 75.3738 61.6454 75.2825 61.6276C75.0751 61.587 74.5382 60.6329 73.6717 58.7652L72.9446 59.6163C72.5489 60.0735 71.7097 60.5044 71.2123 60.8282C70.715 61.1521 67.1003 52.0293 67.1003 52.0293Z" fill="#E0E0E0"/>
<path fill-rule="evenodd" clip-rule="evenodd" d="M70.2678 69.2798C72.0146 70.0083 73.3415 70.9546 73.6934 70.561C74.0452 70.1675 72.8453 68.9691 71.913 67.3415C70.9371 65.723 70.01 63.6842 69.8367 62.8548L69.393 60.7582C68.095 62.3962 66.8797 67.8918 70.2678 69.2798Z" fill="white"/>
<path d="M90.5763 169.356L90.4817 175.186H87.1657L86.1726 168.497L90.5763 169.356Z" fill="white"/>
<path d="M54.2605 138.356C54.2605 138.356 75.776 137.881 82.5396 136.905C90.0476 135.822 94.1537 133.263 95.7866 133.565C96.5517 133.707 101.068 134.508 110.492 135.51C114.477 135.934 124.823 135.999 124.823 135.999L128.838 127.452C128.838 127.452 100.582 121.78 91.6483 124.235C88.8383 125.007 82.7531 126.122 75.5182 125.715C69.2619 125.363 52.2466 122.058 52.2466 122.058C52.2466 122.058 45.3766 124.524 46.6201 130.589C47.8637 136.653 54.2605 138.356 54.2605 138.356Z" fill="white"/>
<path fill-rule="evenodd" clip-rule="evenodd" d="M126.536 131.109L127.858 127.279C127.858 127.279 99.65 122.018 90.7165 124.473C87.9064 125.245 85.3671 126.519 78.1321 126.112C75.3624 125.956 70.6269 125.308 63.9256 124.167C60.5357 123.59 59.9911 123.804 62.6554 125.546C68.8338 129.586 82.5769 128.634 95.0464 126.813C118.221 123.43 126.536 131.109 126.536 131.109Z" fill="#E0E0E0"/>
<path d="M86.8333 170.68C85.4296 172.231 83.5691 174.785 84.5269 177.342L101.148 182.456C101.148 182.456 101.787 180.537 100.829 178.941C99.8682 177.342 90.7997 171.033 90.7997 171.033L86.8333 170.68Z" fill="white"/>
<path fill-rule="evenodd" clip-rule="evenodd" d="M94.505 174.144C94.615 174.114 94.7284 174.179 94.7582 174.289C94.788 174.399 94.723 174.512 94.613 174.542C94.0716 174.689 93.715 175.031 93.5895 175.464C93.4273 176.024 93.4096 176.597 93.5936 177.513C93.6161 177.625 93.5437 177.734 93.4319 177.756C93.3201 177.779 93.2113 177.706 93.1889 177.595C92.9921 176.614 93.0119 175.974 93.193 175.349C93.3591 174.776 93.8263 174.328 94.505 174.144Z" fill="#E0E0E0"/>
<path fill-rule="evenodd" clip-rule="evenodd" d="M85.3525 177.617L101.704 182.429C101.704 182.429 103.781 181.992 101.634 181.687C99.4273 181.373 86.5101 175.458 85.0893 176.536C84.8872 176.689 85.2274 177.283 85.3525 177.617Z" fill="#E0E0E0"/>
<path d="M44.6086 137.136C44.6086 137.136 51.987 139.465 57.9286 140.338C63.8702 141.211 75.7219 141.708 75.7219 141.708C75.7219 141.708 79.422 143.719 79.6607 144.651C79.7537 145.014 80.3144 149.808 81.8646 155.932C82.5939 158.813 86.4906 171.841 86.4906 171.841L91.6483 169.558C91.6483 169.558 91.4412 145.613 88.1488 137.671C84.8564 129.729 51.0135 122.015 51.0135 122.015C51.0135 122.015 43.8309 120.716 41.8755 126.589C39.9202 132.463 44.6086 137.136 44.6086 137.136Z" fill="white"/>
<path fill-rule="evenodd" clip-rule="evenodd" d="M87.3162 171.016L92.474 168.733C92.3359 152.769 91.1693 142.14 88.9744 136.845C88.9744 136.845 91.2175 165.032 87.3162 171.016Z" fill="#E0E0E0"/>
<path d="M132.292 131.423C133.576 133.075 135.768 135.351 138.452 134.852L146.375 119.371C146.375 119.371 144.336 118.469 142.598 119.135C140.856 119.804 133.198 127.795 133.198 127.795L132.292 131.423Z" fill="white"/>
<path fill-rule="evenodd" clip-rule="evenodd" d="M97.8816 176.893C97.9639 176.814 98.0946 176.817 98.1735 176.899C98.2524 176.981 98.2496 177.112 98.1673 177.191C97.6876 177.65 97.5987 178.42 97.8738 178.885C97.9319 178.983 97.8994 179.11 97.8013 179.168C97.7032 179.226 97.5766 179.194 97.5185 179.096C97.1475 178.469 97.2608 177.488 97.8816 176.893Z" fill="#E0E0E0"/>
<path fill-rule="evenodd" clip-rule="evenodd" d="M96.1955 175.531C96.2786 175.453 96.4092 175.457 96.4873 175.541C96.5653 175.624 96.5612 175.754 96.4782 175.832L96.3665 175.94C95.4984 176.794 95.2496 177.541 96.0139 178.342C96.0926 178.425 96.0895 178.555 96.007 178.634C95.9245 178.713 95.7939 178.709 95.7152 178.627C95.1503 178.035 95.0343 177.395 95.2845 176.755C95.4571 176.314 95.7575 175.943 96.1955 175.531Z" fill="#E0E0E0"/>
<path fill-rule="evenodd" clip-rule="evenodd" d="M88.2506 175.261C88.7243 176.167 91.2401 175.795 90.8023 173.29C90.5951 172.105 86.9383 172.752 88.2506 175.261Z" fill="#E0E0E0"/>
<path fill-rule="evenodd" clip-rule="evenodd" d="M136.882 135.14C140.206 131.341 142.117 122.797 144.854 119.857C145.821 118.819 147.074 118.586 145.725 121.043C143.256 125.538 138.512 135.14 138.512 135.14C138.261 135.265 137.951 135.14 137.67 135.14H136.882Z" fill="#E0E0E0"/>
<path d="M82.0927 122.198C85.1285 122.997 86.6863 124.899 88.0019 126.67C89.3202 128.441 86.4221 127.598 84.823 126.959C83.2239 126.32 80.165 123.894 80.165 123.894L82.0927 122.198Z" fill="white"/>
<path d="M54.4405 115.007C54.4405 115.007 71.5295 122.348 73.9378 122.358C76.3433 122.368 82.247 125.234 82.5662 127.472C82.9543 130.193 72.658 126.193 72.658 126.193C72.658 126.193 49.646 126.193 45.8121 122.358C41.9757 118.523 44.5323 110.532 44.5323 110.532L54.4405 115.007Z" fill="white"/>
<path d="M50.2846 80.8091C50.2846 80.8091 54.4406 83.3657 55.0791 91.6757C55.7177 99.9855 53.1608 109.893 53.1608 109.893C53.1608 109.893 54.7599 111.172 55.0791 112.45C55.3984 113.729 54.4268 115.416 54.4268 115.416C54.4268 115.416 44.8522 120.121 44.2128 120.441C43.5737 120.76 41.0168 119.801 41.0168 117.244C41.0168 114.688 41.9757 112.45 41.9757 112.45C42.4346 95.5829 39.7384 79.2109 50.2846 80.8091Z" fill="white"/>
<path fill-rule="evenodd" clip-rule="evenodd" d="M67.2139 63.1269C68.197 61.8105 70.2748 61.3819 70.8293 63.4601C70.8293 63.4601 71.2553 64.714 70.3966 65.4887C67.7662 67.8622 66.2309 64.4433 67.2139 63.1269Z" fill="white"/>
<path fill-rule="evenodd" clip-rule="evenodd" d="M72.7034 64.5547C73.6373 63.3041 75.6112 62.897 76.138 64.8713C76.138 64.8713 76.5427 66.0625 75.727 66.7985C73.228 69.0533 71.7694 65.8053 72.7034 64.5547Z" fill="white"/>
<path d="M65.0561 80.5623C65.0561 80.5623 65.0561 95.9256 65.2818 104.511C65.5075 113.096 63.5396 121.555 59.78 128.17C56.0203 134.786 56.532 144.249 53.7607 144.952C31.8401 150.516 37.7419 82.4279 45.8525 78.077C53.9632 73.7261 56.6424 72.8044 56.6424 72.8044" fill="white"/>
<path fill-rule="evenodd" clip-rule="evenodd" d="M53.8139 84.8728L51.9248 87.6934C51.7681 87.9273 51.8864 88.246 52.1578 88.321L54.6786 89.018C54.9716 89.099 55.2487 88.8463 55.195 88.5471L54.5633 85.0296C54.4976 84.6641 54.0205 84.5643 53.8139 84.8728ZM54.2244 85.3068L54.7885 88.6202L52.5965 87.6934L54.2244 85.3068Z" fill="#FCA740"/>
<path fill-rule="evenodd" clip-rule="evenodd" d="M47.7359 82.1177L45.5097 85.6912C45.3675 85.9195 45.478 86.2206 45.734 86.3027L49.6211 87.5488C49.9448 87.6526 50.2482 87.3426 50.1375 87.0212L48.4766 82.2015C48.3634 81.8729 47.9197 81.8227 47.7359 82.1177ZM48.264 82.5533L49.4013 87.0211L46.0311 85.6912L48.264 82.5533Z" fill="#FCA740"/>
<path fill-rule="evenodd" clip-rule="evenodd" d="M46.3645 109.154L47.8788 114.845C47.9719 115.194 48.4379 115.264 48.6286 114.956L50.8801 111.326C51.0049 111.125 50.9352 110.86 50.7274 110.746L46.9616 108.685C46.6432 108.511 46.2711 108.803 46.3645 109.154ZM46.7631 109.323L50.2538 111.108L48.2775 114.739L46.7631 109.323Z" fill="#FCA740"/>
<path fill-rule="evenodd" clip-rule="evenodd" d="M43.3319 130.05L44.1576 133.951C44.2334 134.309 44.7028 134.399 44.9054 134.094L47.136 130.738C47.3006 130.491 47.1574 130.155 46.8647 130.103L43.8083 129.558C43.52 129.507 43.2713 129.764 43.3319 130.05ZM44.0523 129.989L46.7011 130.928L44.4155 133.538L44.0523 129.989Z" fill="#FCA740"/>
<path fill-rule="evenodd" clip-rule="evenodd" d="M50.4879 129.225L51.3136 133.126C51.3894 133.484 51.8588 133.573 52.0614 133.269L54.292 129.913C54.4566 129.665 54.3134 129.33 54.0207 129.278L50.9643 128.733C50.676 128.681 50.4273 128.938 50.4879 129.225ZM50.8702 129.564L53.954 129.479L51.4163 132.739L50.8702 129.564Z" fill="#FCA740"/>
<path fill-rule="evenodd" clip-rule="evenodd" d="M46.6347 121.243L47.4604 125.144C47.5361 125.502 48.0056 125.592 48.2081 125.287L50.4388 121.931C50.6033 121.683 50.4601 121.348 50.1674 121.296L47.111 120.751C46.8227 120.7 46.574 120.957 46.6347 121.243ZM47.0388 121.158L49.82 121.978L47.5893 124.783L47.0388 121.158Z" fill="#FCA740"/>
<path fill-rule="evenodd" clip-rule="evenodd" d="M138.027 133.866C137.819 134.271 137.479 134.441 137.025 134.466C135.409 134.556 134.128 133.843 132.985 132.804C132.551 132.41 132.167 131.962 131.733 131.57C131.427 131.293 131.1 131.114 130.623 131.284C130.258 131.415 129.83 131.366 129.43 131.407C128.53 131.498 127.632 131.618 126.731 131.684C126.156 131.726 126.141 132.216 126.007 132.555C125.701 133.32 125.473 134.117 125.23 134.907C125.136 135.213 124.986 135.334 124.642 135.33C122.923 135.309 121.203 135.311 119.484 135.325C118.701 135.331 117.917 135.425 117.135 135.407C115.665 135.374 114.192 135.327 112.726 135.214C111.307 135.105 109.896 134.901 108.481 134.75C107.487 134.643 106.486 134.587 105.496 134.453C104.345 134.297 103.203 134.069 102.054 133.892C101.479 133.804 100.895 133.778 100.32 133.693C99.3328 133.548 98.3461 133.397 97.3656 133.214C96.4559 133.045 95.6 133.221 94.7437 133.503C93.0764 134.054 91.405 134.592 89.7327 135.126C89.4352 135.222 89.3472 135.3 89.4814 135.661C89.9742 136.986 90.4355 138.326 90.8366 139.682C91.1196 140.639 91.3153 141.624 91.4969 142.607C91.7194 143.811 91.9056 145.023 92.0714 146.236C92.1981 147.163 92.2785 148.097 92.3617 149.029C92.4675 150.214 92.5675 151.399 92.6473 152.586C92.7268 153.768 92.7935 154.951 92.8384 156.135C92.9146 158.145 92.9716 160.156 93.032 162.167C93.0686 163.384 93.0916 164.602 93.1315 165.819C93.1431 166.173 93.2567 166.535 93.2028 166.874C93.1622 167.13 92.9803 167.488 92.7717 167.569C92.2344 167.776 92.0792 168.176 92.0839 168.726C92.0899 169.429 92.1781 170.133 92.1598 170.834C92.1481 171.281 92.3193 171.594 92.6442 171.831C94.1213 172.908 95.6131 173.966 97.0895 175.044C97.7902 175.556 98.4814 176.083 99.153 176.632C99.8723 177.22 100.577 177.828 101.263 178.455C101.946 179.08 102.31 179.844 102.425 180.797C102.514 181.536 102.42 182.222 102.296 182.925C102.232 183.291 102.023 183.441 101.643 183.316C100.044 182.795 98.4474 182.263 96.8407 181.766C94.1865 180.944 91.5251 180.147 88.8665 179.34C87.9189 179.052 86.9712 178.765 86.0225 178.481C85.4413 178.307 85.3186 177.786 85.2107 177.314C84.904 175.972 85.3001 174.751 86.0077 173.626C86.4408 172.937 86.9455 172.294 87.419 171.631C87.8057 171.089 87.7059 170.535 87.5144 169.949C86.8911 168.041 86.2784 166.13 85.6892 164.212C85.1076 162.318 84.5313 160.422 84.0044 158.513C83.4475 156.495 82.9421 154.462 82.4329 152.432C82.1574 151.333 81.8975 150.229 81.6744 149.118C81.5076 148.288 81.4132 147.443 81.2821 146.606C81.1255 145.605 81.0314 144.587 80.7737 143.613C80.6628 143.194 80.2559 142.81 79.9012 142.506C79.1285 141.845 78.2411 141.352 77.2768 141.015C77.0385 140.932 76.7803 140.874 76.529 140.865C75.3328 140.819 74.1352 140.808 72.9391 140.759C71.7708 140.712 70.6029 140.647 69.4362 140.569C68.233 140.488 67.0306 140.391 65.8295 140.283C64.5439 140.168 63.2537 140.076 61.9774 139.891C60.6243 139.696 59.2836 139.412 57.9409 139.149C57.5042 139.064 57.1852 139.329 57.1175 139.945C56.9694 141.291 56.512 142.542 55.9688 143.767C55.577 144.65 54.8377 145.092 53.9258 145.242C53.2748 145.35 52.608 145.453 51.9531 145.428C50.0895 145.357 48.4273 144.743 46.949 143.561C45.0738 142.061 43.9767 140.058 43.0426 137.923C42.624 136.966 42.0852 136.052 41.7566 135.067C41.3998 133.997 41.2192 132.868 40.9708 131.763C40.7774 130.903 40.5801 130.043 40.4174 129.176C40.2888 128.491 40.2078 127.797 40.1101 127.106C39.9802 126.189 39.8522 125.271 39.7288 124.352C39.6879 124.049 39.6476 123.743 39.6348 123.437C39.5948 122.48 39.5752 121.522 39.5346 120.565C39.4776 119.222 39.3713 117.881 39.3536 116.538C39.3233 114.242 39.3264 111.944 39.3539 109.648C39.366 108.639 39.4513 107.63 39.5419 106.624C39.6449 105.481 39.8011 104.343 39.915 103.201C39.9963 102.386 40.0217 101.564 40.1152 100.751C40.2523 99.557 40.4027 98.3636 40.5936 97.1775C40.8207 95.7668 41.0803 94.3607 41.3548 92.9583C41.8743 90.3044 42.4786 87.6666 43.468 85.145C44.0983 83.5386 44.7561 81.8997 46.0428 80.687C46.5997 80.1621 47.3737 79.8596 48.0657 79.487C49.9651 78.4644 51.8745 77.4603 53.7745 76.439C53.8633 76.3912 53.9396 76.2524 53.9541 76.1467C54.0045 75.7805 53.9821 75.3994 54.0721 75.0454C54.1306 74.8148 54.2924 74.5618 54.4836 74.4224C55.1246 73.9549 55.7961 73.5286 56.4646 73.0999C56.5842 73.0233 56.7536 72.9561 56.885 72.9773C57.5897 73.0911 57.9433 72.6574 58.1849 72.1238C58.512 71.4013 58.8105 70.6622 59.0643 69.9109C59.4846 68.6666 59.9085 67.4192 60.2265 66.1471C60.3362 65.7083 60.1674 65.1848 60.0683 64.712C59.8666 63.75 59.6993 62.7702 59.3747 61.8481C59.1671 61.2586 58.7471 60.7239 58.3457 60.2264C57.3079 58.9401 56.7628 57.4995 56.9373 55.8488C57.0131 55.1321 57.3205 54.4642 57.8566 53.9434C58.4875 53.3306 59.1344 52.7342 59.7672 52.1234C60.2286 51.6781 60.1955 51.3377 59.5948 50.9024C58.754 50.2931 57.9477 49.6349 57.1434 48.9772C56.4565 48.4155 56.1609 47.613 55.979 46.7903C55.7314 45.6711 55.7017 44.542 56.1582 43.4496C56.8883 41.7025 57.9403 40.2607 59.8662 39.7171C61.5635 39.2379 63.2568 39.2704 64.7801 40.2326C66.1642 41.1068 67.0433 42.409 67.43 44.0162C67.8838 45.9024 67.3673 47.5998 66.414 49.2142C66.3342 49.3494 66.326 49.5269 66.2846 49.6848C66.4263 49.7116 66.5672 49.756 66.7099 49.7625C68.5432 49.846 70.3655 50.0495 72.0075 50.9234C74.1627 52.0704 75.5182 53.8882 76.1161 56.2543C76.2056 56.6085 76.2049 56.9892 76.2166 57.3586C76.2565 58.6182 76.2599 59.8796 76.3343 61.137C76.3498 61.3995 76.5507 61.7216 76.7654 61.8898C77.7958 62.6968 78.1464 64.6731 77.1881 65.8429C77.0922 65.9599 77.0107 66.0887 76.9165 66.2073C76.5484 66.6707 76.0144 66.8956 75.4829 66.801C75.0299 66.7203 74.9916 66.8728 74.842 67.207C74.523 67.9202 74.1406 68.6102 73.7284 69.2752C73.176 70.1666 72.6119 71.0569 71.9731 71.8863C71.5873 72.3872 71.0661 72.7903 70.5775 73.2041C69.9849 73.7059 69.3583 74.1674 68.7548 74.6567C68.4538 74.9008 68.1238 75.0269 67.7392 74.9714C67.3404 74.9139 67.116 75.1382 66.9992 75.4611C66.7737 76.0849 66.5699 76.7178 66.3919 77.3567C66.3544 77.4913 66.4339 77.6876 66.5153 77.8216C67.2268 78.9927 67.9335 80.1674 68.677 81.3183C69.2803 82.2524 69.9663 83.134 70.5502 84.0793C70.9113 84.664 71.1505 85.324 71.443 85.9509C71.9532 87.0445 72.4742 88.1334 72.9617 89.237C73.062 89.4641 73.0894 89.7549 73.0544 90.0028C73.0034 90.3637 72.6475 90.479 72.2617 90.246C71.8135 89.9753 71.3914 89.659 70.9718 89.3442C70.7119 89.1492 70.4782 88.9195 70.2313 88.7071C70.2027 88.6825 70.1644 88.6693 70.1307 88.6507C70.1253 88.6938 70.1102 88.7383 70.1161 88.7798C70.1852 89.2652 70.2406 89.7535 70.3334 90.2345C70.4293 90.7312 70.5753 91.2182 70.6762 91.7141C70.8766 92.6993 71.0703 93.686 71.2497 94.6752C71.4514 95.7877 71.6454 96.9018 71.8207 98.0187C71.9108 98.5928 71.9414 99.1761 72.019 99.7526C72.1363 100.624 72.2837 101.492 72.3935 102.364C72.4534 102.841 72.4665 103.324 72.493 103.804C72.529 104.459 72.5529 105.115 72.5905 105.769C72.6831 107.385 72.7768 109.001 72.8788 110.616C72.9041 111.016 73.1394 111.324 73.5 111.438C74.5256 111.764 75.2424 112.962 75.0698 113.961C75.0297 114.193 74.9781 114.434 74.8758 114.643C74.6305 115.146 74.9505 115.431 75.2687 115.693C75.7853 116.117 76.3238 116.516 76.8634 116.912C78.1444 117.851 79.4343 118.777 80.7153 119.716C81.8758 120.567 83.1563 121.158 84.5303 121.577C85.6334 121.914 86.5717 122.552 87.4537 123.287C87.8869 123.648 88.2617 124.182 88.9479 124.051C89.919 123.864 90.8872 123.661 91.8558 123.462C92.1478 123.402 92.4344 123.314 92.7278 123.263C93.7497 123.087 94.3531 122.364 94.9545 121.616C95.4021 121.06 95.9011 120.545 96.3668 120.002C97.2828 118.935 98.1891 117.86 99.1047 116.793C99.5598 116.262 100.028 115.743 100.488 115.216C101.783 113.732 103.071 112.241 104.375 110.764C105.058 109.99 105.77 109.241 106.465 108.477C106.652 108.271 106.852 108.071 107 107.838C107.225 107.485 107.455 107.377 107.895 107.519C108.856 107.83 108.839 107.771 108.167 108.508C106.963 109.829 105.799 111.186 104.613 112.524C104.034 113.178 103.435 113.815 102.86 114.473C101.851 115.627 100.858 116.795 99.8513 117.952C99.1369 118.773 98.4136 119.586 97.6904 120.399C97.1308 121.028 96.5634 121.651 96.0057 122.281C95.957 122.336 95.9186 122.489 95.9359 122.5C96.0722 122.585 96.2257 122.712 96.3693 122.706C97.5376 122.661 98.7044 122.571 99.8728 122.531C100.747 122.501 101.625 122.501 102.499 122.531C103.62 122.57 104.743 122.618 105.858 122.725C107.102 122.845 108.338 123.036 109.578 123.193C110.849 123.354 112.124 123.487 113.391 123.678C114.657 123.869 115.912 124.126 117.175 124.337C118.221 124.51 119.275 124.64 120.319 124.822C121.652 125.053 122.977 125.323 124.307 125.567C125.241 125.739 126.179 125.889 127.113 126.06C128.013 126.226 128.909 126.418 129.811 126.578C130.379 126.678 130.952 126.78 131.526 126.804C131.766 126.814 132.073 126.683 132.252 126.513C133.617 125.214 134.941 123.871 136.312 122.578C137.847 121.132 139.453 119.766 141.184 118.552C141.975 117.997 142.862 118.094 143.725 118.169C144.228 118.212 144.714 118.454 145.207 118.611C145.611 118.739 145.647 118.989 145.467 119.342C144.651 120.945 143.849 122.555 143.032 124.157C142.326 125.542 141.607 126.921 140.869 128.326C139.906 130.189 138.968 132.028 138.027 133.866ZM62.4528 122.047C62.8821 120.806 63.2589 119.544 63.5974 118.274C63.8174 117.449 63.9421 116.598 64.0834 115.754C64.2286 114.887 64.3501 114.016 64.4674 113.144C64.6037 112.132 64.8159 111.12 64.8323 110.105C64.8654 108.066 64.7811 106.027 64.7586 103.987C64.7449 102.741 64.7377 101.494 64.762 100.248C64.7811 99.2682 64.2109 98.5376 63.7953 97.7339C63.5186 97.1988 63.2266 96.6589 63.0499 96.0875C62.7257 95.0395 62.4621 93.9713 62.2109 92.9027C62.0391 92.172 61.9125 91.4292 61.7996 90.6866C61.6688 89.8274 61.3863 89.0203 61.0196 88.2406C60.9888 88.1752 60.731 88.1274 60.7034 88.1645C60.5556 88.3624 60.4454 88.5888 60.3261 88.8074C60.1136 89.1966 59.7907 89.5671 59.7169 89.9814C59.5695 90.8095 59.1879 91.52 58.7978 92.2305C58.555 92.6727 58.1462 92.6841 57.8622 92.2783C57.5569 91.8421 57.2271 91.4018 57.0323 90.9138C56.5743 89.7663 56.1642 88.5978 55.7828 87.4222C55.2816 85.8772 54.8089 84.3224 54.359 82.7618C54.1241 81.947 53.8899 81.1194 53.7913 80.2816C53.6946 79.4602 53.7711 78.6185 53.7686 77.7858C53.7684 77.7113 53.7456 77.6368 53.7333 77.5624C53.6995 77.5889 53.6687 77.6207 53.6316 77.6411C52.7588 78.1213 51.8914 78.6117 51.0102 79.0761C50.1363 79.5366 49.2581 79.9913 48.3639 80.4105C47.3841 80.8699 46.4007 81.3438 45.8331 82.3062C45.2191 83.3473 44.5015 84.3397 44.1316 85.5134C43.7503 86.7233 43.319 87.9193 42.9871 89.1425C42.6476 90.3936 42.4164 91.6738 42.1104 92.9346C41.915 93.7399 41.593 94.521 41.4648 95.3346C41.2692 96.5757 41.1482 97.8331 41.0781 99.0882C41.018 100.165 41.0226 101.245 40.8772 102.318C40.7643 103.152 40.6876 103.99 40.586 104.824C40.4312 106.095 40.153 107.364 40.1331 108.636C40.089 111.454 40.2051 114.274 40.1919 117.092C40.1851 118.569 40.4054 120.013 40.5793 121.469C40.7725 123.086 40.8869 124.712 41.0712 126.329C41.1965 127.429 41.3218 128.534 41.5563 129.613C41.9381 131.37 42.3482 133.126 42.8579 134.849C43.4939 136.999 44.4277 139.024 45.7425 140.861C46.5641 142.009 47.567 142.949 48.8052 143.625C50.4838 144.541 52.2839 144.462 54.0875 144.182C54.3833 144.136 54.766 143.909 54.8927 143.657C55.2477 142.951 55.5579 142.206 55.76 141.443C56.0472 140.359 56.1741 139.233 56.4559 138.147C56.9204 136.357 57.505 134.597 57.9428 132.801C58.3034 131.322 58.9905 129.987 59.5876 128.611C60.0269 127.599 60.5466 126.622 61.0782 125.581C61.5399 124.404 62.0401 123.241 62.4528 122.047ZM78.2971 140.322C79.1656 140.853 80.0172 141.415 80.8435 142.01C81.3596 142.381 81.7303 142.92 81.8435 143.544C82.1055 144.988 82.279 146.448 82.5324 147.893C82.7102 148.908 82.9654 149.909 83.1767 150.918C83.3487 151.739 83.5076 152.563 83.6707 153.386C83.8311 154.195 83.9871 155.005 84.1494 155.813C84.273 156.43 84.401 157.045 84.5313 157.66C84.742 158.654 84.9098 159.661 85.1822 160.638C85.4505 161.6 85.854 162.525 86.1485 163.481C86.6386 165.072 87.2466 166.613 87.9511 168.121C88.1181 168.479 88.3991 168.407 88.5655 168.342C89.6194 167.929 90.6591 167.479 91.692 167.015C92.0179 166.869 92.1912 166.585 92.1762 166.198C92.1354 165.145 92.107 164.092 92.0782 163.039C92.0437 161.78 92.0142 160.52 91.982 159.261C91.9505 158.027 91.9435 156.793 91.8794 155.561C91.8167 154.358 91.6987 153.158 91.5991 151.957C91.4751 150.46 91.3597 148.963 91.2128 147.469C91.1114 146.437 91.0185 145.4 90.8234 144.383C90.4856 142.624 90.0706 140.879 89.6896 139.128C89.2455 137.087 88.3878 135.309 86.6917 133.973C85.4 132.956 84.0449 132.048 82.5799 131.322C80.959 130.519 79.3202 129.738 77.6378 129.078C75.7147 128.323 73.8466 127.37 71.7291 127.197C70.7118 127.113 69.7026 126.935 68.6869 126.827C67.8721 126.74 67.0506 126.716 66.2362 126.626C64.9472 126.485 63.6631 126.298 62.3729 126.171C62.1919 126.153 61.9195 126.323 61.8085 126.487C61.5535 126.863 61.3615 127.284 61.1624 127.696C60.5407 128.981 59.8124 130.23 59.3394 131.569C58.7143 133.338 58.2901 135.178 57.7832 136.988C57.496 138.014 57.4898 138.059 58.3841 138.247C59.4188 138.464 60.4699 138.608 61.5182 138.752C62.2039 138.846 62.8987 138.873 63.5868 138.952C64.8909 139.101 66.1916 139.281 67.4965 139.421C68.3269 139.511 69.1616 139.565 69.9956 139.615C71.242 139.689 72.489 139.758 73.7367 139.803C74.4838 139.83 75.2327 139.808 76.0764 139.808C76.8598 139.794 77.6251 139.911 78.2971 140.322ZM115.737 134.365C116.54 134.402 117.344 134.441 118.149 134.459C120.013 134.498 121.878 134.53 123.743 134.552C124.116 134.557 124.451 134.403 124.551 134.019C125.092 131.956 126.154 130.044 126.291 127.861C126.325 127.308 126.086 126.917 125.52 126.818C124.931 126.715 124.349 126.57 123.761 126.458C123.022 126.317 122.279 126.194 121.539 126.058C120.874 125.935 120.21 125.808 119.547 125.68C119.061 125.586 118.577 125.483 118.091 125.391C117.161 125.215 116.23 125.043 115.298 124.872C114.661 124.755 114.025 124.636 113.386 124.533C112.89 124.454 112.39 124.404 111.893 124.331C110.843 124.178 109.794 124.019 108.745 123.862C108.146 123.772 107.548 123.674 106.947 123.593C106.146 123.485 105.343 123.302 104.542 123.306C102.531 123.318 100.52 123.406 98.5093 123.485C97.5479 123.522 96.5847 123.576 95.6293 123.684C95.0946 123.744 94.5802 123.913 94.1923 124.364C93.5605 125.098 92.882 125.792 92.2435 126.52C91.8405 126.98 91.4631 127.464 91.0947 127.953C90.6073 128.599 90.0129 128.992 89.163 128.926C87.771 128.819 86.3769 128.739 84.9849 128.633C84.4682 128.593 83.9541 128.516 83.4405 128.444C82.5693 128.322 81.7008 128.181 80.8287 128.066C79.9947 127.957 79.1581 127.867 78.3213 127.781C78.085 127.756 77.8437 127.77 77.6057 127.783C77.5583 127.786 77.5153 127.867 77.4702 127.912C77.5188 127.934 77.5684 127.955 77.6158 127.979C78.0346 128.198 78.4423 128.441 78.8735 128.632C80.1379 129.19 81.4418 129.668 82.6744 130.288C84.4641 131.188 86.1342 132.287 87.6528 133.608C88.1236 134.018 88.5755 134.322 89.3477 134.219C90.5717 134.057 91.7156 133.755 92.8139 133.22C94.2922 132.501 95.7962 131.911 97.496 132.263C98.4795 132.467 99.4684 132.646 100.45 132.857C101.073 132.99 101.68 133.21 102.306 133.303C103.084 133.418 103.876 133.439 104.661 133.507C106.088 133.631 107.515 133.763 108.943 133.887C109.912 133.971 110.882 134.047 111.9 134.175C113.179 134.238 114.458 134.305 115.737 134.365ZM65.9937 106.779C66.0078 107.16 65.9926 107.542 65.9989 107.924C66.0287 109.709 66.0567 111.494 66.0966 113.279C66.1082 113.796 66.0855 114.331 66.2041 114.827C66.4443 115.833 66.7594 116.821 67.0663 117.81C67.1977 118.233 67.3805 118.636 67.859 118.803C68.2753 118.949 68.6785 119.133 69.0956 119.276C69.7145 119.488 69.9042 119.408 70.3078 118.842C70.4413 118.654 70.5953 118.481 70.7453 118.306C71.7123 117.179 72.7085 116.075 73.6398 114.918C74.3271 114.065 74.2079 112.692 73.0569 112.251C72.9332 112.204 72.8105 112.147 72.6819 112.12C72.0018 111.979 72.0332 111.981 72.0106 111.338C71.9298 109.042 72.1993 106.74 71.8385 104.446C71.6945 103.53 71.7537 102.583 71.6214 101.665C71.4154 100.236 71.1301 98.8179 70.8684 97.3971C70.6209 96.0533 70.3728 94.7093 70.1017 93.3702C69.8994 92.3709 69.6562 91.3799 69.4383 90.3836C69.2721 89.6238 69.1416 88.855 68.9409 88.1047C68.8866 87.9019 68.6349 87.7518 68.4738 87.5775C68.2854 87.7595 67.9552 87.9254 67.9325 88.1262C67.8169 89.1441 67.66 90.1818 67.7494 91.1921C67.8522 92.3523 68.0263 93.5027 67.8048 94.6548C67.5524 95.9673 67.1325 97.2279 66.4211 98.3765C66.0268 99.0132 65.7323 99.6738 65.7994 100.462C65.8658 101.241 65.8874 102.025 65.8985 102.808C65.9142 103.922 65.9025 105.036 65.9025 106.245C65.9343 106.423 65.9871 106.6 65.9937 106.779ZM60.9849 67.3367C60.9045 67.4612 60.7931 67.5754 60.7487 67.7116C60.295 69.0999 59.8807 70.5018 59.3958 71.8789C59.1037 72.7086 58.6452 73.4489 57.8871 73.9703C57.3364 74.3491 56.8227 74.7813 56.2838 75.1779C56.018 75.3735 56.0741 75.5428 56.2399 75.7804C56.7358 76.491 57.26 77.1899 57.6739 77.9476C58.2452 78.9932 58.7345 80.0843 59.243 81.1634C59.7383 82.2149 60.2557 83.259 60.6847 84.3377C61.0492 85.254 61.2453 86.2381 61.6203 87.1492C61.9593 87.9729 62.3229 88.7848 62.4458 89.667C62.4876 89.9669 62.5848 89.9694 62.8121 89.9686C64.1781 89.9638 65.4973 89.7832 66.6491 88.97C66.7475 88.9005 66.8309 88.7576 66.8496 88.6377C66.8947 88.3475 66.887 88.0495 66.921 87.757C66.9451 87.5507 67.0796 87.3276 67.0314 87.1478C66.8519 86.4792 66.6131 85.8267 66.4044 85.1657C66.0056 83.9031 65.4826 82.6537 65.4469 81.3216C65.4106 79.9662 65.5326 78.6046 65.6254 77.2485C65.6633 76.6953 65.7718 76.1402 65.9116 75.6025C66.0757 74.9717 66.0367 74.7992 65.4675 74.4915C64.5307 73.9853 63.7232 73.3045 63.1458 72.4264C62.2037 70.9935 61.4799 69.4513 61.2215 67.6688C61.1426 67.5581 61.0637 67.4474 60.9849 67.3367ZM74.5738 66.9139C74.5998 66.8623 74.8315 66.7016 74.4869 66.6435C74.1386 66.5848 73.7454 66.4159 73.5063 66.1665C73.0373 65.6774 72.6492 65.1076 72.255 64.5519C72.1434 64.3946 72.1039 64.2991 71.9471 64.4877C71.8475 64.6074 71.7182 64.7024 71.6189 64.8223C70.7571 65.8631 69.5178 66.3051 68.3573 66.0159C66.9662 65.6692 66.1181 64.186 66.0991 62.8991C66.0915 62.3861 65.9293 61.9563 65.5196 61.6612C64.8377 61.1701 64.1363 60.7055 63.4354 60.2415C63.0431 59.9817 62.6693 60.0667 62.5681 60.4763C62.3173 61.4906 62.0052 62.5072 61.9177 63.5398C61.8094 64.8174 61.8609 66.1072 62.1659 67.3821C62.6798 69.5297 63.347 71.5706 65.0997 73.0841C66.2297 74.0599 67.6254 74.2795 68.9709 73.6889C70.3043 73.1036 71.1236 72.021 71.9206 70.8943C72.5905 69.9472 73.2582 68.9986 73.9747 68.003C74.1773 67.6414 74.3873 67.2835 74.5738 66.9139ZM132.32 130.701C133.246 131.88 134.324 132.864 135.799 133.34C136.709 133.634 137.043 133.583 137.547 132.622C138.575 130.662 139.591 128.695 140.605 126.728C141.01 125.942 141.384 125.14 141.789 124.354C142.581 122.82 143.383 121.291 144.186 119.762C144.333 119.483 144.193 119.23 143.978 119.201C143.229 119.101 142.438 118.887 141.742 119.35C140.825 119.96 139.902 120.574 139.058 121.278C137.778 122.346 136.545 123.474 135.332 124.617C134.781 125.136 134.316 125.747 133.827 126.328C133.44 126.788 132.943 127.174 132.796 127.802C132.66 128.382 132.526 128.963 132.391 129.639C132.232 129.985 132.055 130.364 132.32 130.701ZM100.769 181.949C100.988 181.966 101.408 181.867 101.41 181.808C101.439 180.986 101.594 180.115 100.857 179.474C99.8979 178.64 98.9689 177.767 97.9691 176.985C96.3559 175.724 94.6957 174.523 93.0543 173.298C92.4679 172.86 91.8847 172.396 91.1381 172.282C90.47 172.179 89.7888 172.166 89.1183 172.076C88.5527 172.001 88.1678 172.246 87.8244 172.653C86.9915 173.64 86.3857 174.738 86.1567 176.02C85.9772 177.025 86.3006 177.578 87.1116 177.817C88.6558 178.272 90.1891 178.763 91.7304 179.228C92.835 179.562 93.9496 179.862 95.0519 180.202C96.6594 180.698 98.2598 181.217 99.9588 181.726C100.229 181.805 100.495 181.927 100.769 181.949ZM68.3384 120.04C67.2719 119.618 66.2117 119.18 65.1427 118.764C64.8269 118.642 64.5581 118.605 64.4539 119.092C64.3409 119.62 64.0998 120.12 63.9256 120.636C63.539 121.781 63.1506 122.925 62.7846 124.077C62.717 124.289 62.614 124.588 63.0344 124.629C63.5821 124.682 64.1265 124.773 64.6748 124.813C65.7457 124.891 66.8176 124.967 67.8904 125.003C69.4841 125.055 71.079 125.074 72.6735 125.102C73.1827 125.111 73.6922 125.102 74.2015 125.105C74.3254 125.105 74.4568 125.096 74.572 125.132C75.9524 125.564 77.3281 126.011 78.7099 126.438C80.0997 126.868 81.492 127.29 82.9769 127.207C83.4924 127.178 83.587 127.081 83.3974 126.607C83.2939 126.348 83.1502 126.085 82.9598 125.885C82.0296 124.91 80.8943 124.23 79.6793 123.67C78.7115 123.225 77.7654 122.727 76.6767 122.615C76.167 122.563 75.6538 122.49 75.1588 122.362C74.3725 122.158 73.5928 121.922 72.8239 121.66C71.8629 121.333 70.9157 120.966 69.8669 120.616C69.3572 120.424 68.8445 120.241 68.3384 120.04ZM56.345 77.8882C55.8981 77.1955 55.4276 76.518 54.9657 75.8349C54.9014 75.7398 54.8312 75.6488 54.7638 75.5558C54.7192 75.7123 54.6564 75.8661 54.6333 76.0256C54.5569 76.5529 54.514 77.0855 54.4234 77.6101C54.2441 78.6484 54.1466 79.6685 54.8196 80.5914C54.8622 80.6499 54.8957 80.72 54.9149 80.7898C55.1624 81.6894 55.4055 82.5902 55.6523 83.4899C55.7147 83.7178 55.78 83.9453 55.8548 84.1693C56.1767 85.1329 56.5668 86.0793 56.8094 87.0623C57.0585 88.0719 57.2493 89.0867 57.7669 90.0089C57.9155 90.2739 57.9637 90.5938 58.0734 90.8827C58.1062 90.9689 58.2141 91.1078 58.2484 91.0971C58.3577 91.063 58.5019 90.9906 58.5386 90.8964C58.9659 89.7991 59.1717 88.6006 59.9823 87.6792C60.6708 86.8966 60.5279 86.0969 60.1056 85.2614C59.9405 84.9349 59.8384 84.5772 59.6911 84.241C59.3726 83.5141 59.0676 82.7797 58.7111 82.0715C58.3997 81.4528 58.0225 80.8673 57.6797 80.2641C57.4386 79.84 57.2065 79.4108 56.9227 78.9361C56.7315 78.5859 56.5607 78.2226 56.345 77.8882ZM82.1484 121.711C80.7532 120.81 79.3387 119.934 77.9868 118.971C76.8549 118.165 75.8059 117.243 74.7059 116.391C74.409 116.161 74.0682 116.085 73.7648 116.431C73.2733 116.993 72.7723 117.546 72.2815 118.109C71.916 118.527 71.5649 118.959 71.1988 119.377C70.9126 119.704 70.9427 119.879 71.3616 120.005C72.7077 120.407 74.0636 120.777 75.4056 121.193C77.2376 121.76 79.0674 122.336 80.8829 122.954C81.4637 123.151 81.9756 123.55 82.5558 123.75C83.145 123.954 83.7748 124.06 84.3955 124.146C85.1126 124.246 85.8388 124.286 86.5623 124.331C86.6777 124.338 86.7999 124.235 86.919 124.183C86.8484 124.085 86.7949 123.966 86.7046 123.892C85.5575 122.954 84.1879 122.469 82.7634 121.952C82.5573 121.874 82.3297 121.828 82.1484 121.711ZM63.9831 96.5603C64.1605 97.2331 64.5819 97.5603 65.2308 97.6212C65.7911 97.6739 65.9557 97.3666 66.0923 96.9571C66.288 96.3707 66.4818 95.7835 66.6654 95.1933C67.0733 93.8823 67.0149 92.5612 66.7708 91.2285C66.6912 90.7939 66.7098 90.3411 66.6899 89.8963C66.687 89.8317 66.7199 89.7655 66.7362 89.7C66.6707 89.7191 66.6028 89.7324 66.5401 89.7584C66.1468 89.921 65.768 90.1464 65.3591 90.2382C64.593 90.4104 63.8121 90.5242 63.0324 90.6238C62.7315 90.6622 62.5532 90.6937 62.6487 91.062C62.739 91.4099 62.7751 91.7715 62.8469 92.1247C63.0016 92.8855 63.1639 93.6448 63.3232 94.5003C63.5461 95.1862 63.7995 95.8641 63.9831 96.5603ZM72.1468 89.3774C72.2211 89.4403 72.3036 89.4935 72.3823 89.5511C72.3819 89.4444 72.4114 89.3265 72.3761 89.233C72.169 88.683 71.9762 88.1248 71.7237 87.5955C71.1849 86.4658 70.6899 85.3041 70.0322 84.2452C69.3856 83.2043 68.515 82.3047 67.8282 81.2855C67.3362 80.5553 66.9881 79.7287 66.568 78.9494C66.5034 78.8295 66.3967 78.7324 66.3095 78.6248C66.2693 78.7513 66.192 78.8787 66.1951 79.0041C66.2152 79.818 66.2257 80.6339 66.294 81.4445C66.3405 81.9974 66.4337 82.5545 66.5824 83.0885C66.7474 83.6814 67.0465 84.2378 67.2007 84.8326C67.3811 85.5286 67.7116 85.9689 68.3857 86.3407C69.5035 86.9572 70.6571 87.598 71.4432 88.7711C71.6775 88.9735 71.9106 89.1773 72.1468 89.3774ZM67.171 62.3962C66.8042 62.9304 67.4844 64.8017 67.8542 64.9409C70.4431 65.9153 71.1811 64.2478 71.2151 63.79C71.2826 62.8814 71.3946 61.9602 70.5357 61.2235C68.2699 60.7728 67.7638 61.5331 67.171 62.3962ZM77.0839 63.1527C76.7359 62.2859 76.2094 61.7205 75.2925 61.9184C74.8246 62.0194 74.4125 62.3902 73.9821 62.6505C73.0577 63.2098 72.9367 63.5158 73.2598 64.5071C73.5832 65.4992 74.3377 66.0676 75.2975 66.2605C76.0919 66.4202 76.6597 65.9275 77.0794 65.1861C77.1853 64.5089 77.3593 63.8388 77.0839 63.1527ZM73.6556 62.032C74.0288 61.7666 74.4334 61.3736 74.836 61.3591C75.5326 61.3339 75.4194 60.9085 75.3443 60.5734C75.1344 59.6373 74.8601 58.715 74.5923 57.7927C74.409 57.1614 74.2539 57.1252 73.8092 57.5698C73.0474 58.3316 72.2757 59.0786 71.3187 59.6044C71.0193 59.7689 70.9782 60.1478 71.1922 60.4463C71.2719 60.5574 71.38 60.6527 71.4397 60.7728C71.734 61.3645 72.0008 61.9704 72.315 62.551C72.3845 62.6793 72.3316 63.1333 72.7806 62.799C73.0706 62.541 73.3411 62.2556 73.6556 62.032ZM129.872 130.53C130.522 130.409 131.218 130.242 131.319 129.378C131.336 129.233 131.402 129.094 131.435 128.95C131.64 128.056 131.408 127.77 130.513 127.674C129.67 127.583 128.834 127.433 127.997 127.297C127.549 127.225 127.466 127.309 127.417 127.765C127.348 128.396 127.25 129.026 127.132 129.65C127.028 130.197 127.181 130.63 127.662 130.737C128.4 130.673 129.148 130.665 129.872 130.53ZM90.8619 171.209C90.9528 171.205 91.1073 171.025 91.1107 170.921C91.1331 170.239 91.1168 169.554 91.1244 168.871C91.1287 168.487 90.8344 168.474 90.6231 168.541C90.1632 168.688 89.7258 168.906 89.2819 169.102C88.9611 169.243 88.6006 169.357 88.6394 169.819C88.6668 170.146 88.6668 170.48 88.742 170.796C88.867 171.32 89.3197 171.071 89.6893 171.175C90.0804 171.191 90.4723 171.226 90.8619 171.209ZM65.4177 115.663C65.3903 115.586 65.2773 115.538 65.2035 115.477C65.1499 115.554 65.0566 115.627 65.0492 115.708C65.0043 116.199 64.9659 116.691 64.9509 117.184C64.9362 117.665 65.277 117.977 65.7666 117.933C65.8495 117.925 65.9966 117.779 65.9858 117.72C65.9138 117.329 65.8069 116.944 65.6636 116.51C65.584 116.227 65.5154 115.94 65.4177 115.663ZM92.3326 124.684C92.3856 124.579 92.4971 124.287 92.173 124.347C91.6787 124.44 91.1929 124.58 90.7068 124.713C90.618 124.737 90.5453 124.82 90.4652 124.876C90.5582 124.92 90.6498 124.999 90.7442 125.002C91.1405 125.016 91.5375 125.008 91.9821 124.96C92.1036 124.871 92.2718 124.804 92.3326 124.684ZM55.442 74.5915C55.3658 74.6358 55.2897 74.68 55.2135 74.7243C55.2734 74.7911 55.3225 74.8837 55.3973 74.915C55.442 74.9336 55.5399 74.8696 55.5915 74.8196C55.8855 74.5347 56.1742 74.2444 56.4611 73.9523C56.5186 73.8938 56.5604 73.8199 56.6094 73.7532C56.5128 73.772 56.3914 73.7604 56.3238 73.8151C56.0371 74.0472 55.7663 74.2991 55.442 74.5915Z" fill="#1E1F26"/>
<path fill-rule="evenodd" clip-rule="evenodd" d="M65.6785 69.0292C65.231 68.7873 64.7883 68.5888 64.6953 68.0496C64.5146 67.0019 64.892 65.7677 66.2574 65.8394C67.4885 65.9041 68.2696 66.9265 67.8341 68.0813C67.5129 68.9327 66.7336 69.355 65.6785 69.0292Z" fill="#FCA740"/>
<path fill-rule="evenodd" clip-rule="evenodd" d="M71.7497 65.121C71.7742 64.9603 71.7988 64.8479 71.8233 64.7355C71.862 64.8335 71.9117 64.9287 71.9377 65.0301C72.1298 65.7815 72.7384 67.6526 72.0135 68.5136C71.9532 68.5853 71.6474 68.5966 71.4568 68.5845C71.0825 68.5608 70.6462 68.0087 70.7156 67.6526C70.726 67.5992 71.6295 68.476 71.8233 68.0015C72.1465 67.2102 71.7497 65.3931 71.7497 65.121Z" fill="#1E1F26"/>
<path fill-rule="evenodd" clip-rule="evenodd" d="M66.6534 70.6039C66.6158 70.5849 66.5637 70.5899 66.5187 70.5918C66.4074 70.5964 66.2551 70.3971 66.32 70.3128C66.4176 70.1859 66.5283 70.0578 66.6605 69.9742C66.7393 69.9244 66.8695 70.0858 66.8597 70.1571C66.8523 70.2104 66.903 70.2939 66.9521 70.33C67.7001 70.8795 68.5304 71.2356 69.439 71.4067C69.4991 71.418 69.5513 71.4717 69.6072 71.5056C69.5515 71.5443 69.4961 71.6194 69.4401 71.6161C68.4488 71.5582 67.3028 70.9333 66.6534 70.6039Z" fill="#1E1F26"/>
<path fill-rule="evenodd" clip-rule="evenodd" d="M42.5031 113.632L41.5615 117.653C41.4887 117.964 41.7814 118.237 42.0863 118.142L45.3548 117.124C45.6297 117.038 45.7348 116.705 45.5584 116.477L43.2314 113.473C43.0186 113.199 42.5823 113.294 42.5031 113.632ZM42.9053 114.277L44.9571 116.73L41.9638 117.748L42.9053 114.277Z" fill="#FCA740"/>
<path fill-rule="evenodd" clip-rule="evenodd" d="M45.424 90.4322C45.0799 90.4013 44.8523 90.7816 45.0422 91.0703L47.4367 94.7105C47.5982 94.9559 47.957 94.959 48.1226 94.7164L50.3265 91.4888C50.5043 91.2285 50.3365 90.873 50.0225 90.8448L45.424 90.4322ZM45.7482 90.8447L49.8652 91.6448L47.437 94.1862L45.7482 90.8447Z" fill="#FCA740"/>
<path fill-rule="evenodd" clip-rule="evenodd" d="M60.5993 118.268H57.222C56.942 118.268 56.7432 118.54 56.829 118.807L57.9635 122.333C58.0706 122.666 58.5172 122.723 58.7048 122.428L60.9476 118.902C61.1225 118.627 60.925 118.268 60.5993 118.268ZM60.3242 118.956L58.6318 122.207L57.4973 118.681L60.3242 118.956Z" fill="#FCA740"/>
<path fill-rule="evenodd" clip-rule="evenodd" d="M49.5328 137.375L49.3785 140.432C49.3623 140.753 49.7018 140.968 49.9849 140.818L53.9117 138.726C54.2444 138.549 54.1851 138.055 53.8199 137.961L50.0475 136.996C49.7947 136.932 49.546 137.115 49.5328 137.375ZM49.8315 137.667L53.4402 138.168L49.9851 140.21L49.8315 137.667Z" fill="#FCA740"/>
<path fill-rule="evenodd" clip-rule="evenodd" d="M44.3263 99.8291L41.2988 101.928C41.0426 102.105 41.0681 102.492 41.3454 102.634L44.8884 104.453C45.1846 104.605 45.5297 104.362 45.4862 104.032L44.9708 100.115C44.9305 99.8082 44.5803 99.6531 44.3263 99.8291ZM44.4481 100.558L45.0771 104.086L41.5342 102.267L44.4481 100.558Z" fill="#FCA740"/>
<path fill-rule="evenodd" clip-rule="evenodd" d="M58.2178 108.818L56.3287 111.638C56.166 111.881 56.3003 112.211 56.5863 112.272L58.7951 112.739C59.068 112.797 59.3184 112.573 59.2914 112.295L58.9717 109.007C58.9342 108.621 58.4335 108.495 58.2178 108.818ZM58.7322 109.383V112.403L56.8329 111.638L58.7322 109.383Z" fill="#FCA740"/>
<path fill-rule="evenodd" clip-rule="evenodd" d="M58.5755 95.53C59.1251 95.1713 59.6074 95.2564 59.215 96.0456C59.215 96.0456 56.3496 103.311 55.4935 103.397C54.6816 103.478 54.2897 102.428 53.156 99.4265L53.1079 99.2986C53.1036 99.2872 53.0999 99.2759 53.0966 99.2647L53.0906 99.2406L53.0832 99.2273L53.0675 99.1907L52.9319 98.8241C52.7718 98.387 52.3688 97.6656 52.1556 97.415C51.9285 97.148 52.4352 96.9826 52.8095 96.9826C53.5081 96.9826 54.3629 97.1777 55.7073 96.7897C57.2818 96.3353 57.8221 96.0217 58.5755 95.53ZM57.357 99.2621L57.3191 99.2866C56.9194 99.5327 56.4776 99.7221 55.9949 99.854C55.4174 100.012 54.5796 100.031 54.0375 99.9131L53.9469 99.8919L53.9803 99.9752C54.2862 100.738 54.5582 101.619 54.7952 102.068L54.8779 102.22C55.0265 102.487 55.157 102.681 55.2625 102.798L55.2955 102.832L55.3365 102.783C55.5132 102.557 56.1422 101.707 56.5792 100.858L56.6249 100.769C56.812 100.402 57.016 99.9847 57.237 99.5179L57.357 99.2621ZM58.5363 96.3691L58.4698 96.4069C57.8482 96.7531 56.82 97.3277 55.9362 97.5828C54.8783 97.8881 53.9815 97.9971 53.2437 97.8994L53.1985 97.8926L53.2244 97.9657C53.2948 98.1629 53.5936 99.0968 53.6994 99.2404C54.1275 99.636 54.6526 99.6736 55.2954 99.5178L55.3876 99.4941C57.6894 99.0494 58.5363 96.3691 58.5363 96.3691Z" fill="#FCA740"/>
<path fill-rule="evenodd" clip-rule="evenodd" d="M139.372 121.767C139.464 121.7 139.593 121.719 139.661 121.811C140.137 122.457 140.944 122.489 142.017 121.894C142.116 121.838 142.242 121.874 142.297 121.974C142.353 122.073 142.317 122.199 142.217 122.254C140.983 122.94 139.95 122.899 139.329 122.056C139.261 121.964 139.281 121.835 139.372 121.767Z" fill="#E0E0E0"/>
<path fill-rule="evenodd" clip-rule="evenodd" d="M137.812 123.421C137.896 123.344 138.027 123.351 138.103 123.435C138.826 124.23 139.786 124.275 140.568 123.858C140.668 123.804 140.793 123.842 140.847 123.943C140.901 124.044 140.863 124.169 140.762 124.222C139.829 124.721 138.664 124.666 137.798 123.713C137.721 123.628 137.727 123.498 137.812 123.421Z" fill="#E0E0E0"/>
<path fill-rule="evenodd" clip-rule="evenodd" d="M136.121 125.059C136.204 124.981 136.335 124.985 136.413 125.068C137.11 125.808 138.526 126.17 139.495 125.656C139.596 125.603 139.721 125.641 139.774 125.742C139.827 125.843 139.789 125.967 139.688 126.021C138.541 126.629 136.928 126.217 136.113 125.351C136.034 125.268 136.038 125.137 136.121 125.059Z" fill="#E0E0E0"/>
<path fill-rule="evenodd" clip-rule="evenodd" d="M137.433 131.533C138.883 130.832 137.384 128.233 135.982 129.285C135.083 129.959 136.069 132.193 137.433 131.533Z" fill="#E0E0E0"/>
</svg>
