<svg width="44" height="57" viewBox="0 0 44 57" fill="none" xmlns="http://www.w3.org/2000/svg">
<path d="M22 0.333496C30.8267 0.333496 38 7.42683 38 16.2002C38 28.0935 22 45.6668 22 45.6668C22 45.6668 5.99999 28.0935 5.99999 16.2002C5.99999 7.42683 13.1733 0.333496 22 0.333496ZM22 11.0002C20.5855 11.0002 19.2289 11.5621 18.2288 12.5623C17.2286 13.5625 16.6667 14.919 16.6667 16.3335C16.6667 17.748 17.2286 19.1045 18.2288 20.1047C19.2289 21.1049 20.5855 21.6668 22 21.6668C23.4145 21.6668 24.771 21.1049 25.7712 20.1047C26.7714 19.1045 27.3333 17.748 27.3333 16.3335C27.3333 14.919 26.7714 13.5625 25.7712 12.5623C24.771 11.5621 23.4145 11.0002 22 11.0002ZM43.3333 45.6668C43.3333 51.5602 33.7867 56.3335 22 56.3335C10.2133 56.3335 0.666656 51.5602 0.666656 45.6668C0.666656 42.2268 3.91999 39.1602 8.95999 37.2135L10.6667 39.6402C7.78666 40.8402 5.99999 42.4935 5.99999 44.3335C5.99999 48.0135 13.1733 51.0002 22 51.0002C30.8267 51.0002 38 48.0135 38 44.3335C38 42.4935 36.2133 40.8402 33.3333 39.6402L35.04 37.2135C40.08 39.1602 43.3333 42.2268 43.3333 45.6668Z" fill="#7B61FF"/>
</svg>
