<svg width="14" height="17" viewBox="0 0 14 17" fill="none" xmlns="http://www.w3.org/2000/svg">
<path d="M2.07508 10.6667C2.47342 13.0275 4.52758 14.8333 7.00008 14.8333C9.75675 14.8333 12.0001 12.59 12.0001 9.83333C12.0001 7.07667 9.75675 4.83333 7.00008 4.83333H5.19008L6.92841 6.57167L5.75008 7.75L2.00008 4L5.75008 0.25L6.92841 1.42833L5.19008 3.16667H7.00008C8.76819 3.16667 10.4639 3.86905 11.7141 5.11929C12.9644 6.36953 13.6667 8.06522 13.6667 9.83333C13.6667 11.6014 12.9644 13.2971 11.7141 14.5474C10.4639 15.7976 8.76819 16.5 7.00008 16.5C3.60008 16.5 0.801748 13.9542 0.391748 10.6667H2.07508Z" fill="#4F4F4F"/>
</svg>
