<svg width="20" height="20" viewBox="0 0 20 20" fill="none" xmlns="http://www.w3.org/2000/svg">
<path d="M7.91667 0.104157C9.3729 0.104098 10.8002 0.511046 12.0374 1.27908C13.2746 2.04711 14.2726 3.14564 14.9186 4.45072C15.5646 5.7558 15.8331 7.21547 15.6936 8.665C15.5541 10.1145 15.0122 11.4962 14.1292 12.6542L19.0698 17.5969C19.2566 17.7843 19.3651 18.0359 19.3732 18.3004C19.3812 18.5649 19.2883 18.8226 19.1133 19.0211C18.9383 19.2196 18.6942 19.3441 18.4308 19.3692C18.1673 19.3943 17.9042 19.3181 17.6948 19.1562L17.5969 19.0698L12.6542 14.1292C11.6677 14.8813 10.5163 15.3878 9.29526 15.6066C8.0742 15.8255 6.81858 15.7504 5.6323 15.3876C4.44602 15.0248 3.36318 14.3847 2.4734 13.5204C1.58361 12.656 0.912447 11.5921 0.515451 10.4169C0.118455 9.24158 0.00703746 7.98866 0.190417 6.76177C0.373796 5.53489 0.846701 4.3693 1.57 3.36148C2.2933 2.35365 3.2462 1.53255 4.34984 0.966121C5.45349 0.399693 6.67616 0.104222 7.91667 0.104157ZM7.91667 2.18749C6.3972 2.18749 4.93997 2.7911 3.86554 3.86552C2.79111 4.93995 2.18751 6.39719 2.18751 7.91666C2.18751 9.43613 2.79111 10.8934 3.86554 11.9678C4.93997 13.0422 6.3972 13.6458 7.91667 13.6458C9.43614 13.6458 10.8934 13.0422 11.9678 11.9678C13.0422 10.8934 13.6458 9.43613 13.6458 7.91666C13.6458 6.39719 13.0422 4.93995 11.9678 3.86552C10.8934 2.7911 9.43614 2.18749 7.91667 2.18749Z" fill="#EB9050"/>
</svg>
