<svg width="33" height="33" viewBox="0 0 33 33" fill="none" xmlns="http://www.w3.org/2000/svg">
<path d="M22.9107 10.3123C23.0463 10.4477 23.1538 10.6086 23.2272 10.7856C23.3006 10.9627 23.3384 11.1524 23.3384 11.3441C23.3384 11.5357 23.3006 11.7255 23.2272 11.9025C23.1538 12.0796 23.0463 12.2404 22.9107 12.3758L18.5619 16.7231L22.4644 20.6242C22.7381 20.8978 22.8918 21.269 22.8918 21.6559C22.8918 22.0429 22.7381 22.4141 22.4644 22.6877C22.1908 22.9614 21.8197 23.1151 21.4327 23.1151C21.0457 23.1151 20.6745 22.9614 20.4009 22.6877L16.4999 18.7852L12.5988 22.6877C12.3252 22.9614 11.954 23.1151 11.567 23.1151C11.1801 23.1151 10.8089 22.9614 10.5353 22.6877C10.2616 22.4141 10.1079 22.0429 10.1079 21.6559C10.1079 21.269 10.2616 20.8978 10.5353 20.6242L14.4378 16.7231L10.089 12.3758C9.95353 12.2402 9.84607 12.0793 9.77278 11.9022C9.69949 11.7251 9.6618 11.5352 9.66187 11.3436C9.66193 11.1519 9.69976 10.9621 9.77317 10.785C9.84659 10.6079 9.95416 10.4471 10.0898 10.3116C10.2253 10.1761 10.3863 10.0686 10.5634 9.99532C10.7405 9.92203 10.9304 9.88434 11.122 9.88441C11.3137 9.88447 11.5035 9.9223 11.6806 9.99572C11.8577 10.0691 12.0185 10.1767 12.154 10.3123L16.4999 14.6625L20.8471 10.3138C20.9826 10.1782 21.1434 10.0706 21.3205 9.99721C21.4975 9.92382 21.6873 9.88605 21.8789 9.88605C22.0706 9.88605 22.2603 9.92382 22.4374 9.99721C22.6144 10.0706 22.7753 10.1782 22.9107 10.3138V10.3123Z" fill="#C97A40"/>
<path fill-rule="evenodd" clip-rule="evenodd" d="M4.83325 0.458336C3.67293 0.458336 2.56013 0.919272 1.73966 1.73974C0.919188 2.56022 0.458252 3.67301 0.458252 4.83334V28.1667C0.458252 29.327 0.919188 30.4398 1.73966 31.2603C2.56013 32.0807 3.67293 32.5417 4.83325 32.5417H28.1666C29.3269 32.5417 30.4397 32.0807 31.2602 31.2603C32.0807 30.4398 32.5416 29.327 32.5416 28.1667V4.83334C32.5416 3.67301 32.0807 2.56022 31.2602 1.73974C30.4397 0.919272 29.3269 0.458336 28.1666 0.458336H4.83325ZM28.1666 3.375H4.83325C4.44648 3.375 4.07555 3.52865 3.80205 3.80214C3.52856 4.07563 3.37492 4.44656 3.37492 4.83334V28.1667C3.37492 28.5534 3.52856 28.9244 3.80205 29.1979C4.07555 29.4714 4.44648 29.625 4.83325 29.625H28.1666C28.5534 29.625 28.9243 29.4714 29.1978 29.1979C29.4713 28.9244 29.6249 28.5534 29.6249 28.1667V4.83334C29.6249 4.44656 29.4713 4.07563 29.1978 3.80214C28.9243 3.52865 28.5534 3.375 28.1666 3.375Z" fill="#C97A40"/>
</svg>
